<?xml version="1.0" encoding="UTF-8"?>
<svg version="1.1" xmlns="http://www.w3.org/2000/svg" width="100" height="100">
<path d="M0 0 C33 0 66 0 100 0 C100 33 100 66 100 100 C67 100 34 100 0 100 C0 67 0 34 0 0 Z " fill="#7F7F7F" transform="translate(0,0)"/>
<path d="M0 0 C0.99 0 1.98 0 3 0 C3 5.28 3 10.56 3 16 C7.95 16 12.9 16 18 16 C18 16.66 18 17.32 18 18 C13.05 18 8.1 18 3 18 C3 23.28 3 28.56 3 34 C2.01 34 1.02 34 0 34 C0 28.72 0 23.44 0 18 C-4.95 18 -9.9 18 -15 18 C-15 17.34 -15 16.68 -15 16 C-10.05 16 -5.1 16 0 16 C0 10.72 0 5.44 0 0 Z " fill="#010101" transform="translate(48,34)"/>
</svg>
