<svg version="1.1" id="Layer_1" xmlns="http://www.w3.org/2000/svg" xmlns:xlink="http://www.w3.org/1999/xlink" x="0px" y="0px"
	 width="100%" viewBox="0 0 855 220" enable-background="new 0 0 855 220" xml:space="preserve">
<path fill="#07112D" opacity="1.000000" stroke="none" 
	d="
M635.000000,221.000000 
	C423.382416,221.000000 212.264816,221.000000 1.073612,221.000000 
	C1.073612,147.732849 1.073612,74.465599 1.073612,1.099176 
	C285.999969,1.099176 571.000000,1.099176 855.974121,1.099176 
	C855.974121,74.401894 855.974121,147.700958 855.974121,221.000000 
	C782.465515,221.000000 708.982788,221.000000 635.000000,221.000000 
M130.578751,153.935867 
	C130.754944,153.660583 130.931137,153.385300 131.579224,152.935577 
	C131.755310,152.660324 131.931396,152.385071 132.580734,151.934326 
	C132.757721,151.658005 132.934708,151.381699 133.713104,150.827103 
	C134.849182,149.256058 135.985260,147.685028 137.738113,145.802109 
	C148.336441,131.239594 151.364990,114.947182 147.887146,97.558945 
	C145.877289,87.510254 141.889496,78.131271 133.992889,70.212791 
	C132.031525,68.439354 130.070160,66.665916 127.932785,64.421944 
	C127.656845,64.244217 127.380905,64.066483 126.831360,63.293098 
	C125.592041,62.488251 124.352730,61.683403 122.801979,60.261829 
	C109.443230,50.725185 94.452103,47.676819 78.501320,50.149704 
	C68.252922,51.738537 58.587879,55.382530 50.199574,62.979244 
	C47.092758,66.281364 43.985939,69.583481 40.265320,73.189156 
	C39.591972,73.920181 38.801685,74.574295 38.262703,75.393707 
	C29.238157,89.113693 25.252789,104.081444 28.077576,120.389771 
	C29.858431,130.671158 33.405582,140.356094 41.066322,148.579315 
	C41.341698,148.756226 41.617069,148.933136 41.990303,149.794373 
	C44.622608,152.236969 47.254910,154.679565 50.169304,157.712631 
	C51.408394,158.515701 52.647484,159.318771 54.198620,160.738846 
	C68.835625,171.129791 85.259262,173.566986 102.216995,169.545105 
	C109.907539,167.721130 116.838539,162.694626 124.774200,159.016174 
	C126.218361,157.714172 127.662514,156.412170 129.575668,154.934601 
	C129.752701,154.659882 129.929733,154.385147 130.578751,153.935867 
M235.457825,110.499115 
	C235.591156,102.676186 235.466263,94.837814 235.932663,87.034790 
	C236.372498,79.676369 240.011536,75.726410 247.239944,74.985657 
	C254.329147,74.259178 261.496796,74.223038 268.633911,74.085167 
	C270.761108,74.044075 272.930084,74.554771 275.030334,75.031113 
	C281.045135,76.395256 282.987030,80.714256 283.571655,86.369751 
	C283.708313,87.691566 285.850555,88.806053 287.070068,90.015930 
	C288.004425,88.923370 289.809631,87.766991 289.734985,86.748367 
	C289.154968,78.833679 286.902283,70.638580 276.700745,69.297958 
	C266.752472,67.990623 256.435638,67.869064 246.451431,68.892746 
	C235.702820,69.994781 231.083557,74.714912 230.123596,85.584595 
	C228.986740,98.457207 228.663925,111.532951 229.543579,124.414444 
	C230.374756,136.585876 235.261200,141.607376 247.382935,143.178238 
	C256.494507,144.359024 265.988434,143.993317 275.156128,142.947891 
	C284.625488,141.868088 289.297974,135.818481 289.732666,126.350998 
	C289.797485,124.939384 288.389801,123.460167 287.663330,122.012215 
	C286.341949,123.035843 284.910980,123.951920 283.751007,125.133957 
	C283.259521,125.634743 283.305756,126.688499 283.161255,127.500481 
	C282.008392,133.978485 279.765015,136.498840 273.146454,137.111465 
	C266.212341,137.753281 259.180725,138.272430 252.252731,137.848297 
	C239.546906,137.070419 235.790543,132.737259 235.469849,119.994774 
	C235.398621,117.164307 235.458328,114.330551 235.457825,110.499115 
M819.242188,139.268890 
	C811.297119,130.184631 803.352051,121.100365 795.259888,111.847969 
	C802.523193,105.632217 809.407532,99.891647 816.056213,93.890015 
	C817.067139,92.977493 816.985046,90.853996 817.408508,89.290596 
	C815.698853,89.270416 813.463196,88.542328 812.371399,89.353653 
	C807.849609,92.713867 803.670105,96.535362 799.371643,100.195396 
	C794.057800,104.719978 788.750671,109.252472 783.012817,114.146492 
	C783.012817,98.161926 783.023865,82.999466 783.001526,67.837044 
	C782.997986,65.411087 783.617798,62.293907 779.809326,62.325382 
	C776.233887,62.354939 777.028992,65.340706 777.001282,67.551620 
	C776.951172,71.550026 776.987122,75.549507 776.987122,79.548538 
	C776.987122,99.543701 776.930542,119.539352 777.103394,139.533005 
	C777.116150,141.008102 778.782776,142.468903 779.680420,143.936325 
	C780.791016,142.464661 782.549744,141.119370 782.866760,139.493042 
	C783.398682,136.764023 783.341187,133.809540 782.947876,131.032623 
	C781.974915,124.163605 784.172485,119.131790 790.758057,116.357491 
	C798.095459,124.630203 805.526917,133.136169 813.111877,141.502991 
	C816.502441,145.243088 818.060425,144.759293 819.242188,139.268890 
M489.974701,118.436317 
	C491.080231,131.983063 486.915863,135.966187 473.251404,137.532211 
	C472.429565,137.626404 471.619873,137.940109 470.802887,137.946671 
	C454.817688,138.075363 451.299591,134.611511 451.619263,120.504303 
	C451.826538,111.356117 451.808411,102.194626 451.517853,93.050957 
	C451.465942,91.416916 449.588379,89.840889 448.553711,88.238083 
	C447.438049,89.772888 445.398529,91.282600 445.356079,92.846542 
	C445.071594,103.322929 445.031006,113.814934 445.266998,124.293869 
	C445.493561,134.355820 449.295776,140.802567 456.871918,142.524261 
	C468.523315,145.172058 480.164062,145.899673 489.854156,136.101273 
	C489.907501,137.113220 489.939056,137.745956 489.974487,138.378448 
	C490.108459,140.768066 489.316437,143.938873 493.171448,143.872726 
	C497.188446,143.803787 495.972839,140.459869 495.984497,138.233185 
	C496.062866,123.256142 496.021515,108.278496 496.029266,93.301041 
	C496.030457,90.985764 496.511780,88.208199 492.982513,88.297035 
	C489.529694,88.383942 489.987518,91.196808 489.982086,93.490646 
	C489.963226,101.478577 489.974731,109.466583 489.974701,118.436317 
M377.559601,123.929817 
	C377.695648,124.748398 377.900909,125.562233 377.957275,126.386269 
	C378.670502,136.811676 383.244263,142.541214 393.631226,143.534546 
	C401.318848,144.269730 409.208099,143.549042 416.949127,142.839554 
	C421.974091,142.378998 425.356659,138.885239 426.656372,134.034729 
	C427.053711,132.551773 425.860901,130.642746 425.396301,128.928879 
	C423.870148,129.916595 422.298584,130.841568 420.828217,131.906326 
	C418.451111,133.627747 416.339783,136.512451 413.760345,136.992111 
	C408.426880,137.983902 402.834442,138.164505 397.393402,137.864441 
	C388.448883,137.371155 384.423401,134.014282 384.099945,126.982468 
	C383.763458,119.667023 383.791199,112.314247 384.097870,104.996162 
	C384.351410,98.947044 388.166229,95.230965 394.212646,94.955109 
	C400.360046,94.674644 406.529602,94.863029 412.689423,94.878365 
	C416.771332,94.888519 419.416809,96.765747 421.109589,100.603722 
	C421.694000,101.928696 423.845551,102.562454 425.281281,103.511963 
	C425.825806,101.932999 426.970001,100.287231 426.802917,98.787537 
	C426.292175,94.202492 421.710815,89.733803 416.147217,89.158134 
	C409.065277,88.425377 401.830139,87.850815 394.775024,88.482124 
	C383.275574,89.511124 378.931671,94.437080 378.009979,106.073112 
	C377.564270,111.700294 377.675629,117.371613 377.559601,123.929817 
M748.037109,91.259262 
	C735.069458,86.367294 722.668091,86.226456 711.121887,95.860840 
	C711.079407,95.047050 711.055176,94.451065 711.016174,93.856056 
	C710.864075,91.536102 711.952698,88.279137 708.020874,88.327766 
	C704.196655,88.375076 705.006226,91.577164 705.000916,93.945824 
	C704.966736,109.087723 704.995605,124.229752 704.971008,139.371689 
	C704.967285,141.663055 704.971069,143.909225 708.093140,143.907547 
	C711.367310,143.905792 711.018982,141.459671 711.018188,139.291809 
	C711.014404,129.141693 710.997192,118.991531 711.023376,108.841484 
	C711.041260,101.933456 714.077332,97.343040 720.833984,96.078941 
	C726.631226,94.994347 732.683838,94.838127 738.606934,94.976944 
	C745.483887,95.138130 748.716309,98.016647 749.126221,104.938850 
	C749.803040,116.368546 749.747314,127.842026 749.973877,139.297577 
	C750.016724,141.462555 749.692688,144.278000 752.845276,143.719772 
	C754.106079,143.496521 755.779907,140.842529 755.819824,139.258530 
	C756.083923,128.782318 756.149841,118.291145 755.879761,107.815178 
	C755.719055,101.581284 754.332092,95.590714 748.037109,91.259262 
M566.192871,88.201401 
	C562.411133,88.201401 558.629395,88.201401 554.457397,88.201401 
	C554.457397,83.887810 554.717590,80.070015 554.317810,76.322639 
	C554.175781,74.991402 552.429260,73.831360 551.415161,72.593170 
	C550.311829,73.914154 548.429871,75.141052 548.256714,76.574432 
	C547.806030,80.304832 548.105225,84.125847 548.105225,88.222595 
	C545.489319,88.222595 543.261353,87.846733 541.261658,88.360077 
	C540.012207,88.680801 539.106934,90.342110 538.047180,91.401863 
	C539.130188,92.474197 540.055969,94.145218 541.332581,94.480659 
	C543.321350,95.003189 545.548401,94.618874 548.110657,94.618874 
	C548.110657,104.809105 547.805481,114.600220 548.184082,124.364830 
	C548.716736,138.102722 554.959900,143.259018 567.427673,143.926392 
	C572.113892,144.177231 572.657166,143.157028 571.133423,138.263733 
	C568.352417,137.852417 565.565613,137.476532 562.791748,137.021515 
	C558.586243,136.331696 555.342102,133.727020 555.187439,129.717651 
	C554.742371,118.179649 555.030334,106.613373 555.030334,94.662964 
	C559.076721,94.662964 563.040771,94.755722 566.997498,94.626396 
	C569.191162,94.554695 571.974609,95.052612 572.025574,91.441864 
	C572.077087,87.795265 569.374451,88.330589 566.192871,88.201401 
M645.496765,143.944763 
	C650.322510,143.942245 655.161255,144.126343 659.964111,143.793701 
	C661.039185,143.719223 661.988892,141.833771 662.996277,140.782074 
	C661.958862,139.853836 660.995728,138.248535 659.870117,138.125153 
	C656.581360,137.764725 653.227844,137.994904 649.899719,137.994751 
	C641.465698,137.994370 633.031677,137.994629 624.005310,137.994629 
	C624.005310,135.637146 624.005310,133.855621 624.005310,132.074112 
	C624.005310,112.271751 623.998535,92.469391 624.014587,72.667046 
	C624.016418,70.442062 624.139465,67.709366 621.059631,68.295883 
	C619.797791,68.536186 618.138733,71.218452 618.125000,72.802559 
	C617.933044,94.932945 618.053772,117.065826 617.938477,139.197281 
	C617.918579,143.006989 619.479919,144.087646 623.032715,143.998199 
	C630.183655,143.818161 637.342346,143.944717 645.496765,143.944763 
M343.455597,125.494659 
	C343.458313,121.330833 343.317963,117.161018 343.492004,113.004364 
	C343.922729,102.716911 350.676025,95.821953 360.992737,94.916924 
	C362.974457,94.743080 365.038239,94.756264 366.888306,94.148201 
	C367.800903,93.848251 368.880371,92.310966 368.851715,91.364861 
	C368.820740,90.343071 367.779114,88.842224 366.826233,88.482201 
	C365.524719,87.990471 363.879059,88.263412 362.400940,88.410141 
	C355.031403,89.141739 348.930298,92.364868 343.438782,99.558067 
	C343.438782,96.032829 343.877289,93.976784 343.307495,92.254288 
	C342.802734,90.728317 341.176697,89.573257 340.045654,88.254456 
	C339.043396,89.709229 337.189606,91.152534 337.169830,92.620537 
	C336.958984,108.273735 336.961853,123.931847 337.165619,139.585236 
	C337.184631,141.044312 338.981079,142.480255 339.952209,143.926941 
	C341.116241,142.445145 343.109070,141.054718 343.284454,139.463928 
	C343.756195,135.185150 343.451813,130.820816 343.455597,125.494659 
M524.067810,141.386383 
	C524.183960,124.924698 524.367798,108.462654 524.282410,92.002014 
	C524.275879,90.741936 522.366699,89.491722 521.341858,88.236923 
	C520.265808,89.600533 518.273071,90.951416 518.253906,92.329704 
	C518.034241,108.140327 518.076904,123.955368 518.184570,139.768311 
	C518.193420,141.070343 518.952271,143.235153 519.777954,143.457611 
	C520.976379,143.780502 522.553162,142.698837 524.067810,141.386383 
M683.004700,127.493828 
	C683.004272,115.704697 683.092957,103.913940 682.877930,92.128738 
	C682.854126,90.825203 681.096130,89.553299 680.142456,88.266731 
	C679.093994,89.425621 677.146851,90.573479 677.132446,91.745049 
	C676.932617,108.014915 676.942444,124.288620 677.117249,140.559052 
	C677.129395,141.690384 678.846802,142.803391 679.771240,143.924957 
	C680.848022,142.765213 682.724487,141.687393 682.853333,140.430481 
	C683.257446,136.486725 683.003662,132.475571 683.004700,127.493828 
M315.003632,96.637024 
	C315.003632,95.805634 315.074860,94.966896 314.989929,94.144272 
	C314.757355,91.891029 316.160431,88.520546 312.286682,88.364662 
	C308.071747,88.195068 309.031189,91.726608 309.022461,94.207405 
	C308.969971,109.172241 309.007568,124.137367 308.985352,139.102356 
	C308.981689,141.552567 309.003998,144.352768 312.322266,143.698196 
	C313.479706,143.469879 314.862854,140.654129 314.887360,139.001404 
	C315.092041,125.203369 315.003632,111.400986 315.003632,96.637024 
M515.977539,74.070244 
	C516.573914,77.980171 519.624084,78.297714 522.355225,77.606461 
	C524.002930,77.189423 526.100281,75.278320 526.447876,73.698120 
	C527.105103,70.710091 527.277161,67.200279 522.429260,66.941689 
	C516.589722,66.630203 516.058472,67.050117 515.977539,74.070244 
M314.911377,67.028618 
	C314.081879,67.014107 313.252289,66.981926 312.422943,66.987938 
	C307.027039,67.027061 306.723785,67.585762 306.936798,73.666832 
	C307.102448,78.396156 310.424011,77.932571 313.298309,77.693726 
	C317.885681,77.312508 318.878540,72.721680 314.911377,67.028618 
M678.030396,77.700485 
	C679.352905,77.684349 680.992126,78.148987 681.921692,77.536476 
	C683.230835,76.673904 684.744690,75.068886 684.850891,73.680336 
	C685.010376,71.596436 684.323364,67.753899 683.470825,67.601646 
	C680.834900,67.130890 676.638123,67.076920 675.463989,68.656921 
	C673.612671,71.148094 672.897034,75.296783 678.030396,77.700485 
z"/>
<path fill="#F4F5F6" opacity="1.000000" stroke="none" 
	d="
M235.457794,110.998711 
	C235.458328,114.330551 235.398621,117.164307 235.469849,119.994774 
	C235.790543,132.737259 239.546906,137.070419 252.252731,137.848297 
	C259.180725,138.272430 266.212341,137.753281 273.146454,137.111465 
	C279.765015,136.498840 282.008392,133.978485 283.161255,127.500481 
	C283.305756,126.688499 283.259521,125.634743 283.751007,125.133957 
	C284.910980,123.951920 286.341949,123.035843 287.663330,122.012222 
	C288.389801,123.460167 289.797485,124.939384 289.732666,126.350998 
	C289.297974,135.818481 284.625488,141.868088 275.156128,142.947891 
	C265.988434,143.993317 256.494507,144.359024 247.382935,143.178238 
	C235.261200,141.607376 230.374756,136.585876 229.543579,124.414444 
	C228.663925,111.532951 228.986740,98.457207 230.123596,85.584595 
	C231.083557,74.714912 235.702820,69.994781 246.451431,68.892746 
	C256.435638,67.869064 266.752472,67.990623 276.700745,69.297958 
	C286.902283,70.638580 289.154968,78.833679 289.734985,86.748367 
	C289.809631,87.766991 288.004425,88.923370 287.070068,90.015930 
	C285.850555,88.806053 283.708313,87.691566 283.571655,86.369751 
	C282.987030,80.714256 281.045135,76.395256 275.030334,75.031113 
	C272.930084,74.554771 270.761108,74.044075 268.633911,74.085167 
	C261.496796,74.223038 254.329147,74.259178 247.239944,74.985657 
	C240.011536,75.726410 236.372498,79.676369 235.932663,87.034790 
	C235.466263,94.837814 235.591156,102.676186 235.457794,110.998711 
z"/>
<path fill="#F8F9F9" opacity="1.000000" stroke="none" 
	d="
M819.420227,139.578751 
	C818.060425,144.759293 816.502441,145.243088 813.111877,141.502991 
	C805.526917,133.136169 798.095459,124.630203 790.758057,116.357491 
	C784.172485,119.131790 781.974915,124.163605 782.947876,131.032623 
	C783.341187,133.809540 783.398682,136.764023 782.866760,139.493042 
	C782.549744,141.119370 780.791016,142.464661 779.680420,143.936340 
	C778.782776,142.468903 777.116150,141.008102 777.103394,139.533005 
	C776.930542,119.539352 776.987122,99.543701 776.987122,79.548538 
	C776.987122,75.549507 776.951172,71.550026 777.001282,67.551620 
	C777.028992,65.340706 776.233887,62.354939 779.809326,62.325382 
	C783.617798,62.293907 782.997986,65.411087 783.001526,67.837044 
	C783.023865,82.999466 783.012817,98.161926 783.012817,114.146492 
	C788.750671,109.252472 794.057800,104.719978 799.371643,100.195396 
	C803.670105,96.535362 807.849609,92.713867 812.371399,89.353653 
	C813.463196,88.542328 815.698853,89.270416 817.408508,89.290596 
	C816.985046,90.853996 817.067139,92.977493 816.056213,93.890015 
	C809.407532,99.891647 802.523193,105.632217 795.259888,111.847969 
	C803.352051,121.100365 811.297119,130.184631 819.420227,139.578751 
z"/>
<path fill="#F2F3F4" opacity="1.000000" stroke="none" 
	d="
M489.974701,117.945435 
	C489.974731,109.466583 489.963226,101.478577 489.982086,93.490646 
	C489.987518,91.196808 489.529694,88.383942 492.982513,88.297035 
	C496.511780,88.208199 496.030457,90.985764 496.029266,93.301041 
	C496.021515,108.278496 496.062866,123.256142 495.984497,138.233185 
	C495.972839,140.459869 497.188446,143.803787 493.171448,143.872726 
	C489.316437,143.938873 490.108459,140.768066 489.974487,138.378448 
	C489.939056,137.745956 489.907501,137.113220 489.854156,136.101273 
	C480.164062,145.899673 468.523315,145.172058 456.871918,142.524261 
	C449.295776,140.802567 445.493561,134.355820 445.266998,124.293869 
	C445.031006,113.814934 445.071594,103.322929 445.356079,92.846542 
	C445.398529,91.282600 447.438049,89.772888 448.553711,88.238083 
	C449.588379,89.840889 451.465942,91.416916 451.517853,93.050957 
	C451.808411,102.194626 451.826538,111.356117 451.619263,120.504303 
	C451.299591,134.611511 454.817688,138.075363 470.802887,137.946671 
	C471.619873,137.940109 472.429565,137.626404 473.251404,137.532211 
	C486.915863,135.966187 491.080231,131.983063 489.974701,117.945435 
z"/>
<path fill="#F2F2F4" opacity="1.000000" stroke="none" 
	d="
M377.547180,123.476379 
	C377.675629,117.371613 377.564270,111.700294 378.009979,106.073112 
	C378.931671,94.437080 383.275574,89.511124 394.775024,88.482124 
	C401.830139,87.850815 409.065277,88.425377 416.147217,89.158134 
	C421.710815,89.733803 426.292175,94.202492 426.802917,98.787537 
	C426.970001,100.287231 425.825806,101.932999 425.281250,103.511963 
	C423.845551,102.562454 421.694000,101.928696 421.109589,100.603722 
	C419.416809,96.765747 416.771332,94.888519 412.689423,94.878365 
	C406.529602,94.863029 400.360046,94.674644 394.212646,94.955109 
	C388.166229,95.230965 384.351410,98.947044 384.097870,104.996162 
	C383.791199,112.314247 383.763458,119.667023 384.099945,126.982468 
	C384.423401,134.014282 388.448883,137.371155 397.393402,137.864441 
	C402.834442,138.164505 408.426880,137.983902 413.760345,136.992111 
	C416.339783,136.512451 418.451111,133.627747 420.828217,131.906326 
	C422.298584,130.841568 423.870148,129.916595 425.396301,128.928864 
	C425.860901,130.642746 427.053711,132.551773 426.656372,134.034729 
	C425.356659,138.885239 421.974091,142.378998 416.949127,142.839554 
	C409.208099,143.549042 401.318848,144.269730 393.631226,143.534546 
	C383.244263,142.541214 378.670502,136.811676 377.957275,126.386269 
	C377.900909,125.562233 377.695648,124.748398 377.547180,123.476379 
z"/>
<path fill="#F7F7F8" opacity="1.000000" stroke="none" 
	d="
M748.347168,91.469154 
	C754.332092,95.590714 755.719055,101.581284 755.879761,107.815178 
	C756.149841,118.291145 756.083923,128.782318 755.819824,139.258530 
	C755.779907,140.842529 754.106079,143.496521 752.845276,143.719772 
	C749.692688,144.278000 750.016724,141.462555 749.973877,139.297577 
	C749.747314,127.842026 749.803040,116.368546 749.126221,104.938850 
	C748.716309,98.016647 745.483887,95.138130 738.606934,94.976944 
	C732.683838,94.838127 726.631226,94.994347 720.833984,96.078941 
	C714.077332,97.343040 711.041260,101.933456 711.023376,108.841484 
	C710.997192,118.991531 711.014404,129.141693 711.018188,139.291809 
	C711.018982,141.459671 711.367310,143.905792 708.093140,143.907547 
	C704.971069,143.909225 704.967285,141.663055 704.971008,139.371689 
	C704.995605,124.229752 704.966736,109.087723 705.000916,93.945824 
	C705.006226,91.577164 704.196655,88.375076 708.020874,88.327766 
	C711.952698,88.279137 710.864075,91.536102 711.016174,93.856056 
	C711.055176,94.451065 711.079407,95.047050 711.121887,95.860840 
	C722.668091,86.226456 735.069458,86.367294 748.347168,91.469154 
z"/>
<path fill="#F1F1F3" opacity="1.000000" stroke="none" 
	d="
M566.650879,88.201469 
	C569.374451,88.330589 572.077087,87.795265 572.025574,91.441864 
	C571.974609,95.052612 569.191162,94.554695 566.997498,94.626396 
	C563.040771,94.755722 559.076721,94.662964 555.030334,94.662964 
	C555.030334,106.613373 554.742371,118.179649 555.187439,129.717651 
	C555.342102,133.727020 558.586243,136.331696 562.791748,137.021515 
	C565.565613,137.476532 568.352417,137.852417 571.134338,138.258179 
	C572.657166,143.157028 572.113892,144.177231 567.427673,143.926392 
	C554.959900,143.259018 548.716736,138.102722 548.184082,124.364830 
	C547.805481,114.600220 548.110657,104.809105 548.110657,94.618874 
	C545.548401,94.618874 543.321350,95.003189 541.332581,94.480659 
	C540.055969,94.145218 539.130188,92.474197 538.047180,91.401871 
	C539.106934,90.342110 540.012207,88.680801 541.261658,88.360077 
	C543.261353,87.846733 545.489319,88.222595 548.105225,88.222595 
	C548.105225,84.125847 547.806030,80.304832 548.256714,76.574432 
	C548.429871,75.141052 550.311829,73.914154 551.415161,72.593170 
	C552.429260,73.831360 554.175781,74.991402 554.317810,76.322639 
	C554.717590,80.070015 554.457397,83.887810 554.457397,88.201401 
	C558.629395,88.201401 562.411133,88.201401 566.650879,88.201469 
z"/>
<path fill="#FCFCFD" opacity="1.000000" stroke="none" 
	d="
M644.997314,143.944763 
	C637.342346,143.944717 630.183655,143.818161 623.032715,143.998199 
	C619.479919,144.087646 617.918579,143.006989 617.938477,139.197281 
	C618.053772,117.065826 617.933044,94.932945 618.125000,72.802559 
	C618.138733,71.218452 619.797791,68.536186 621.059631,68.295883 
	C624.139465,67.709366 624.016418,70.442062 624.014587,72.667046 
	C623.998535,92.469391 624.005310,112.271751 624.005310,132.074112 
	C624.005310,133.855621 624.005310,135.637146 624.005310,137.994629 
	C633.031677,137.994629 641.465698,137.994370 649.899719,137.994751 
	C653.227844,137.994904 656.581360,137.764725 659.870117,138.125153 
	C660.995728,138.248535 661.958862,139.853836 662.996277,140.782074 
	C661.988892,141.833771 661.039185,143.719223 659.964111,143.793701 
	C655.161255,144.126343 650.322510,143.942245 644.997314,143.944763 
z"/>
<path fill="#F5F5F6" opacity="1.000000" stroke="none" 
	d="
M343.455566,125.992554 
	C343.451813,130.820816 343.756195,135.185150 343.284454,139.463928 
	C343.109070,141.054718 341.116241,142.445145 339.952209,143.926941 
	C338.981079,142.480255 337.184631,141.044312 337.165619,139.585236 
	C336.961853,123.931847 336.958984,108.273735 337.169830,92.620537 
	C337.189606,91.152534 339.043396,89.709229 340.045654,88.254456 
	C341.176697,89.573257 342.802734,90.728317 343.307495,92.254288 
	C343.877289,93.976784 343.438782,96.032829 343.438782,99.558067 
	C348.930298,92.364868 355.031403,89.141739 362.400940,88.410141 
	C363.879059,88.263412 365.524719,87.990471 366.826233,88.482201 
	C367.779114,88.842224 368.820740,90.343071 368.851715,91.364861 
	C368.880371,92.310966 367.800903,93.848251 366.888306,94.148201 
	C365.038239,94.756264 362.974457,94.743080 360.992737,94.916924 
	C350.676025,95.821953 343.922729,102.716911 343.492004,113.004364 
	C343.317963,117.161018 343.458313,121.330833 343.455566,125.992554 
z"/>
<path fill="#F5F5F6" opacity="1.000000" stroke="none" 
	d="
M524.018188,141.801300 
	C522.553162,142.698837 520.976379,143.780502 519.777954,143.457611 
	C518.952271,143.235153 518.193420,141.070343 518.184570,139.768311 
	C518.076904,123.955368 518.034241,108.140327 518.253906,92.329704 
	C518.273071,90.951416 520.265808,89.600533 521.341858,88.236923 
	C522.366699,89.491722 524.275879,90.741936 524.282410,92.002014 
	C524.367798,108.462654 524.183960,124.924698 524.018188,141.801300 
z"/>
<path fill="#FCFDFD" opacity="1.000000" stroke="none" 
	d="
M683.004700,127.992172 
	C683.003662,132.475571 683.257446,136.486725 682.853333,140.430481 
	C682.724487,141.687393 680.848022,142.765213 679.771240,143.924927 
	C678.846802,142.803391 677.129395,141.690384 677.117249,140.559052 
	C676.942444,124.288620 676.932617,108.014915 677.132446,91.745049 
	C677.146851,90.573479 679.093994,89.425621 680.142456,88.266724 
	C681.096130,89.553299 682.854126,90.825203 682.877930,92.128738 
	C683.092957,103.913940 683.004272,115.704697 683.004700,127.992172 
z"/>
<path fill="#FDFDFD" opacity="1.000000" stroke="none" 
	d="
M315.003632,97.118469 
	C315.003632,111.400986 315.092041,125.203369 314.887360,139.001404 
	C314.862854,140.654129 313.479706,143.469879 312.322266,143.698196 
	C309.003998,144.352768 308.981689,141.552567 308.985352,139.102356 
	C309.007568,124.137367 308.969971,109.172241 309.022461,94.207405 
	C309.031189,91.726608 308.071747,88.195068 312.286682,88.364662 
	C316.160431,88.520546 314.757355,91.891029 314.989929,94.144272 
	C315.074860,94.966896 315.003632,95.805634 315.003632,97.118469 
z"/>
<path fill="#6190C7" opacity="1.000000" stroke="none" 
	d="
M134.118958,70.884560 
	C141.889496,78.131271 145.877289,87.510254 147.887146,97.558945 
	C151.364990,114.947182 148.336441,131.239594 137.224487,145.768860 
	C136.573959,145.609543 136.437088,145.483475 136.478912,145.074066 
	C142.130402,136.142487 146.142792,126.983376 147.092972,116.627724 
	C148.643387,99.730530 143.816071,84.841881 133.528259,71.463211 
	C133.856384,71.141724 133.987671,71.013145 134.118958,70.884560 
z"/>
<path fill="#6190C7" opacity="1.000000" stroke="none" 
	d="
M40.882187,148.113144 
	C33.405582,140.356094 29.858431,130.671158 28.077576,120.389771 
	C25.252789,104.081444 29.238157,89.113693 38.262703,75.393707 
	C38.801685,74.574295 39.591972,73.920181 40.772018,73.224243 
	C41.411953,73.383865 41.545185,73.508408 41.483749,73.901306 
	C33.055752,85.557472 28.613569,98.197487 29.086979,112.328606 
	C29.522799,125.337692 34.105679,136.927475 41.540886,147.550781 
	C41.173817,147.861862 41.028004,147.987503 40.882187,148.113144 
z"/>
<path fill="#6190C7" opacity="1.000000" stroke="none" 
	d="
M50.885162,62.879566 
	C58.587879,55.382530 68.252922,51.738537 78.501320,50.149704 
	C94.452103,47.676819 109.443230,50.725185 122.770462,60.775818 
	C122.614204,61.426971 122.489479,61.564133 122.078613,61.525845 
	C108.778961,53.179077 94.784004,49.608681 79.389366,51.867878 
	C69.058578,53.383942 60.033924,57.727303 51.451187,63.474163 
	C51.136730,63.143829 51.010944,63.011696 50.885162,62.879566 
z"/>
<path fill="#6190C7" opacity="1.000000" stroke="none" 
	d="
M124.114105,159.120911 
	C116.838539,162.694626 109.907539,167.721130 102.216995,169.545105 
	C85.259262,173.566986 68.835625,171.129791 54.227844,160.225586 
	C54.380455,159.575745 54.503845,159.439148 54.915630,159.477264 
	C59.528259,161.770966 63.687138,164.370224 68.205338,165.925858 
	C87.805519,172.674271 106.206757,169.772781 123.548500,158.512848 
	C123.862686,158.850693 123.988388,158.985794 124.114105,159.120911 
z"/>
<path fill="#F1F1F3" opacity="1.000000" stroke="none" 
	d="
M515.974731,73.645020 
	C516.058472,67.050117 516.589722,66.630203 522.429260,66.941689 
	C527.277161,67.200279 527.105103,70.710091 526.447876,73.698120 
	C526.100281,75.278320 524.002930,77.189423 522.355225,77.606461 
	C519.624084,78.297714 516.573914,77.980171 515.974731,73.645020 
z"/>
<path fill="#F7F8F9" opacity="1.000000" stroke="none" 
	d="
M315.311157,67.145111 
	C318.878540,72.721680 317.885681,77.312508 313.298309,77.693726 
	C310.424011,77.932571 307.102448,78.396156 306.936798,73.666832 
	C306.723785,67.585762 307.027039,67.027061 312.422943,66.987938 
	C313.252289,66.981926 314.081879,67.014107 315.311157,67.145111 
z"/>
<path fill="#F3F3F5" opacity="1.000000" stroke="none" 
	d="
M677.659241,77.561569 
	C672.897034,75.296783 673.612671,71.148094 675.463989,68.656921 
	C676.638123,67.076920 680.834900,67.130890 683.470825,67.601646 
	C684.323364,67.753899 685.010376,71.596436 684.850891,73.680336 
	C684.744690,75.068886 683.230835,76.673904 681.921692,77.536476 
	C680.992126,78.148987 679.352905,77.684349 677.659241,77.561569 
z"/>
<path fill="#6190C7" opacity="1.000000" stroke="none" 
	d="
M41.078918,73.072464 
	C43.985939,69.583481 47.092758,66.281364 50.542366,62.929405 
	C51.010944,63.011696 51.136730,63.143829 51.213997,63.691208 
	C48.003124,67.281952 44.840775,70.457443 41.678421,73.632942 
	C41.545185,73.508408 41.411953,73.383865 41.078918,73.072464 
z"/>
<path fill="#6190C7" opacity="1.000000" stroke="none" 
	d="
M49.887215,157.122147 
	C47.254910,154.679565 44.622608,152.236969 42.119900,149.255280 
	C42.367298,148.583801 42.485096,148.451416 42.840218,148.545334 
	C45.601646,151.288559 48.125755,153.805481 50.459106,156.522247 
	C50.141312,156.855438 50.014267,156.988785 49.887215,157.122147 
z"/>
<path fill="#6190C7" opacity="1.000000" stroke="none" 
	d="
M128.108780,64.892479 
	C130.070160,66.665916 132.031525,68.439354 134.055923,70.548676 
	C133.987671,71.013145 133.856384,71.141724 133.291382,71.248192 
	C131.011826,69.351768 129.165985,67.477448 127.518234,65.426506 
	C127.847145,65.130753 127.977959,65.011620 128.108780,64.892479 
z"/>
<path fill="#6190C7" opacity="1.000000" stroke="none" 
	d="
M136.916092,145.924805 
	C135.985260,147.685028 134.849182,149.256058 133.207520,150.791931 
	C132.563889,150.642273 132.425827,150.527802 132.470459,150.146301 
	C133.868820,148.371994 135.084518,146.864700 136.300201,145.357391 
	C136.437088,145.483475 136.573959,145.609543 136.916092,145.924805 
z"/>
<path fill="#6190C7" opacity="1.000000" stroke="none" 
	d="
M129.106674,155.110168 
	C127.662514,156.412170 126.218361,157.714172 124.444153,159.068542 
	C123.988388,158.985794 123.862686,158.850693 123.783371,158.295471 
	C125.353767,156.682114 126.877777,155.488907 128.576721,154.500427 
	C128.869995,154.840149 128.988342,154.975159 129.106674,155.110168 
z"/>
<path fill="#6190C7" opacity="1.000000" stroke="none" 
	d="
M122.926178,61.084183 
	C124.352730,61.683403 125.592041,62.488251 126.794563,63.795563 
	C126.643822,64.435936 126.529869,64.573853 126.152763,64.537712 
	C124.714653,63.476200 123.539696,62.588749 122.364746,61.701298 
	C122.489479,61.564133 122.614204,61.426971 122.926178,61.084183 
z"/>
<path fill="#6190C7" opacity="1.000000" stroke="none" 
	d="
M54.071823,159.917084 
	C52.647484,159.318771 51.408394,158.515701 50.028259,157.417389 
	C50.014267,156.988785 50.141312,156.855438 50.707359,156.706268 
	C52.306648,157.561142 53.466942,158.431854 54.627235,159.302551 
	C54.503845,159.439148 54.380455,159.575745 54.071823,159.917084 
z"/>
<path fill="#6190C7" opacity="1.000000" stroke="none" 
	d="
M126.931366,64.093384 
	C127.380905,64.066483 127.656845,64.244217 128.020782,64.657211 
	C127.977959,65.011620 127.847145,65.130753 127.379211,65.266266 
	C126.847374,65.077011 126.638649,64.886719 126.415924,64.711777 
	C126.529869,64.573853 126.643822,64.435936 126.931366,64.093384 
z"/>
<path fill="#6190C7" opacity="1.000000" stroke="none" 
	d="
M42.070969,148.913116 
	C41.617069,148.933136 41.341698,148.756226 40.974255,148.346222 
	C41.028004,147.987503 41.173817,147.861862 41.667503,147.721710 
	C42.195541,147.926193 42.391380,148.130127 42.602894,148.319031 
	C42.485096,148.451416 42.367298,148.583801 42.070969,148.913116 
z"/>
<path fill="#6190C7" opacity="1.000000" stroke="none" 
	d="
M132.906830,150.931061 
	C132.934708,151.381699 132.757721,151.658005 132.158844,151.839081 
	C131.612946,151.622360 131.488922,151.500870 131.528015,151.226913 
	C131.904785,150.867416 132.103683,150.647034 132.287781,150.413315 
	C132.425827,150.527802 132.563889,150.642273 132.906830,150.931061 
z"/>
<path fill="#6190C7" opacity="1.000000" stroke="none" 
	d="
M131.922226,151.926819 
	C131.931396,152.385071 131.755310,152.660324 131.158691,152.839233 
	C130.614685,152.620956 130.491180,152.499008 130.540558,152.217346 
	C130.936737,151.837448 131.153900,151.611359 131.364914,151.379379 
	C131.488922,151.500870 131.612946,151.622360 131.922226,151.926819 
z"/>
<path fill="#6190C7" opacity="1.000000" stroke="none" 
	d="
M130.922760,152.926453 
	C130.931137,153.385300 130.754944,153.660583 130.159637,153.838760 
	C129.618103,153.619125 129.495651,153.496582 129.543427,153.212326 
	C129.938049,152.832291 130.156052,152.607773 130.367691,152.377075 
	C130.491180,152.499008 130.614685,152.620956 130.922760,152.926453 
z"/>
<path fill="#6190C7" opacity="1.000000" stroke="none" 
	d="
M129.923660,153.926025 
	C129.929733,154.385147 129.752701,154.659882 129.341171,155.022385 
	C128.988342,154.975159 128.869995,154.840149 128.749023,154.358337 
	C128.961761,153.805359 129.170700,153.592865 129.373184,153.374023 
	C129.495651,153.496582 129.618103,153.619125 129.923660,153.926025 
z"/>
<path fill="#27334A" opacity="1.000000" stroke="none" 
	d="
M129.543427,153.212326 
	C129.170700,153.592865 128.961761,153.805359 128.574097,154.153595 
	C126.877777,155.488907 125.353767,156.682114 123.594894,158.092728 
	C106.206757,169.772781 87.805519,172.674271 68.205338,165.925858 
	C63.687138,164.370224 59.528259,161.770966 54.915630,159.477264 
	C53.466942,158.431854 52.306648,157.561142 50.898109,156.506424 
	C48.125755,153.805481 45.601646,151.288559 42.840218,148.545334 
	C42.391380,148.130127 42.195541,147.926193 41.888763,147.536255 
	C34.105679,136.927475 29.522799,125.337692 29.086979,112.328606 
	C28.613569,98.197487 33.055752,85.557472 41.483749,73.901306 
	C44.840775,70.457443 48.003124,67.281952 51.402672,63.889408 
	C60.033924,57.727303 69.058578,53.383942 79.389366,51.867878 
	C94.784004,49.608681 108.778961,53.179077 122.078613,61.525845 
	C123.539696,62.588749 124.714653,63.476200 126.152763,64.537712 
	C126.638649,64.886719 126.847374,65.077011 127.181122,65.442886 
	C129.165985,67.477448 131.011826,69.351768 133.094528,71.441116 
	C143.816071,84.841881 148.643387,99.730530 147.092972,116.627724 
	C146.142792,126.983376 142.130402,136.142487 136.478912,145.074066 
	C135.084518,146.864700 133.868820,148.371994 132.470459,150.146301 
	C132.103683,150.647034 131.904785,150.867416 131.528015,151.226913 
	C131.153900,151.611359 130.936737,151.837448 130.540558,152.217346 
	C130.156052,152.607773 129.938049,152.832291 129.543427,153.212326 
M71.404907,74.883781 
	C60.353676,72.763016 50.426647,76.982948 45.307133,85.977814 
	C39.325832,96.486809 40.692844,112.487900 48.201237,120.710266 
	C52.595474,125.522385 58.006241,127.780502 64.490669,128.178635 
	C74.475410,128.791687 81.691254,124.441994 87.021790,115.891487 
	C87.656960,116.780617 88.031212,117.268005 88.365036,117.781677 
	C88.727295,118.339096 89.021828,118.941597 89.397430,119.489098 
	C95.396553,128.234192 103.832214,131.380310 114.095039,130.000473 
	C123.339653,128.757507 129.556229,123.438454 133.013733,114.951851 
	C136.121185,107.324501 136.409683,99.421036 134.283417,91.480560 
	C131.426361,80.810982 124.717636,74.065811 113.632515,72.478371 
	C103.050842,70.963043 94.782448,74.951294 89.017448,84.016663 
	C88.516541,84.804321 87.879211,85.505219 88.107841,85.209969 
	C82.528008,81.636543 77.365852,78.330605 71.404907,74.883781 
M63.686241,148.032608 
	C62.244297,147.937744 60.802349,147.842896 59.308899,147.744644 
	C59.154675,145.253662 59.023647,143.137299 58.916420,141.405380 
	C56.492069,140.457977 54.481773,139.355301 52.337318,138.931564 
	C50.520233,138.572495 48.419991,138.654617 46.722675,139.286835 
	C46.214817,139.475998 46.189304,143.298798 46.722916,143.512924 
	C48.418766,144.193481 50.513756,144.216385 52.393528,143.989136 
	C53.759338,143.824020 55.028526,142.859650 56.750233,142.061935 
	C57.052151,145.190353 57.269005,147.437302 57.479053,149.613770 
	C78.171471,149.613770 98.389175,149.613770 118.716187,149.613770 
	C118.906799,147.077774 119.066658,144.950928 119.309738,141.716995 
	C121.455467,142.915100 122.952042,144.245728 124.631195,144.542160 
	C126.158981,144.811844 128.376648,144.442703 129.363541,143.441605 
	C130.112305,142.682068 129.979324,139.991974 129.184357,139.070099 
	C128.387558,138.146088 126.128876,137.798889 124.785599,138.176361 
	C122.216438,138.898270 119.842125,140.313660 117.088707,141.578217 
	C116.946732,143.372253 116.769386,145.613281 116.577927,148.032669 
	C98.963127,148.032669 81.806824,148.032669 63.686241,148.032608 
z"/>
<path fill="#689BD5" opacity="1.000000" stroke="none" 
	d="
M71.804306,74.954224 
	C77.365852,78.330605 82.528008,81.636543 88.107841,85.209969 
	C87.879211,85.505219 88.516541,84.804321 89.017448,84.016663 
	C94.782448,74.951294 103.050842,70.963043 113.632515,72.478371 
	C124.717636,74.065811 131.426361,80.810982 134.283417,91.480560 
	C136.409683,99.421036 136.121185,107.324501 133.013733,114.951851 
	C129.556229,123.438454 123.339653,128.757507 114.095039,130.000473 
	C103.832214,131.380310 95.396553,128.234192 89.397430,119.489098 
	C89.021828,118.941597 88.727295,118.339096 88.365036,117.781677 
	C88.031212,117.268005 87.656960,116.780617 87.021790,115.891487 
	C81.691254,124.441994 74.475410,128.791687 64.490669,128.178635 
	C58.006241,127.780502 52.595474,125.522385 48.201237,120.710266 
	C40.692844,112.487900 39.325832,96.486809 45.307133,85.977814 
	C50.426647,76.982948 60.353676,72.763016 71.804306,74.954224 
M123.047272,112.359917 
	C123.937134,110.049652 125.185547,107.810181 125.658020,105.417496 
	C128.485886,91.096626 117.275101,80.452171 103.916405,84.641876 
	C96.830978,86.864082 92.510765,92.318748 92.023804,99.657326 
	C91.469002,108.018089 94.829346,114.160736 101.621964,117.202621 
	C108.948219,120.483482 116.692612,118.905495 123.047272,112.359917 
M75.843956,88.400566 
	C67.595970,84.422287 59.726173,85.440605 54.864067,91.115295 
	C49.289341,97.621704 49.920364,107.653099 56.248676,113.126656 
	C62.433125,118.475769 73.483307,117.642799 78.932831,111.589394 
	C83.716080,106.276115 83.913162,93.458672 75.843956,88.400566 
z"/>
<path fill="#CBCCCE" opacity="1.000000" stroke="none" 
	d="
M64.168381,148.032639 
	C81.806824,148.032669 98.963127,148.032669 116.577927,148.032669 
	C116.769386,145.613281 116.946732,143.372253 117.088707,141.578217 
	C119.842125,140.313660 122.216438,138.898270 124.785599,138.176361 
	C126.128876,137.798889 128.387558,138.146088 129.184357,139.070099 
	C129.979324,139.991974 130.112305,142.682068 129.363541,143.441605 
	C128.376648,144.442703 126.158981,144.811844 124.631195,144.542160 
	C122.952042,144.245728 121.455467,142.915100 119.309738,141.716995 
	C119.066658,144.950928 118.906799,147.077774 118.716187,149.613770 
	C98.389175,149.613770 78.171471,149.613770 57.479053,149.613770 
	C57.269005,147.437302 57.052151,145.190353 56.750233,142.061935 
	C55.028526,142.859650 53.759338,143.824020 52.393528,143.989136 
	C50.513756,144.216385 48.418766,144.193481 46.722916,143.512924 
	C46.189304,143.298798 46.214817,139.475998 46.722675,139.286835 
	C48.419991,138.654617 50.520233,138.572495 52.337318,138.931564 
	C54.481773,139.355301 56.492069,140.457977 58.916420,141.405380 
	C59.023647,143.137299 59.154675,145.253662 59.308899,147.744644 
	C60.802349,147.842896 62.244297,147.937744 64.168381,148.032639 
z"/>
<path fill="#27334A" opacity="1.000000" stroke="none" 
	d="
M122.806541,112.647522 
	C116.692612,118.905495 108.948219,120.483482 101.621964,117.202621 
	C94.829346,114.160736 91.469002,108.018089 92.023804,99.657326 
	C92.510765,92.318748 96.830978,86.864082 103.916405,84.641876 
	C117.275101,80.452171 128.485886,91.096626 125.658020,105.417496 
	C125.185547,107.810181 123.937134,110.049652 122.806541,112.647522 
z"/>
<path fill="#27334B" opacity="1.000000" stroke="none" 
	d="
M76.141869,88.638535 
	C83.913162,93.458672 83.716080,106.276115 78.932831,111.589394 
	C73.483307,117.642799 62.433125,118.475769 56.248676,113.126656 
	C49.920364,107.653099 49.289341,97.621704 54.864067,91.115295 
	C59.726173,85.440605 67.595970,84.422287 76.141869,88.638535 
z"/>
</svg>