<?xml version="1.0" encoding="UTF-8"?>
<svg version="1.1" xmlns="http://www.w3.org/2000/svg" width="391" height="80">
<path d="M0 0 C6.23264242 5.87901732 10.73766311 14.33225205 11.453125 22.9453125 C11.63909007 33.57631588 9.20339765 42.28521502 2.25 50.5 C-5.00327913 57.50370393 -13.23741942 60.69750512 -23.25 61 C-33.26258058 60.69750512 -41.49672087 57.50370393 -48.75 50.5 C-55.22528712 42.85005762 -58.40794606 34.03343883 -58.03125 24.00390625 C-56.87006669 13.66614932 -52.41752147 5.23928059 -44.375 -1.375 C-30.73051109 -11.28158691 -13.07800683 -10.51926637 0 0 Z " fill="#2D3B54" transform="translate(64.75,14.5)"/>
<path d="M0 0 C4.81422112 2.40711056 7.76304486 5.09590603 10 10 C10.73050194 15.78438269 11.07612257 21.80219964 8.375 27.125 C5.33414115 30.80603966 2.83696544 32.59715091 -1.953125 33.27734375 C-6.67136123 33.50245044 -9.97254363 32.62252973 -14 30 C-15.875 27.8125 -15.875 27.8125 -17 26 C-17.763125 26.804375 -18.52625 27.60875 -19.3125 28.4375 C-23.23872084 32.18110592 -26.52600463 32.35327798 -31.71484375 32.27734375 C-35.33744393 31.83767775 -37.32756608 30.41791641 -40 28 C-43.76152167 22.85925372 -43.83104618 17.1369564 -43 11 C-40.97943519 6.95887038 -38.81911158 4.37422567 -35 2 C-30.14662088 1.26222851 -25.51308911 1.33802352 -21 3.3125 C-19.23113223 4.80498218 -17.55294549 6.28358657 -16 8 C-15.79375 7.4225 -15.5875 6.845 -15.375 6.25 C-11.83638577 0.45954036 -6.37859913 -1.25020543 0 0 Z " fill="#6698D1" transform="translate(58,19)"/>
<path d="M0 0 C3.03215675 2.19831364 3.81654398 3.44963194 5 7 C5.48127165 11.33144485 5.51297129 13.2849491 2.9375 16.875 C-0.57690844 19.41733802 -2.67500571 20 -7 20 C-10.57387602 18.41161066 -11.81089572 17.28365642 -14 14 C-14.82989594 9.33511124 -14.61181179 5.96705735 -12.0625 1.9375 C-7.97677854 -0.64734419 -4.71812614 -0.97008201 0 0 Z " fill="#27334B" transform="translate(58,26)"/>
<path d="M0 0 C2.93052231 1.99524923 4.64521503 3.42836485 5.4453125 6.97265625 C5.63099028 10.28390994 5.21285614 12.62981541 3.5625 15.5 C-0.26076161 17.7380068 -3.68129022 17.75280262 -8 17 C-10.5625 15.5625 -10.5625 15.5625 -12 13 C-12.5977143 9.86774718 -12.65395074 7.12634344 -12 4 C-8.57473068 -0.25563764 -5.29763755 -0.85140604 0 0 Z " fill="#27334B" transform="translate(33,27)"/>
<path d="M0 0 C1.375 1.2421875 1.375 1.2421875 2.9375 4.0546875 C2.75 6.8671875 2.75 6.8671875 1.9375 9.0546875 C-0.01466435 7.10252315 -0.91076645 5.52268797 -2.0625 3.0546875 C-4.52112401 3.00084902 -6.9785755 2.96109712 -9.4375 2.9296875 C-10.13617188 2.91292969 -10.83484375 2.89617188 -11.5546875 2.87890625 C-13.39147486 2.86124483 -15.22851963 2.95165489 -17.0625 3.0546875 C-19.24761386 4.82770916 -19.24761386 4.82770916 -19.30541992 7.0859375 C-19.30131104 7.900625 -19.29720215 8.7153125 -19.29296875 9.5546875 C-19.29103516 10.4415625 -19.28910156 11.3284375 -19.28710938 12.2421875 C-19.27486328 13.1703125 -19.26261719 14.0984375 -19.25 15.0546875 C-19.24935547 15.9828125 -19.24871094 16.9109375 -19.24804688 17.8671875 C-19.392409 22.61851299 -19.392409 22.61851299 -18.0625 27.0546875 C-14.82377868 28.13426127 -12.40221795 28.18795534 -9 28.1796875 C-7.93652344 28.18226562 -6.87304688 28.18484375 -5.77734375 28.1875 C-3.09545616 28.23907205 -3.09545616 28.23907205 -1.0625 27.0546875 C-0.34090576 25.41105616 0.33101421 23.74418364 0.9375 22.0546875 C1.5975 22.0546875 2.2575 22.0546875 2.9375 22.0546875 C2.625 25.4296875 2.625 25.4296875 1.9375 29.0546875 C-1.8858499 31.60358743 -5.06714642 31.42224358 -9.5 31.4296875 C-10.26376953 31.45417969 -11.02753906 31.47867188 -11.81445312 31.50390625 C-15.5679203 31.5235066 -17.45210237 31.50790533 -20.53515625 29.21875 C-23.66543753 24.7835177 -23.27941328 20.38257401 -23.3125 15.1796875 C-23.333125 14.37660156 -23.35375 13.57351562 -23.375 12.74609375 C-23.40595828 8.0481746 -23.2235334 4.79951535 -20.0625 1.0546875 C-15.07767124 -2.59789304 -5.46367747 -2.50418551 0 0 Z " fill="#686363" transform="translate(117.0625,27.9453125)"/>
<path d="M0 0 C0.99 0.33 1.98 0.66 3 1 C3.33 7.27 3.66 13.54 4 20 C5.588125 18.515 7.17625 17.03 8.8125 15.5 C13.625 11 13.625 11 17 11 C15.4169423 15.2742558 12.49431596 17.26531794 9 20 C10.81823178 24.095613 13.52454063 26.93470721 16.5390625 30.1953125 C18 32 18 32 18 34 C14.20450741 33.45418801 12.69020705 31.94590705 10.25 29.0625 C9.63640625 28.35222656 9.0228125 27.64195313 8.390625 26.91015625 C7 25 7 25 7 23 C5.68 23.33 4.36 23.66 3 24 C3 26.97 3 29.94 3 33 C1.515 33.495 1.515 33.495 0 34 C0 22.78 0 11.56 0 0 Z " fill="#6E6969" transform="translate(328,25)"/>
<path d="M0 0 C0.99 0 1.98 0 3 0 C3 0.66 3 1.32 3 2 C3.99 1.34 4.98 0.68 6 0 C8.77734375 -0.37109375 8.77734375 -0.37109375 11.9375 -0.4375 C13.49791016 -0.49744141 13.49791016 -0.49744141 15.08984375 -0.55859375 C18 0 18 0 20.36328125 1.9453125 C22.62277372 6.16231277 22.4428517 9.61359419 22.25 14.3125 C22.23195313 15.14845703 22.21390625 15.98441406 22.1953125 16.84570312 C22.14841126 18.89763228 22.07667411 20.94896756 22 23 C21.01 23 20.02 23 19 23 C18.96261719 21.72382812 18.92523438 20.44765625 18.88671875 19.1328125 C18.82107209 17.46351162 18.7546243 15.79424211 18.6875 14.125 C18.66494141 13.28324219 18.64238281 12.44148438 18.61914062 11.57421875 C18.5659668 10.36572266 18.5659668 10.36572266 18.51171875 9.1328125 C18.48553467 8.38918457 18.45935059 7.64555664 18.43237305 6.87939453 C18.13270409 4.59266174 18.13270409 4.59266174 15 3 C12.7716121 2.93666663 12.7716121 2.93666663 10.4375 3.3125 C9.65246094 3.41175781 8.86742187 3.51101562 8.05859375 3.61328125 C5.94597369 3.91268371 5.94597369 3.91268371 4 5 C3.67 10.94 3.34 16.88 3 23 C2.01 23 1.02 23 0 23 C0 15.41 0 7.82 0 0 Z " fill="#6B6565" transform="translate(297,36)"/>
<path d="M0 0 C0.66 0 1.32 0 2 0 C2.03738281 1.19238281 2.07476562 2.38476562 2.11328125 3.61328125 C2.17894032 5.179719 2.24538768 6.74612384 2.3125 8.3125 C2.33505859 9.09818359 2.35761719 9.88386719 2.38085938 10.69335938 C2.41630859 11.45068359 2.45175781 12.20800781 2.48828125 12.98828125 C2.51446533 13.68477783 2.54064941 14.38127441 2.56762695 15.09887695 C3.12919528 17.56806529 3.99185034 18.48594896 6 20 C10.6658917 20.42417197 12.74130098 20.12934951 17 18 C17.33 12.39 17.66 6.78 18 1 C18.99 0.67 19.98 0.34 21 0 C21 7.59 21 15.18 21 23 C19.68 22.67 18.36 22.34 17 22 C16.34 22.33 15.68 22.66 15 23 C13.0246012 23.14779962 11.04321076 23.22118966 9.0625 23.25 C8.00160156 23.27578125 6.94070312 23.3015625 5.84765625 23.328125 C3 23 3 23 1.18359375 21.734375 C-1.60366889 17.65006935 -1.15229685 13.09399766 -1.125 8.3125 C-1.12886719 7.62349609 -1.13273438 6.93449219 -1.13671875 6.22460938 C-1.12669335 1.12669335 -1.12669335 1.12669335 0 0 Z " fill="#6A6464" transform="translate(187,36)"/>
<path d="M0 0 C1.69962891 -0.04253906 1.69962891 -0.04253906 3.43359375 -0.0859375 C7.15557805 0.4623698 8.32122836 1.41233626 10.5625 4.375 C10.5625 5.035 10.5625 5.695 10.5625 6.375 C9.5725 6.375 8.5825 6.375 7.5625 6.375 C7.0984375 5.88773438 6.634375 5.40046875 6.15625 4.8984375 C4.07085897 2.90504901 2.90486268 2.97157637 0.0625 3 C-1.09765625 2.98839844 -1.09765625 2.98839844 -2.28125 2.9765625 C-4.4809987 3.23545838 -4.4809987 3.23545838 -6.1953125 4.5546875 C-7.90576077 7.06119345 -7.83679399 8.86254584 -7.8125 11.875 C-7.82023438 12.8340625 -7.82796875 13.793125 -7.8359375 14.78125 C-7.62393083 17.37029457 -7.62393083 17.37029457 -6.23046875 19.1953125 C-3.84736269 20.76328206 -2.21121199 20.77506226 0.625 20.75 C1.50285156 20.75773437 2.38070312 20.76546875 3.28515625 20.7734375 C4.03667969 20.64195313 4.78820312 20.51046875 5.5625 20.375 C6.2225 19.385 6.8825 18.395 7.5625 17.375 C8.5525 17.705 9.5425 18.035 10.5625 18.375 C9.49609375 20.84375 9.49609375 20.84375 7.5625 23.375 C4.34765625 23.96875 4.34765625 23.96875 0.625 23.875 C-0.60089844 23.8646875 -1.82679688 23.854375 -3.08984375 23.84375 C-6.59927399 23.35234787 -8.08356886 22.99681192 -10.4375 20.375 C-12.11679612 14.31409215 -11.8903214 8.1391303 -9.4375 2.375 C-5.90513908 0.02009272 -4.19029632 0.04756295 0 0 Z " fill="#655F5F" transform="translate(168.4375,35.625)"/>
<path d="M0 0 C0.99 0.33 1.98 0.66 3 1 C3 10.57 3 20.14 3 30 C8.28 30 13.56 30 19 30 C19 30.66 19 31.32 19 32 C12.73 32 6.46 32 0 32 C0 21.44 0 10.88 0 0 Z " fill="#676262" transform="translate(260,27)"/>
<path d="M0 0 C0.66 0 1.32 0 2 0 C2 2.31 2 4.62 2 7 C4.64 7 7.28 7 10 7 C10 7.66 10 8.32 10 9 C7.36 9 4.72 9 2 9 C2.33 14.28 2.66 19.56 3 25 C5.31 25.99 7.62 26.98 10 28 C10 28.66 10 29.32 10 30 C3.52369077 30.36658354 3.52369077 30.36658354 1.125 28.6875 C-1.47239453 24.7914082 -1.11690812 20.79489186 -1.0625 16.3125 C-1.05798828 15.61060547 -1.05347656 14.90871094 -1.04882812 14.18554688 C-1.03706927 12.45699462 -1.01913454 10.72848635 -1 9 C-2.32 9 -3.64 9 -5 9 C-5 8.34 -5 7.68 -5 7 C-3.68 7 -2.36 7 -1 7 C-1.020625 6.030625 -1.04125 5.06125 -1.0625 4.0625 C-1 1 -1 1 0 0 Z " fill="#686262" transform="translate(231,29)"/>
<path d="M0 0 C0.99 0 1.98 0 3 0 C3.33 0.99 3.66 1.98 4 3 C4.53625 2.505 5.0725 2.01 5.625 1.5 C8.59358445 -0.37489544 10.55312427 -0.23501425 14 0 C14 0.66 14 1.32 14 2 C13.16855469 2.29003906 13.16855469 2.29003906 12.3203125 2.5859375 C11.59585938 2.84632812 10.87140625 3.10671875 10.125 3.375 C9.40570313 3.63023438 8.68640625 3.88546875 7.9453125 4.1484375 C5.81842006 4.93877783 5.81842006 4.93877783 4 7 C3.6936141 9.73434962 3.4886664 12.38279821 3.375 15.125 C3.33632812 15.87910156 3.29765625 16.63320313 3.2578125 17.41015625 C3.16348969 19.27303184 3.08065338 21.13648255 3 23 C2.01 23 1.02 23 0 23 C0 15.41 0 7.82 0 0 Z " fill="#6A6565" transform="translate(140,36)"/>
<path d="M0 0 C-0.33 1.65 -0.66 3.3 -1 5 C-3.475 4.01 -3.475 4.01 -6 3 C-6 4.32 -6 5.64 -6 7 C-17.55 7 -29.1 7 -41 7 C-41 5.68 -41 4.36 -41 3 C-41.99 3 -42.98 3 -44 3 C-44 3.66 -44 4.32 -44 5 C-44.99 5 -45.98 5 -47 5 C-47 3.68 -47 2.36 -47 1 C-44.69 1.33 -42.38 1.66 -40 2 C-40 3.32 -40 4.64 -40 6 C-29.11 6 -18.22 6 -7 6 C-7 4.68 -7 3.36 -7 2 C-4.35261084 0.5393715 -3.10551666 0 0 0 Z " fill="#969AA3" transform="translate(65,56)"/>
<path d="M0 0 C0.99 0 1.98 0 3 0 C3 7.59 3 15.18 3 23 C2.01 23 1.02 23 0 23 C0 15.41 0 7.82 0 0 Z " fill="#6D6767" transform="translate(285,36)"/>
<path d="M0 0 C0.99 0 1.98 0 3 0 C3 7.59 3 15.18 3 23 C2.01 23 1.02 23 0 23 C0 15.41 0 7.82 0 0 Z " fill="#6D6767" transform="translate(128,36)"/>
<path d="M0 0 C0.66 0 1.32 0 2 0 C2.03738281 1.18078125 2.07476562 2.3615625 2.11328125 3.578125 C2.17895149 5.13544788 2.24539847 6.69273814 2.3125 8.25 C2.33505859 9.02730469 2.35761719 9.80460937 2.38085938 10.60546875 C2.58460956 14.93979093 2.77175624 17.78041105 6 21 C5.67 21.66 5.34 22.32 5 23 C2.36557951 22.03404582 1.22110366 21.41370266 -0.12109375 18.90234375 C-1.20747468 15.31487249 -1.25537481 11.95810812 -1.1875 8.25 C-1.18685547 7.56550781 -1.18621094 6.88101563 -1.18554688 6.17578125 C-1.14067963 1.14067963 -1.14067963 1.14067963 0 0 Z " fill="#706B6B" transform="translate(187,36)"/>
<path d="M0 0 C0.66 0 1.32 0 2 0 C2 7.59 2 15.18 2 23 C1.01 22.67 0.02 22.34 -1 22 C-1.02887814 18.52085059 -1.04675687 15.04173169 -1.0625 11.5625 C-1.07087891 10.56927734 -1.07925781 9.57605469 -1.08789062 8.55273438 C-1.09111328 7.60849609 -1.09433594 6.66425781 -1.09765625 5.69140625 C-1.10289307 4.81685791 -1.10812988 3.94230957 -1.11352539 3.04125977 C-1 1 -1 1 0 0 Z " fill="#706B6B" transform="translate(218,36)"/>
<path d="M0 0 C0.66 0 1.32 0 2 0 C1.6875 3.375 1.6875 3.375 1 7 C-2.68087353 9.45391569 -5.44355588 9.22802759 -9.6875 9.125 C-10.7403418 9.11146484 -10.7403418 9.11146484 -11.81445312 9.09765625 C-13.54311525 9.07413704 -15.27160145 9.03826713 -17 9 C-17 8.34 -17 7.68 -17 7 C-16.08476563 6.93941406 -15.16953125 6.87882812 -14.2265625 6.81640625 C-12.44378906 6.69072266 -12.44378906 6.69072266 -10.625 6.5625 C-8.84996094 6.44068359 -8.84996094 6.44068359 -7.0390625 6.31640625 C-4.08481099 6.18915064 -4.08481099 6.18915064 -2 5 C-1.27840576 3.35636866 -0.60648579 1.68949614 0 0 Z " fill="#625D5D" transform="translate(118,50)"/>
<path d="M0 0 C12.33502235 -0.75111773 12.33502235 -0.75111773 16.078125 0.9375 C17.4375 2.1875 17.4375 2.1875 19 5 C18.8125 7.8125 18.8125 7.8125 18 10 C16 8 16 8 15.25 5.91015625 C14.8375 5.27980469 14.425 4.64945313 14 4 C11.18300627 3.40684854 11.18300627 3.40684854 8 3.4375 C4.75 3.37109375 4.75 3.37109375 2 3 C1.34 2.01 0.68 1.02 0 0 Z " fill="#706B6B" transform="translate(101,27)"/>
<path d="M0 0 C4.5142775 3.66866356 8.50151106 7.33534808 12 12 C12 12.66 12 13.32 12 14 C8.78577367 13.71248893 7.90655283 12.90082842 5.640625 10.49609375 C4.85171875 9.48675781 4.0628125 8.47742188 3.25 7.4375 C2.45078125 6.42558594 1.6515625 5.41367187 0.828125 4.37109375 C-0.07679688 3.19740234 -0.07679688 3.19740234 -1 2 C-0.67 1.34 -0.34 0.68 0 0 Z " fill="#676161" transform="translate(334,45)"/>
<path d="M0 0 C10.10132996 -0.6269791 10.10132996 -0.6269791 13.6875 1.875 C15 4 15 4 15 6 C14.01 6 13.02 6 12 6 C11.55011719 5.51917969 11.10023438 5.03835937 10.63671875 4.54296875 C8.41900464 2.45228361 6.81337784 2.5073622 3.8125 2.3125 C2.91144531 2.24675781 2.01039063 2.18101563 1.08203125 2.11328125 C0.39496094 2.07589844 -0.29210937 2.03851563 -1 2 C-0.67 1.34 -0.34 0.68 0 0 Z " fill="#625C5C" transform="translate(164,36)"/>
<path d="M0 0 C0.99 0 1.98 0 3 0 C1.4169423 4.2742558 -1.50568404 6.26531794 -5 9 C-5 4.66314164 -2.91985986 3.0556673 0 0 Z " fill="#676262" transform="translate(342,36)"/>
<path d="M0 0 C-0.33 1.65 -0.66 3.3 -1 5 C-3.475 4.01 -3.475 4.01 -6 3 C-6.33 4.32 -6.66 5.64 -7 7 C-7 5.35 -7 3.7 -7 2 C-4.35261084 0.5393715 -3.10551666 0 0 0 Z " fill="#C1C2C5" transform="translate(65,56)"/>
<path d="M0 0 C0.99 0.33 1.98 0.66 3 1 C3 2.32 3 3.64 3 5 C1.35 4.67 -0.3 4.34 -2 4 C-2 3.01 -2 2.02 -2 1 C-1.34 0.67 -0.68 0.34 0 0 Z " fill="#706B6B" transform="translate(286,26)"/>
<path d="M0 0 C0.99 0.33 1.98 0.66 3 1 C3 2.32 3 3.64 3 5 C1.35 4.67 -0.3 4.34 -2 4 C-2 3.01 -2 2.02 -2 1 C-1.34 0.67 -0.68 0.34 0 0 Z " fill="#6F6A6A" transform="translate(129,26)"/>
<path d="M0 0 C2.31 0.33 4.62 0.66 7 1 C7 2.65 7 4.3 7 6 C6.67 4.68 6.34 3.36 6 2 C5.01 2 4.02 2 3 2 C3 2.66 3 3.32 3 4 C2.01 4 1.02 4 0 4 C0 2.68 0 1.36 0 0 Z " fill="#CBCCCE" transform="translate(18,57)"/>
<path d="M0 0 C0.99 0.33 1.98 0.66 3 1 C2.0479279 2.00596297 1.08812654 3.00461563 0.125 4 C-0.40867187 4.556875 -0.94234375 5.11375 -1.4921875 5.6875 C-3 7 -3 7 -5 7 C-3.70700306 4.11562221 -2.34058637 2.12780579 0 0 Z " fill="#466287" transform="translate(19,14)"/>
<path d="M0 0 C0.99 0.33 1.98 0.66 3 1 C3 2.32 3 3.64 3 5 C1.68 5 0.36 5 -1 5 C-0.67 3.35 -0.34 1.7 0 0 Z " fill="#645F5F" transform="translate(218,26)"/>
<path d="M0 0 C0.99 0.33 1.98 0.66 3 1 C1.625 3.5 1.625 3.5 0 6 C-0.66 6 -1.32 6 -2 6 C-1.49396008 3.83125748 -1.00016187 2.00032373 0 0 Z " fill="#6B6666" transform="translate(176,53)"/>
</svg>
