<svg version="1.1" id="Layer_1" xmlns="http://www.w3.org/2000/svg" xmlns:xlink="http://www.w3.org/1999/xlink" x="0px" y="0px"
	 width="100%" viewBox="0 0 855 220" enable-background="new 0 0 855 220" xml:space="preserve">
<path fill="#000000" opacity="1.000000" stroke="none" 
	d="
M635.000000,221.000000 
	C423.382416,221.000000 212.264816,221.000000 1.073612,221.000000 
	C1.073612,147.732849 1.073612,74.465599 1.073612,1.099176 
	C285.999969,1.099176 571.000000,1.099176 855.974121,1.099176 
	C855.974121,74.401894 855.974121,147.700958 855.974121,221.000000 
	C782.465515,221.000000 708.982788,221.000000 635.000000,221.000000 
M130.581604,153.943085 
	C130.755157,153.664474 130.928696,153.385849 131.581848,152.942932 
	C131.755310,152.664352 131.928757,152.385788 132.582062,151.942764 
	C132.755966,151.664062 132.929871,151.385376 133.713226,150.839645 
	C134.846710,149.262894 135.980194,147.686142 137.742065,145.812180 
	C148.370926,131.174042 151.388168,114.793083 147.858444,97.351105 
	C145.843658,87.395157 141.865280,78.060524 134.000229,70.212578 
	C132.033829,68.438751 130.067444,66.664925 127.939400,64.416214 
	C127.662155,64.243500 127.384911,64.070786 126.844849,63.293621 
	C125.599648,62.491280 124.354446,61.688934 122.812408,60.258236 
	C107.627808,49.509094 90.660240,46.755260 73.090744,51.395821 
	C65.227570,53.472683 58.262943,58.951462 50.201038,62.977016 
	C47.096191,66.281494 43.991344,69.585983 40.262764,73.180038 
	C39.803955,73.657562 39.269855,74.082878 38.897335,74.620216 
	C29.257607,88.524887 25.193312,103.855499 28.103399,120.595657 
	C29.876467,130.795151 33.474247,140.403290 41.057800,148.582352 
	C41.336361,148.755722 41.614922,148.929092 41.984970,149.790878 
	C44.621372,152.232895 47.257778,154.674911 50.161766,157.716782 
	C51.404797,158.515808 52.647827,159.314835 54.188248,160.742523 
	C68.727821,171.081009 85.082886,173.522980 101.934982,169.640961 
	C109.721550,167.847260 116.741608,162.726089 124.774162,159.018692 
	C126.218742,157.713058 127.663315,156.407440 129.583176,154.939896 
	C129.756058,154.662384 129.928955,154.384857 130.581604,153.943085 
M235.567307,110.498810 
	C235.673904,102.678444 235.554581,94.846527 235.953445,87.041092 
	C236.319855,79.871147 240.163589,75.698479 247.196472,75.004913 
	C254.115204,74.322586 261.113312,73.922676 268.055634,74.123497 
	C278.785431,74.433861 280.888000,76.451897 283.386932,86.784515 
	C283.464905,87.106888 283.467743,87.574654 283.679016,87.716530 
	C284.888245,88.528732 286.143066,89.812477 287.396393,89.828308 
	C288.219604,89.838699 289.671448,88.053391 289.805267,86.946884 
	C290.734344,79.264999 284.782196,70.064697 277.032562,69.272507 
	C266.869843,68.233635 256.492645,68.064178 246.306946,68.833900 
	C236.664810,69.562531 230.447876,75.551323 229.984268,85.582375 
	C229.379272,98.672226 228.558716,111.867874 229.570389,124.882782 
	C230.504730,136.902954 235.230469,141.589630 247.224243,143.149338 
	C256.474792,144.352295 266.119843,143.929657 275.431641,142.858109 
	C284.779602,141.782410 289.589081,135.426788 289.769592,126.160866 
	C289.796387,124.784935 288.304657,123.379410 287.515472,121.987556 
	C286.220459,123.044365 284.856873,124.031288 283.668854,125.197128 
	C283.270813,125.587776 283.285461,126.428383 283.170685,127.073837 
	C281.896179,134.238968 279.919434,136.432053 272.582733,137.134308 
	C265.992767,137.765060 259.312897,138.202850 252.716721,137.865189 
	C239.602798,137.193848 235.743958,132.783035 235.572540,119.489532 
	C235.538193,116.826073 235.567398,114.161797 235.567307,110.498810 
M819.295532,139.258331 
	C811.345703,130.185715 803.395874,121.113091 795.338928,111.918175 
	C796.600586,110.748497 797.423157,109.928406 798.304810,109.177628 
	C804.110779,104.233765 810.049194,99.434425 815.645508,94.264412 
	C816.798950,93.198769 816.692139,90.768936 817.166199,88.967880 
	C815.443665,89.136734 813.482300,88.845238 812.055908,89.585114 
	C810.043335,90.629059 808.406982,92.413277 806.643799,93.920830 
	C798.919495,100.525017 791.207397,107.143570 783.015686,114.164177 
	C783.015686,98.460915 783.057068,83.495201 782.973755,68.530182 
	C782.960266,66.111244 784.191895,62.483219 780.071289,62.315613 
	C775.716980,62.138493 777.050171,65.859985 777.028931,68.229675 
	C776.928650,79.393936 776.984253,90.559601 776.984314,101.724762 
	C776.984436,114.556366 776.905518,127.389229 777.109314,140.217590 
	C777.129272,141.475693 778.887085,142.706192 779.838257,143.949493 
	C780.895081,142.768478 782.656921,141.698975 782.864990,140.383713 
	C783.327881,137.456970 783.357422,134.359268 782.946838,131.417313 
	C781.973083,124.440300 783.944702,119.182739 790.753418,116.420258 
	C798.249573,124.830582 805.793884,133.447647 813.525269,141.893524 
	C816.582458,145.233246 818.130615,144.608871 819.295532,139.258331 
M489.973724,118.436684 
	C489.973724,119.934692 489.974365,121.432701 489.973633,122.930710 
	C489.970001,130.646652 487.598053,134.077423 480.070984,136.218155 
	C476.606415,137.203506 472.917542,137.911072 469.336334,137.886383 
	C454.655640,137.785172 451.401123,134.203278 451.676788,121.049995 
	C451.872070,111.733360 451.862091,102.404800 451.576874,93.092796 
	C451.526123,91.436432 449.677795,89.835114 448.659485,88.208389 
	C447.497894,89.867218 445.382233,91.497177 445.330994,93.189613 
	C445.019012,103.499527 445.002197,113.827354 445.222137,124.142067 
	C445.487915,136.606323 451.698669,143.330841 463.414307,143.896210 
	C472.984894,144.358063 482.599670,144.541702 489.866089,135.853134 
	C489.924591,137.052887 489.931458,137.552322 489.976074,138.048355 
	C490.197784,140.514389 489.028076,144.046005 493.297821,143.876541 
	C497.244049,143.719894 495.968506,140.340622 495.981567,138.127426 
	C496.068024,123.481064 496.064423,108.833763 495.988037,94.187294 
	C495.975586,91.799225 497.247192,88.194557 492.918610,88.284225 
	C489.097900,88.363350 490.023407,91.659782 490.001587,93.986801 
	C489.928284,101.808868 489.973724,109.632057 489.973724,118.436684 
M377.457428,123.945427 
	C377.627899,125.088348 377.869720,126.225815 377.957550,127.375046 
	C378.640228,136.310364 382.602051,141.813599 391.628296,142.866699 
	C400.226685,143.869873 409.086182,143.367813 417.762054,142.670883 
	C422.222351,142.312576 425.485138,138.774857 426.577759,134.279770 
	C426.968018,132.674194 425.723480,130.671249 425.225159,128.849686 
	C423.736755,129.889145 422.232117,130.906235 420.763702,131.973221 
	C418.395233,133.694199 416.247742,136.472382 413.654236,136.971405 
	C408.501831,137.962860 403.092010,138.105408 397.819824,137.877197 
	C388.718658,137.483276 384.433563,134.055939 384.105743,126.968987 
	C383.767670,119.659851 383.793152,112.312782 384.104370,105.001251 
	C384.366058,98.853943 388.368713,95.178383 394.692230,94.923096 
	C400.341614,94.695023 406.006409,94.851089 411.664398,94.832176 
	C416.211243,94.816978 419.584808,96.296204 421.170715,101.085121 
	C421.555328,102.246521 423.801971,102.791275 425.192413,103.619576 
	C425.792908,102.228828 426.945648,100.817528 426.894775,99.451035 
	C426.711700,94.532776 422.053619,89.805382 415.919647,89.124405 
	C409.020233,88.358444 401.973785,87.846519 395.077362,88.366287 
	C383.713531,89.222755 378.926392,94.373657 378.012817,105.626625 
	C377.543488,111.407684 377.606018,117.231918 377.457428,123.945427 
M748.052185,91.227226 
	C735.017334,86.258438 722.544617,86.272026 711.018005,95.886597 
	C711.018005,94.897125 711.053040,94.396011 711.011963,93.901237 
	C710.821594,91.608803 712.048645,88.327614 708.098938,88.281570 
	C704.221130,88.236366 705.004211,91.435310 704.999084,93.812370 
	C704.966492,108.978851 704.990234,124.145462 704.974304,139.311996 
	C704.971985,141.555130 704.835266,143.868484 708.009644,143.923065 
	C711.284302,143.979370 711.025452,141.594711 711.022827,139.388824 
	C711.010559,129.222244 710.997925,119.055573 711.024231,108.889046 
	C711.042603,101.767693 714.133789,97.207176 721.271851,96.014854 
	C727.586853,94.960022 734.158997,94.816872 740.568481,95.167953 
	C745.159729,95.419441 748.425232,98.452538 749.021912,103.428505 
	C749.435791,106.880424 749.887268,110.350754 749.939453,113.818626 
	C750.070007,122.483261 749.853088,131.155075 750.112915,139.813904 
	C750.155090,141.219589 751.923279,142.573486 752.893677,143.951263 
	C753.916870,142.564423 755.797668,141.195587 755.827271,139.787888 
	C756.058289,128.793442 756.140198,117.785805 755.835754,106.794212 
	C755.671936,100.878868 753.956177,95.322128 748.052185,91.227226 
M566.210938,88.153976 
	C562.427979,88.153976 558.645020,88.153976 554.590515,88.153976 
	C554.590515,84.462273 554.588135,81.321396 554.591248,78.180519 
	C554.593750,75.675026 554.716614,72.702972 551.384216,72.582230 
	C547.831787,72.453506 548.039978,75.460175 548.065063,78.006485 
	C548.097473,81.298119 548.072937,84.590324 548.072937,88.172806 
	C545.468811,88.172806 543.235291,87.796806 541.229919,88.310730 
	C539.982849,88.630318 538.189392,90.356316 538.255005,91.343910 
	C538.333069,92.520073 539.970032,94.206291 541.235596,94.548965 
	C543.230164,95.089043 545.478333,94.692604 548.091675,94.692604 
	C548.091675,104.968597 547.719238,114.946037 548.183594,124.884377 
	C548.797791,138.027054 554.901184,143.210510 567.385498,143.998840 
	C572.048889,144.293304 572.776672,142.092178 571.473206,138.288605 
	C568.470642,137.843491 565.694275,137.439087 562.920227,137.018982 
	C558.691589,136.378616 555.385437,133.766907 555.220703,129.813095 
	C554.739197,118.252388 555.049561,106.658714 555.049561,94.738358 
	C559.164612,94.738358 563.137329,94.831253 567.102783,94.701912 
	C569.318726,94.629631 572.030518,94.997017 572.048950,91.405838 
	C572.067749,87.751282 569.412781,88.262405 566.210938,88.153976 
M645.496765,143.951096 
	C649.992981,143.950958 654.511108,144.199249 658.972656,143.805923 
	C660.391968,143.680801 662.511963,142.056503 662.828491,140.757019 
	C663.578796,137.676941 660.912659,138.002670 658.943787,138.000229 
	C648.952209,137.987793 638.955566,137.811584 628.971497,138.085312 
	C625.032593,138.193283 623.865295,137.132355 623.908081,133.089783 
	C624.121399,112.942299 623.999084,92.791321 624.014648,72.641586 
	C624.016357,70.417641 624.231506,68.010483 621.012756,68.099098 
	C617.943542,68.183594 617.980835,70.500069 617.982849,72.771759 
	C618.002441,94.919815 618.056580,117.068222 617.935364,139.215637 
	C617.914429,143.037186 619.456360,144.100159 623.017334,144.006805 
	C630.173035,143.819214 637.337158,143.951065 645.496765,143.951096 
M343.583374,125.494865 
	C343.584015,121.500542 343.646423,117.505089 343.573090,113.512123 
	C343.393036,103.709564 349.174377,97.655441 358.516571,95.197090 
	C360.725616,94.615791 363.248627,95.198853 365.436340,94.575897 
	C366.817078,94.182716 367.843597,92.545471 369.029022,91.466270 
	C367.715485,90.364342 366.385681,88.300514 365.091187,88.322433 
	C358.535217,88.433456 352.285858,89.940742 347.559998,94.979652 
	C346.505280,96.104256 345.945587,97.693138 345.157990,99.068268 
	C344.632416,98.625023 344.106873,98.181778 343.581299,97.738533 
	C343.581299,96.254005 343.993591,94.605255 343.483246,93.324013 
	C342.745239,91.471260 341.480011,88.589066 340.188995,88.448509 
	C337.309845,88.135017 336.961151,90.770462 336.974304,93.332703 
	C337.052948,108.643784 336.925201,123.956757 337.146057,139.265060 
	C337.168854,140.844177 339.033661,142.396713 340.043762,143.961594 
	C341.219055,142.465118 343.227875,141.062149 343.408295,139.454041 
	C343.887817,135.180206 343.578766,130.817902 343.583374,125.494865 
M524.098938,141.409225 
	C524.268555,125.462593 524.439880,109.515976 524.601807,93.569267 
	C524.608521,92.906830 524.780334,92.035919 524.439087,91.619514 
	C523.420654,90.376785 522.184998,89.312119 521.034180,88.177910 
	C520.043579,89.452019 518.206787,90.715721 518.190979,92.001816 
	C517.994568,107.973717 518.024536,123.949135 518.136047,139.922684 
	C518.144958,141.207245 518.981384,143.374222 519.791199,143.558578 
	C521.031189,143.840790 522.582764,142.754227 524.098938,141.409225 
M683.005371,127.493988 
	C683.005066,115.685722 683.093323,103.875839 682.878845,92.071465 
	C682.855225,90.773430 681.095947,89.506920 680.141663,88.225807 
	C679.093140,89.383087 677.145813,90.529358 677.131470,91.699303 
	C676.931641,107.995583 676.941528,124.295692 677.116394,140.592560 
	C677.128479,141.716736 678.853027,142.822525 679.781189,143.936859 
	C680.855164,142.779678 682.727600,141.703751 682.855164,140.450272 
	C683.257202,136.499573 683.004639,132.482285 683.005371,127.493988 
M315.005096,96.633049 
	C315.005096,95.633850 315.027649,94.634041 315.000580,93.635574 
	C314.936005,91.254211 315.773834,88.103493 311.825043,88.293388 
	C308.357666,88.460129 309.011597,91.379486 309.007904,93.620216 
	C308.983002,108.774734 309.002625,123.929321 308.987122,139.083862 
	C308.984650,141.500748 308.903870,144.359497 312.277740,143.711487 
	C313.441467,143.487976 314.862244,140.698547 314.886841,139.062073 
	C315.094177,125.242889 315.005096,111.419258 315.005096,96.633049 
M515.978210,74.075821 
	C516.540161,77.926514 519.547180,78.388474 522.241211,77.635071 
	C523.979065,77.149048 526.111206,75.131638 526.507446,73.436096 
	C527.212036,70.421616 527.065796,67.073326 522.294189,66.930061 
	C516.488770,66.755760 516.043945,67.058792 515.978210,74.075821 
M314.927490,67.014168 
	C314.103363,67.001190 313.279114,66.972809 312.455078,66.977730 
	C306.969727,67.010468 306.463135,67.743111 306.955017,74.023140 
	C307.315582,78.626572 310.725861,78.008751 313.518768,77.720604 
	C317.938110,77.264641 318.858704,72.541328 314.927490,67.014168 
M678.012695,77.743401 
	C679.342285,77.729988 680.995728,78.203514 681.923767,77.586304 
	C683.237366,76.712685 684.743958,75.090111 684.851746,73.686569 
	C685.012329,71.595222 684.312622,67.729874 683.471375,67.585938 
	C680.817932,67.131950 676.640625,67.080078 675.426270,68.677139 
	C673.516968,71.188232 672.908997,75.320305 678.012695,77.743401 
z"/>
<path fill="#EFF0F2" opacity="1.000000" stroke="none" 
	d="
M235.567291,110.998352 
	C235.567398,114.161797 235.538193,116.826073 235.572540,119.489532 
	C235.743958,132.783035 239.602798,137.193848 252.716721,137.865189 
	C259.312897,138.202850 265.992767,137.765060 272.582733,137.134308 
	C279.919434,136.432053 281.896179,134.238968 283.170685,127.073837 
	C283.285461,126.428383 283.270813,125.587776 283.668854,125.197128 
	C284.856873,124.031288 286.220459,123.044365 287.515472,121.987564 
	C288.304657,123.379410 289.796387,124.784935 289.769592,126.160866 
	C289.589081,135.426788 284.779602,141.782410 275.431641,142.858109 
	C266.119843,143.929657 256.474792,144.352295 247.224243,143.149338 
	C235.230469,141.589630 230.504730,136.902954 229.570389,124.882782 
	C228.558716,111.867874 229.379272,98.672226 229.984268,85.582375 
	C230.447876,75.551323 236.664810,69.562531 246.306946,68.833900 
	C256.492645,68.064178 266.869843,68.233635 277.032562,69.272507 
	C284.782196,70.064697 290.734344,79.264999 289.805267,86.946884 
	C289.671448,88.053391 288.219604,89.838699 287.396393,89.828308 
	C286.143066,89.812477 284.888245,88.528732 283.679016,87.716530 
	C283.467743,87.574654 283.464905,87.106888 283.386932,86.784515 
	C280.888000,76.451897 278.785431,74.433861 268.055634,74.123497 
	C261.113312,73.922676 254.115204,74.322586 247.196472,75.004913 
	C240.163589,75.698479 236.319855,79.871147 235.953445,87.041092 
	C235.554581,94.846527 235.673904,102.678444 235.567291,110.998352 
z"/>
<path fill="#F6F7F8" opacity="1.000000" stroke="none" 
	d="
M819.477661,139.568787 
	C818.130615,144.608871 816.582458,145.233246 813.525269,141.893524 
	C805.793884,133.447647 798.249573,124.830582 790.753418,116.420258 
	C783.944702,119.182739 781.973083,124.440300 782.946838,131.417313 
	C783.357422,134.359268 783.327881,137.456970 782.864990,140.383713 
	C782.656921,141.698975 780.895081,142.768478 779.838257,143.949493 
	C778.887085,142.706192 777.129272,141.475693 777.109314,140.217590 
	C776.905518,127.389229 776.984436,114.556366 776.984314,101.724762 
	C776.984253,90.559601 776.928650,79.393936 777.028931,68.229675 
	C777.050171,65.859985 775.716980,62.138493 780.071289,62.315613 
	C784.191895,62.483219 782.960266,66.111244 782.973755,68.530182 
	C783.057068,83.495201 783.015686,98.460915 783.015686,114.164177 
	C791.207397,107.143570 798.919495,100.525017 806.643799,93.920830 
	C808.406982,92.413277 810.043335,90.629059 812.055908,89.585114 
	C813.482300,88.845238 815.443665,89.136734 817.166199,88.967880 
	C816.692139,90.768936 816.798950,93.198769 815.645508,94.264412 
	C810.049194,99.434425 804.110779,104.233765 798.304810,109.177628 
	C797.423157,109.928406 796.600586,110.748497 795.338928,111.918175 
	C803.395874,121.113091 811.345703,130.185715 819.477661,139.568787 
z"/>
<path fill="#F1F1F3" opacity="1.000000" stroke="none" 
	d="
M489.973724,117.945747 
	C489.973724,109.632057 489.928284,101.808868 490.001587,93.986801 
	C490.023407,91.659782 489.097900,88.363350 492.918610,88.284225 
	C497.247192,88.194557 495.975586,91.799225 495.988037,94.187294 
	C496.064423,108.833763 496.068024,123.481064 495.981567,138.127426 
	C495.968506,140.340622 497.244049,143.719894 493.297821,143.876541 
	C489.028076,144.046005 490.197784,140.514389 489.976074,138.048355 
	C489.931458,137.552322 489.924591,137.052887 489.866089,135.853134 
	C482.599670,144.541702 472.984894,144.358063 463.414307,143.896210 
	C451.698669,143.330841 445.487915,136.606323 445.222137,124.142067 
	C445.002197,113.827354 445.019012,103.499527 445.330994,93.189613 
	C445.382233,91.497177 447.497894,89.867218 448.659485,88.208389 
	C449.677795,89.835114 451.526123,91.436432 451.576874,93.092796 
	C451.862091,102.404800 451.872070,111.733360 451.676788,121.049995 
	C451.401123,134.203278 454.655640,137.785172 469.336334,137.886383 
	C472.917542,137.911072 476.606415,137.203506 480.070984,136.218155 
	C487.598053,134.077423 489.970001,130.646652 489.973633,122.930710 
	C489.974365,121.432701 489.973724,119.934692 489.973724,117.945747 
z"/>
<path fill="#EDEEF0" opacity="1.000000" stroke="none" 
	d="
M377.442810,123.491035 
	C377.606018,117.231918 377.543488,111.407684 378.012817,105.626625 
	C378.926392,94.373657 383.713531,89.222755 395.077362,88.366287 
	C401.973785,87.846519 409.020233,88.358444 415.919647,89.124405 
	C422.053619,89.805382 426.711700,94.532776 426.894775,99.451035 
	C426.945648,100.817528 425.792908,102.228828 425.192413,103.619583 
	C423.801971,102.791275 421.555328,102.246521 421.170715,101.085121 
	C419.584808,96.296204 416.211243,94.816978 411.664398,94.832176 
	C406.006409,94.851089 400.341614,94.695023 394.692230,94.923096 
	C388.368713,95.178383 384.366058,98.853943 384.104370,105.001251 
	C383.793152,112.312782 383.767670,119.659851 384.105743,126.968987 
	C384.433563,134.055939 388.718658,137.483276 397.819824,137.877197 
	C403.092010,138.105408 408.501831,137.962860 413.654236,136.971405 
	C416.247742,136.472382 418.395233,133.694199 420.763702,131.973221 
	C422.232117,130.906235 423.736755,129.889145 425.225159,128.849686 
	C425.723480,130.671249 426.968018,132.674194 426.577759,134.279770 
	C425.485138,138.774857 422.222351,142.312576 417.762054,142.670883 
	C409.086182,143.367813 400.226685,143.869873 391.628296,142.866699 
	C382.602051,141.813599 378.640228,136.310364 377.957550,127.375046 
	C377.869720,126.225815 377.627899,125.088348 377.442810,123.491035 
z"/>
<path fill="#F5F6F7" opacity="1.000000" stroke="none" 
	d="
M748.366455,91.432785 
	C753.956177,95.322128 755.671936,100.878868 755.835754,106.794212 
	C756.140198,117.785805 756.058289,128.793442 755.827271,139.787888 
	C755.797668,141.195587 753.916870,142.564423 752.893677,143.951294 
	C751.923279,142.573486 750.155090,141.219589 750.112915,139.813904 
	C749.853088,131.155075 750.070007,122.483261 749.939453,113.818626 
	C749.887268,110.350754 749.435791,106.880424 749.021912,103.428505 
	C748.425232,98.452538 745.159729,95.419441 740.568481,95.167953 
	C734.158997,94.816872 727.586853,94.960022 721.271851,96.014854 
	C714.133789,97.207176 711.042603,101.767693 711.024231,108.889046 
	C710.997925,119.055573 711.010559,129.222244 711.022827,139.388824 
	C711.025452,141.594711 711.284302,143.979370 708.009644,143.923065 
	C704.835266,143.868484 704.971985,141.555130 704.974304,139.311996 
	C704.990234,124.145462 704.966492,108.978851 704.999084,93.812370 
	C705.004211,91.435310 704.221130,88.236366 708.098938,88.281570 
	C712.048645,88.327614 710.821594,91.608803 711.011963,93.901237 
	C711.053040,94.396011 711.018005,94.897125 711.018005,95.886597 
	C722.544617,86.272026 735.017334,86.258438 748.366455,91.432785 
z"/>
<path fill="#E9EAEC" opacity="1.000000" stroke="none" 
	d="
M566.670715,88.154007 
	C569.412781,88.262405 572.067749,87.751282 572.048950,91.405838 
	C572.030518,94.997017 569.318726,94.629631 567.102783,94.701912 
	C563.137329,94.831253 559.164612,94.738358 555.049561,94.738358 
	C555.049561,106.658714 554.739197,118.252388 555.220703,129.813095 
	C555.385437,133.766907 558.691589,136.378616 562.920227,137.018982 
	C565.694275,137.439087 568.470642,137.843491 571.473206,138.288605 
	C572.776672,142.092178 572.048889,144.293304 567.385498,143.998840 
	C554.901184,143.210510 548.797791,138.027054 548.183594,124.884377 
	C547.719238,114.946037 548.091675,104.968597 548.091675,94.692604 
	C545.478333,94.692604 543.230164,95.089043 541.235596,94.548965 
	C539.970032,94.206291 538.333069,92.520073 538.255005,91.343910 
	C538.189392,90.356316 539.982849,88.630318 541.229919,88.310730 
	C543.235291,87.796806 545.468811,88.172806 548.072937,88.172806 
	C548.072937,84.590324 548.097473,81.298119 548.065063,78.006485 
	C548.039978,75.460175 547.831787,72.453506 551.384216,72.582230 
	C554.716614,72.702972 554.593750,75.675026 554.591248,78.180519 
	C554.588135,81.321396 554.590515,84.462273 554.590515,88.153976 
	C558.645020,88.153976 562.427979,88.153976 566.670715,88.154007 
z"/>
<path fill="#FCFCFC" opacity="1.000000" stroke="none" 
	d="
M644.997314,143.951096 
	C637.337158,143.951065 630.173035,143.819214 623.017334,144.006805 
	C619.456360,144.100159 617.914429,143.037186 617.935364,139.215637 
	C618.056580,117.068222 618.002441,94.919815 617.982849,72.771759 
	C617.980835,70.500069 617.943542,68.183594 621.012756,68.099098 
	C624.231506,68.010483 624.016357,70.417641 624.014648,72.641586 
	C623.999084,92.791321 624.121399,112.942299 623.908081,133.089783 
	C623.865295,137.132355 625.032593,138.193283 628.971497,138.085312 
	C638.955566,137.811584 648.952209,137.987793 658.943787,138.000229 
	C660.912659,138.002670 663.578796,137.676941 662.828491,140.757019 
	C662.511963,142.056503 660.391968,143.680801 658.972656,143.805923 
	C654.511108,144.199249 649.992981,143.950958 644.997314,143.951096 
z"/>
<path fill="#EBECEE" opacity="1.000000" stroke="none" 
	d="
M343.583374,125.992821 
	C343.578766,130.817902 343.887817,135.180206 343.408295,139.454041 
	C343.227875,141.062149 341.219055,142.465118 340.043762,143.961594 
	C339.033661,142.396713 337.168854,140.844177 337.146057,139.265060 
	C336.925201,123.956757 337.052948,108.643784 336.974304,93.332703 
	C336.961151,90.770462 337.309845,88.135017 340.188995,88.448509 
	C341.480011,88.589066 342.745239,91.471260 343.483246,93.324013 
	C343.993591,94.605255 343.581299,96.254005 343.581299,97.738533 
	C344.106873,98.181778 344.632416,98.625023 345.157990,99.068268 
	C345.945587,97.693138 346.505280,96.104256 347.559998,94.979652 
	C352.285858,89.940742 358.535217,88.433456 365.091187,88.322433 
	C366.385681,88.300514 367.715485,90.364342 369.029022,91.466263 
	C367.843597,92.545471 366.817078,94.182716 365.436340,94.575897 
	C363.248627,95.198853 360.725616,94.615791 358.516571,95.197090 
	C349.174377,97.655441 343.393036,103.709564 343.573090,113.512123 
	C343.646423,117.505089 343.584015,121.500542 343.583374,125.992821 
z"/>
<path fill="#E4E5E8" opacity="1.000000" stroke="none" 
	d="
M524.050537,141.828934 
	C522.582764,142.754227 521.031189,143.840790 519.791199,143.558578 
	C518.981384,143.374222 518.144958,141.207245 518.136047,139.922684 
	C518.024536,123.949135 517.994568,107.973717 518.190979,92.001816 
	C518.206787,90.715721 520.043579,89.452019 521.034180,88.177902 
	C522.184998,89.312119 523.420654,90.376785 524.439087,91.619514 
	C524.780334,92.035919 524.608521,92.906830 524.601807,93.569267 
	C524.439880,109.515976 524.268555,125.462593 524.050537,141.828934 
z"/>
<path fill="#FCFCFC" opacity="1.000000" stroke="none" 
	d="
M683.005371,127.992371 
	C683.004639,132.482285 683.257202,136.499573 682.855164,140.450272 
	C682.727600,141.703751 680.855164,142.779678 679.781189,143.936859 
	C678.853027,142.822525 677.128479,141.716736 677.116394,140.592560 
	C676.941528,124.295692 676.931641,107.995583 677.131470,91.699303 
	C677.145813,90.529358 679.093140,89.383087 680.141663,88.225800 
	C681.095947,89.506920 682.855225,90.773430 682.878845,92.071465 
	C683.093323,103.875839 683.005066,115.685722 683.005371,127.992371 
z"/>
<path fill="#FCFCFD" opacity="1.000000" stroke="none" 
	d="
M315.005096,97.115005 
	C315.005096,111.419258 315.094177,125.242889 314.886841,139.062073 
	C314.862244,140.698547 313.441467,143.487976 312.277740,143.711487 
	C308.903870,144.359497 308.984650,141.500748 308.987122,139.083862 
	C309.002625,123.929321 308.983002,108.774734 309.007904,93.620216 
	C309.011597,91.379486 308.357666,88.460129 311.825043,88.293388 
	C315.773834,88.103493 314.936005,91.254211 315.000580,93.635574 
	C315.027649,94.634041 315.005096,95.633850 315.005096,97.115005 
z"/>
<path fill="#6190C7" opacity="1.000000" stroke="none" 
	d="
M134.112823,70.890549 
	C141.865280,78.060524 145.843658,87.395157 147.858444,97.351105 
	C151.388168,114.793083 148.370926,131.174042 137.383209,145.918396 
	C137.024338,146.024597 136.934814,145.940079 136.803558,145.592300 
	C137.089478,144.347916 137.436493,143.410233 137.934036,142.560699 
	C151.665405,119.114426 150.741470,96.310333 135.029282,74.104294 
	C134.428650,73.255424 134.305878,72.068443 133.998474,71.001846 
	C134.036514,70.964676 134.112823,70.890549 134.112823,70.890549 
z"/>
<path fill="#6190C7" opacity="1.000000" stroke="none" 
	d="
M40.885448,148.108032 
	C33.474247,140.403290 29.876467,130.795151 28.103399,120.595657 
	C25.193312,103.855499 29.257607,88.524887 38.897335,74.620216 
	C39.269855,74.082878 39.803955,73.657562 40.619308,73.078049 
	C40.975849,72.976059 41.065319,73.061531 41.179474,73.406769 
	C40.378578,75.322067 39.513199,76.923637 38.540783,78.457336 
	C28.923098,93.626396 26.358719,109.990715 31.680206,127.053543 
	C33.913387,134.214005 38.221367,140.727386 41.409325,147.676239 
	C41.232552,147.817551 40.885448,148.108032 40.885448,148.108032 
z"/>
<path fill="#6190C7" opacity="1.000000" stroke="none" 
	d="
M50.890545,62.886414 
	C58.262943,58.951462 65.227570,53.472683 73.090744,51.395821 
	C90.660240,46.755260 107.627808,49.509094 122.922180,60.613213 
	C123.031952,60.968185 122.955078,61.050175 122.604904,61.189369 
	C121.345451,60.932327 120.388931,60.618443 119.533806,60.127823 
	C97.556168,47.518494 75.919930,48.061333 54.576279,61.713913 
	C53.540565,62.376411 52.239582,62.624207 51.019230,63.020447 
	C50.976334,62.975769 50.890545,62.886414 50.890545,62.886414 
z"/>
<path fill="#6190C7" opacity="1.000000" stroke="none" 
	d="
M124.109192,159.113556 
	C116.741608,162.726089 109.721550,167.847260 101.934982,169.640961 
	C85.082886,173.522980 68.727821,171.081009 54.080643,160.384415 
	C53.973038,160.026306 54.054741,159.938309 54.404793,159.804993 
	C55.663094,160.071686 56.611401,160.400009 57.473743,160.882126 
	C78.787781,172.798141 99.882713,172.522949 120.802330,159.844772 
	C121.702454,159.299240 122.893021,159.232956 123.988449,158.986053 
	C124.028595,159.028656 124.109192,159.113556 124.109192,159.113556 
z"/>
<path fill="#F1F1F3" opacity="1.000000" stroke="none" 
	d="
M515.976074,73.649384 
	C516.043945,67.058792 516.488770,66.755760 522.294189,66.930061 
	C527.065796,67.073326 527.212036,70.421616 526.507446,73.436096 
	C526.111206,75.131638 523.979065,77.149048 522.241211,77.635071 
	C519.547180,78.388474 516.540161,77.926514 515.976074,73.649384 
z"/>
<path fill="#F1F2F4" opacity="1.000000" stroke="none" 
	d="
M315.329529,67.132065 
	C318.858704,72.541328 317.938110,77.264641 313.518768,77.720604 
	C310.725861,78.008751 307.315582,78.626572 306.955017,74.023140 
	C306.463135,67.743111 306.969727,67.010468 312.455078,66.977730 
	C313.279114,66.972809 314.103363,67.001190 315.329529,67.132065 
z"/>
<path fill="#F2F2F4" opacity="1.000000" stroke="none" 
	d="
M677.640686,77.599251 
	C672.908997,75.320305 673.516968,71.188232 675.426270,68.677139 
	C676.640625,67.080078 680.817932,67.131950 683.471375,67.585938 
	C684.312622,67.729874 685.012329,71.595222 684.851746,73.686569 
	C684.743958,75.090111 683.237366,76.712685 681.923767,77.586304 
	C680.995728,78.203514 679.342285,77.729988 677.640686,77.599251 
z"/>
<path fill="#6190C7" opacity="1.000000" stroke="none" 
	d="
M40.931175,72.933258 
	C43.991344,69.585983 47.096191,66.281494 50.545792,62.931717 
	C50.890545,62.886414 50.976334,62.975769 51.099365,63.355247 
	C47.836708,66.843658 44.451015,69.952599 41.065319,73.061531 
	C41.065319,73.061531 40.975849,72.976059 40.931175,72.933258 
z"/>
<path fill="#6190C7" opacity="1.000000" stroke="none" 
	d="
M49.894180,157.116928 
	C47.257778,154.674911 44.621372,152.232895 41.983589,149.403625 
	C41.982208,149.016388 42.069305,148.928680 42.403816,148.842560 
	C45.175701,151.487030 47.613079,154.217636 50.011253,156.990295 
	C49.972050,157.032349 49.894180,157.116928 49.894180,157.116928 
z"/>
<path fill="#6190C7" opacity="1.000000" stroke="none" 
	d="
M128.101044,64.891098 
	C130.067444,66.664925 132.033829,68.438751 134.056519,70.551559 
	C134.112823,70.890549 134.036514,70.964676 133.659866,71.114166 
	C131.509064,69.187378 129.734909,67.111092 127.996742,64.999779 
	C128.032730,64.964745 128.101044,64.891098 128.101044,64.891098 
z"/>
<path fill="#6190C7" opacity="1.000000" stroke="none" 
	d="
M137.069000,146.066986 
	C135.980194,147.686142 134.846710,149.262894 133.369141,150.933182 
	C133.025055,151.026718 132.942093,150.951187 132.814102,150.608658 
	C134.102341,148.824112 135.518570,147.382095 136.934814,145.940079 
	C136.934814,145.940079 137.024338,146.024597 137.069000,146.066986 
z"/>
<path fill="#6190C7" opacity="1.000000" stroke="none" 
	d="
M129.107895,155.101807 
	C127.663315,156.407440 126.218742,157.713058 124.441681,159.066132 
	C124.109192,159.113556 124.028595,159.028656 123.906021,158.639664 
	C125.506805,157.149048 127.230171,156.047409 128.990967,154.985931 
	C129.028412,155.026077 129.107895,155.101807 129.107895,155.101807 
z"/>
<path fill="#6190C7" opacity="1.000000" stroke="none" 
	d="
M123.070602,60.927387 
	C124.354446,61.688934 125.599648,62.491280 126.940170,63.629929 
	C127.035484,63.966232 126.967537,64.038605 126.621887,64.178040 
	C125.169189,63.228367 124.062134,62.139271 122.955078,61.050175 
	C122.955078,61.050175 123.031952,60.968185 123.070602,60.927387 
z"/>
<path fill="#6190C7" opacity="1.000000" stroke="none" 
	d="
M53.931946,160.070068 
	C52.647827,159.314835 51.404797,158.515808 50.027973,157.416855 
	C49.894180,157.116928 49.972050,157.032349 50.355194,156.867340 
	C51.843803,157.780975 52.949272,158.859650 54.054741,159.938309 
	C54.054741,159.938309 53.973038,160.026306 53.931946,160.070068 
z"/>
<path fill="#6190C7" opacity="1.000000" stroke="none" 
	d="
M127.071579,63.932152 
	C127.384911,64.070786 127.662155,64.243500 128.020218,64.653656 
	C128.101044,64.891098 128.032730,64.964745 127.674149,65.059067 
	C127.199554,64.781792 127.083549,64.410202 126.967537,64.038605 
	C126.967537,64.038605 127.035484,63.966232 127.071579,63.932152 
z"/>
<path fill="#6190C7" opacity="1.000000" stroke="none" 
	d="
M41.937847,149.059418 
	C41.614922,148.929092 41.336361,148.755722 40.971626,148.345184 
	C40.885448,148.108032 41.232552,147.817551 41.598381,147.874298 
	C41.999245,148.263596 42.034275,148.596146 42.069305,148.928680 
	C42.069305,148.928680 41.982208,149.016388 41.937847,149.059418 
z"/>
<path fill="#6190C7" opacity="1.000000" stroke="none" 
	d="
M133.064423,151.066696 
	C132.929871,151.385376 132.755966,151.664062 132.305145,151.986252 
	C132.028229,152.029739 131.953079,151.953415 131.897690,151.634094 
	C132.208893,151.193573 132.575485,151.072372 132.942093,150.951172 
	C132.942093,150.951187 133.025055,151.026718 133.064423,151.066696 
z"/>
<path fill="#6190C7" opacity="1.000000" stroke="none" 
	d="
M132.065216,152.068481 
	C131.928757,152.385788 131.755310,152.664352 131.305008,152.986313 
	C131.028168,153.029694 130.953033,152.953156 130.898666,152.632324 
	C131.213898,152.192123 131.583481,152.072769 131.953079,151.953415 
	C131.953079,151.953415 132.028229,152.029739 132.065216,152.068481 
z"/>
<path fill="#6190C7" opacity="1.000000" stroke="none" 
	d="
M131.065216,153.068466 
	C130.928696,153.385849 130.755157,153.664474 130.305023,153.986588 
	C130.028458,154.030090 129.953918,153.953918 129.899551,153.631012 
	C130.214462,153.189789 130.583755,153.071472 130.953033,152.953156 
	C130.953033,152.953156 131.028168,153.029694 131.065216,153.068466 
z"/>
<path fill="#6190C7" opacity="1.000000" stroke="none" 
	d="
M130.065155,154.068726 
	C129.928955,154.384857 129.756058,154.662384 129.345535,155.020844 
	C129.107895,155.101807 129.028412,155.026077 128.937286,154.666672 
	C129.215408,154.189484 129.584671,154.071701 129.953918,153.953918 
	C129.953918,153.953918 130.028458,154.030090 130.065155,154.068726 
z"/>
<path fill="#27334A" opacity="1.000000" stroke="none" 
	d="
M129.899551,153.631012 
	C129.584671,154.071701 129.215408,154.189484 128.899841,154.626526 
	C127.230171,156.047409 125.506805,157.149048 123.865868,158.597046 
	C122.893021,159.232956 121.702454,159.299240 120.802330,159.844772 
	C99.882713,172.522949 78.787781,172.798141 57.473743,160.882126 
	C56.611401,160.400009 55.663094,160.071686 54.404789,159.804993 
	C52.949272,158.859650 51.843803,157.780975 50.394394,156.825287 
	C47.613079,154.217636 45.175701,151.487030 42.403816,148.842560 
	C42.034275,148.596146 41.999245,148.263596 41.775154,147.733002 
	C38.221367,140.727386 33.913387,134.214005 31.680206,127.053543 
	C26.358719,109.990715 28.923098,93.626396 38.540783,78.457336 
	C39.513199,76.923637 40.378578,75.322067 41.179474,73.406769 
	C44.451015,69.952599 47.836708,66.843658 51.142265,63.399925 
	C52.239582,62.624207 53.540565,62.376411 54.576279,61.713913 
	C75.919930,48.061333 97.556168,47.518494 119.533806,60.127823 
	C120.388931,60.618443 121.345451,60.932327 122.604904,61.189369 
	C124.062134,62.139271 125.169189,63.228367 126.621887,64.178040 
	C127.083549,64.410202 127.199554,64.781792 127.638161,65.094101 
	C129.734909,67.111092 131.509064,69.187378 133.621826,71.151337 
	C134.305878,72.068443 134.428650,73.255424 135.029282,74.104294 
	C150.741470,96.310333 151.665405,119.114426 137.934036,142.560699 
	C137.436493,143.410233 137.089478,144.347916 136.803558,145.592300 
	C135.518570,147.382095 134.102341,148.824112 132.814102,150.608643 
	C132.575485,151.072372 132.208893,151.193573 131.897690,151.634094 
	C131.583481,152.072769 131.213898,152.192123 130.898666,152.632324 
	C130.583755,153.071472 130.214462,153.189789 129.899551,153.631012 
M71.402840,74.888046 
	C64.564186,73.391846 58.152847,74.508537 52.348366,78.377731 
	C41.720428,85.462151 38.184715,102.399757 44.643330,115.331375 
	C48.705399,123.464561 55.326088,127.646278 64.502632,128.173065 
	C74.493065,128.746567 81.716042,124.463997 87.061180,115.809059 
	C88.103027,117.448311 88.828392,118.696220 89.654564,119.873375 
	C100.628799,135.509857 124.316772,133.623428 132.365570,116.312202 
	C136.947220,106.458031 136.932266,96.252945 132.413330,86.359993 
	C125.387001,70.977791 105.233467,67.221367 93.037193,78.939217 
	C90.823563,81.066010 89.147408,83.752220 88.030449,85.161552 
	C82.528511,81.636627 77.365921,78.329109 71.402840,74.888046 
M63.680717,148.032120 
	C62.242180,147.938400 60.803646,147.844666 59.301754,147.746811 
	C59.155453,145.263718 59.030827,143.148483 58.925014,141.352539 
	C56.543690,140.450119 54.526344,139.391312 52.383053,138.963547 
	C50.562965,138.600266 48.469837,138.609573 46.772175,139.219055 
	C46.244755,139.408401 46.131428,143.205612 46.664291,143.438446 
	C48.333004,144.167618 50.433681,144.273773 52.302311,144.058868 
	C53.682804,143.900116 54.962173,142.862122 56.700871,142.013702 
	C57.031891,145.103836 57.272427,147.349304 57.525501,149.711838 
	C78.051758,149.711838 98.235649,149.711838 118.636185,149.711838 
	C118.879440,147.192017 119.094215,144.967316 119.414024,141.654541 
	C121.645515,142.959381 123.127922,144.289871 124.824165,144.672562 
	C126.201385,144.983276 128.407684,144.636810 129.194565,143.699173 
	C129.984085,142.758392 130.077042,140.286331 129.358398,139.295227 
	C128.652405,138.321564 126.365967,137.735275 125.085503,138.094055 
	C122.384308,138.850891 119.887215,140.336182 117.020660,141.653931 
	C116.935776,143.377167 116.832054,145.482925 116.706474,148.032181 
	C99.148468,148.032181 81.897194,148.032181 63.680717,148.032120 
z"/>
<path fill="#689BD5" opacity="1.000000" stroke="none" 
	d="
M71.803085,74.954819 
	C77.365921,78.329109 82.528511,81.636627 88.030449,85.161552 
	C89.147408,83.752220 90.823563,81.066010 93.037193,78.939217 
	C105.233467,67.221367 125.387001,70.977791 132.413330,86.359993 
	C136.932266,96.252945 136.947220,106.458031 132.365570,116.312202 
	C124.316772,133.623428 100.628799,135.509857 89.654564,119.873375 
	C88.828392,118.696220 88.103027,117.448311 87.061180,115.809059 
	C81.716042,124.463997 74.493065,128.746567 64.502632,128.173065 
	C55.326088,127.646278 48.705399,123.464561 44.643330,115.331375 
	C38.184715,102.399757 41.720428,85.462151 52.348366,78.377731 
	C58.152847,74.508537 64.564186,73.391846 71.803085,74.954819 
M123.053787,112.361671 
	C123.977341,109.888618 125.312813,107.487000 125.756111,104.930672 
	C128.220963,90.716789 117.070312,80.440636 103.911079,84.638069 
	C96.644951,86.955765 92.336517,92.576591 92.009399,100.165154 
	C91.656883,108.342728 94.980789,114.233009 101.628815,117.211769 
	C108.954956,120.494362 116.676979,118.917015 123.053787,112.361671 
M75.841583,88.399689 
	C67.549225,84.421532 59.675549,85.441780 54.869804,91.117157 
	C49.277493,97.721436 49.900715,107.568840 56.261898,113.113251 
	C62.434826,118.493576 73.455040,117.666115 78.930405,111.597603 
	C83.665543,106.349510 83.924728,93.429413 75.841583,88.399689 
z"/>
<path fill="#CBCCCE" opacity="1.000000" stroke="none" 
	d="
M64.163315,148.032150 
	C81.897194,148.032181 99.148468,148.032181 116.706474,148.032181 
	C116.832054,145.482925 116.935776,143.377167 117.020660,141.653931 
	C119.887215,140.336182 122.384308,138.850891 125.085503,138.094055 
	C126.365967,137.735275 128.652405,138.321564 129.358398,139.295227 
	C130.077042,140.286331 129.984085,142.758392 129.194565,143.699173 
	C128.407684,144.636810 126.201385,144.983276 124.824165,144.672562 
	C123.127922,144.289871 121.645515,142.959381 119.414024,141.654541 
	C119.094215,144.967316 118.879440,147.192017 118.636185,149.711838 
	C98.235649,149.711838 78.051758,149.711838 57.525501,149.711838 
	C57.272427,147.349304 57.031891,145.103836 56.700871,142.013702 
	C54.962173,142.862122 53.682804,143.900116 52.302311,144.058868 
	C50.433681,144.273773 48.333004,144.167618 46.664291,143.438446 
	C46.131428,143.205612 46.244755,139.408401 46.772175,139.219055 
	C48.469837,138.609573 50.562965,138.600266 52.383053,138.963547 
	C54.526344,139.391312 56.543690,140.450119 58.925014,141.352539 
	C59.030827,143.148483 59.155453,145.263718 59.301754,147.746811 
	C60.803646,147.844666 62.242180,147.938400 64.163315,148.032150 
z"/>
<path fill="#27334A" opacity="1.000000" stroke="none" 
	d="
M122.811035,112.648109 
	C116.676979,118.917015 108.954956,120.494362 101.628815,117.211769 
	C94.980789,114.233009 91.656883,108.342728 92.009399,100.165154 
	C92.336517,92.576591 96.644951,86.955765 103.911079,84.638069 
	C117.070312,80.440636 128.220963,90.716789 125.756111,104.930672 
	C125.312813,107.487000 123.977341,109.888618 122.811035,112.648109 
z"/>
<path fill="#27334B" opacity="1.000000" stroke="none" 
	d="
M76.138428,88.639023 
	C83.924728,93.429413 83.665543,106.349510 78.930405,111.597603 
	C73.455040,117.666115 62.434826,118.493576 56.261898,113.113251 
	C49.900715,107.568840 49.277493,97.721436 54.869804,91.117157 
	C59.675549,85.441780 67.549225,84.421532 76.138428,88.639023 
z"/>
</svg>