<svg version="1.1" id="Layer_1" xmlns="http://www.w3.org/2000/svg" xmlns:xlink="http://www.w3.org/1999/xlink" x="0px" y="0px"
	 width="100%" viewBox="0 0 100 100" enable-background="new 0 0 100 100" xml:space="preserve">
<path fill="#F6F7F7" opacity="1.000000" stroke="none" 
	d="
M61.000000,101.000000 
	C40.666672,101.000000 20.833340,101.000000 1.000008,101.000000 
	C1.000005,67.666679 1.000005,34.333351 1.000003,1.000021 
	C34.333317,1.000014 67.666634,1.000014 100.999969,1.000007 
	C100.999977,34.333313 100.999977,67.666626 100.999985,100.999969 
	C87.833336,101.000000 74.666664,101.000000 61.000000,101.000000 
M22.768793,54.747799 
	C22.768793,54.747799 22.698929,54.639027 22.008593,54.704105 
	C21.389807,55.472069 20.771021,56.240032 19.700497,57.512505 
	C18.822834,58.083614 17.945171,58.654724 16.530621,59.507626 
	C15.950816,59.977650 15.371011,60.447678 14.173049,61.192097 
	C13.387707,62.991501 12.602364,64.790901 10.984287,66.655151 
	C7.110816,74.026932 8.895930,82.022545 8.399979,89.772125 
	C8.156554,93.575783 9.532302,95.206398 13.550286,95.056076 
	C20.200018,94.807289 26.865891,95.003052 33.524860,94.980843 
	C35.794666,94.973274 38.649860,95.557220 38.611511,91.972015 
	C38.574409,88.503029 35.951134,88.335548 33.272713,88.326973 
	C27.117435,88.307274 20.962473,88.188599 14.788505,87.159859 
	C14.845096,82.102699 14.901687,77.045532 15.103812,71.497055 
	C15.063332,71.331116 15.022850,71.165176 15.279912,70.626427 
	C15.431066,70.316444 15.428365,70.007812 15.874417,69.392616 
	C16.209770,68.593346 16.545124,67.794067 17.431293,66.582176 
	C20.807255,62.441174 24.007412,58.103485 30.251152,58.321014 
	C33.875607,58.447289 37.552494,58.606918 41.119766,58.120579 
	C42.665825,57.909805 43.995037,56.108494 45.422749,55.029636 
	C44.058723,53.888912 42.783009,51.931145 41.312859,51.772232 
	C37.926136,51.406166 34.444927,51.914211 30.261894,51.851173 
	C28.884340,52.398220 27.506786,52.945267 25.589437,53.317379 
	C25.062155,53.477215 24.534870,53.637054 23.361374,53.741310 
	C23.121187,54.070721 22.881001,54.400131 22.768793,54.747799 
M50.475056,61.164906 
	C50.018814,62.209549 49.562569,63.254196 49.065414,64.843735 
	C48.824387,65.521271 48.583363,66.198807 47.623024,67.194420 
	C47.139019,68.313950 46.655014,69.433479 46.226536,70.813652 
	C46.226536,70.813652 46.334736,71.057182 46.003689,71.793907 
	C45.904076,72.860619 45.804459,73.927338 44.967213,75.247963 
	C44.666546,80.623451 44.318161,85.997368 44.140625,91.376915 
	C44.123283,91.902336 45.158459,92.462486 46.083664,93.745903 
	C47.477238,94.133110 48.868729,94.847870 50.264709,94.856743 
	C63.872669,94.943268 77.481773,94.856300 91.089584,94.954010 
	C94.381317,94.977646 95.609612,93.239975 95.612709,90.413498 
	C95.617966,85.617554 95.384018,80.821358 95.740761,75.674744 
	C95.284027,74.658318 94.827301,73.641884 94.371117,71.958145 
	C94.253395,71.305260 94.135674,70.652367 94.145767,69.257942 
	C91.864075,63.558533 88.851158,58.446106 82.791733,55.047348 
	C82.081642,54.821930 81.371552,54.596508 80.199532,53.886635 
	C79.120399,53.651093 78.041267,53.415546 76.838699,52.606953 
	C76.181313,52.196377 75.523918,51.785797 74.973450,50.655285 
	C75.316818,49.505074 75.660187,48.354862 76.542305,46.810772 
	C77.702400,46.226353 78.862488,45.641930 80.422661,45.505890 
	C83.877609,43.370121 86.847458,40.960350 85.410957,35.789780 
	C85.337204,35.397152 85.488342,35.133560 86.642128,34.859432 
	C89.075203,30.437515 87.373360,23.650763 82.481781,20.758963 
	C78.264511,15.803602 72.933884,13.699802 66.621880,15.398451 
	C61.438686,16.793318 56.295414,23.815559 55.812550,29.692190 
	C55.881248,31.462599 55.949947,33.233006 55.613869,35.359066 
	C56.068089,36.241810 56.522308,37.124550 56.908699,38.595074 
	C57.144947,39.117764 57.381199,39.640453 57.730667,40.803383 
	C58.082451,41.046402 58.434235,41.289417 58.889488,42.192890 
	C61.603008,43.763428 64.316528,45.333961 67.156921,47.402477 
	C67.173248,47.572994 67.189568,47.743511 66.745743,48.189190 
	C66.489777,49.262524 66.233818,50.335854 65.578743,51.810280 
	C65.076118,52.307976 64.573486,52.805672 63.326332,53.287174 
	C62.590824,53.300056 61.855316,53.312939 60.739517,52.763706 
	C60.245552,53.421703 59.751587,54.079697 59.408848,54.841072 
	C59.408848,54.841072 59.369217,55.019924 58.465725,55.054199 
	C58.166000,55.085732 57.866272,55.117264 57.437943,55.572021 
	C57.116169,55.765450 56.794392,55.958874 55.711388,56.108513 
	C54.197083,57.826679 52.682777,59.544842 51.116707,61.148178 
	C51.116707,61.148178 51.242569,61.143478 50.475056,61.164906 
M44.182190,22.217287 
	C43.589500,17.317539 39.678593,15.868346 35.869095,15.143607 
	C30.831911,14.185306 25.962767,14.933549 22.221617,20.081610 
	C15.355921,25.378199 16.603439,40.323826 23.204479,44.592716 
	C24.131018,45.070496 25.057554,45.548275 26.453987,46.485878 
	C27.306171,46.637070 28.158358,46.788261 29.443296,47.463737 
	C31.957903,47.288437 34.472507,47.113136 37.702953,46.966694 
	C39.221283,46.008057 40.739613,45.049419 42.892521,43.924919 
	C43.395226,43.003822 43.897930,42.082729 44.794582,41.243973 
	C45.129906,41.198238 45.280239,41.006969 45.853706,40.227058 
	C46.764168,37.274635 48.393143,34.321232 48.389114,31.370060 
	C48.384830,28.229248 48.515453,24.183395 44.182190,22.217287 
z"/>
<path fill="#0E1218" opacity="1.000000" stroke="none" 
	d="
M57.617447,40.163143 
	C57.381199,39.640453 57.144947,39.117764 57.192509,38.145332 
	C57.634007,37.140823 57.791691,36.586052 58.221519,35.803089 
	C58.493660,32.734337 58.493660,29.893782 58.493660,27.369297 
	C57.766266,27.849236 56.903175,28.418703 56.040085,28.988173 
	C56.295414,23.815559 61.438686,16.793318 66.621880,15.398451 
	C72.933884,13.699802 78.264511,15.803602 82.835205,21.242905 
	C84.080536,26.150900 84.972450,30.574951 85.864357,34.999004 
	C85.488342,35.133560 85.337204,35.397152 85.292183,36.265556 
	C83.456467,39.513393 81.739525,42.285454 80.022583,45.057510 
	C78.862488,45.641930 77.702400,46.226353 75.941086,46.919273 
	C74.886444,46.994747 74.433022,46.961716 73.723465,46.656982 
	C71.321579,46.558353 69.175812,46.731426 67.030045,46.904495 
	C64.316528,45.333961 61.603008,43.763428 58.793045,41.530106 
	C58.336880,40.632599 57.977165,40.397869 57.617447,40.163143 
M74.293480,21.788721 
	C73.555679,21.610069 72.817886,21.431417 72.018211,20.654379 
	C71.493919,20.152563 70.969627,19.650749 70.445335,19.148932 
	C69.936134,19.849468 69.426933,20.550005 68.221626,21.582066 
	C62.706081,22.918236 61.725620,27.461153 60.390076,32.286644 
	C60.673428,32.880306 60.956783,33.473965 61.627151,34.738312 
	C62.807629,39.287121 66.247459,42.688282 70.309250,42.413437 
	C73.352837,42.207489 76.967232,38.936447 78.870522,36.064529 
	C81.753822,31.713850 79.375961,27.150980 76.978477,22.450964 
	C76.338837,22.224728 75.699188,21.998493 74.293480,21.788721 
z"/>
<path fill="#14171C" opacity="1.000000" stroke="none" 
	d="
M14.982368,70.999229 
	C15.022850,71.165176 15.063332,71.331116 14.740973,71.995926 
	C13.927576,74.906746 13.043581,77.336044 13.139215,79.726151 
	C13.251748,82.538544 14.213744,85.316948 14.807384,88.110092 
	C20.962473,88.188599 27.117435,88.307274 33.272713,88.326973 
	C35.951134,88.335548 38.574409,88.503029 38.611511,91.972015 
	C38.649860,95.557220 35.794666,94.973274 33.524860,94.980843 
	C26.865891,95.003052 20.200018,94.807289 13.550286,95.056076 
	C9.532302,95.206398 8.156554,93.575783 8.399979,89.772125 
	C8.895930,82.022545 7.110816,74.026932 11.442176,66.941315 
	C12.927499,68.484726 13.954933,69.741982 14.982368,70.999229 
z"/>
<path fill="#24292F" opacity="1.000000" stroke="none" 
	d="
M48.342339,66.876343 
	C48.583363,66.198807 48.824387,65.521271 49.466522,64.573448 
	C50.325943,63.249935 50.784256,62.196705 51.242569,61.143478 
	C51.242569,61.143478 51.116707,61.148178 51.512589,61.251205 
	C53.429852,59.620255 54.951233,57.886276 56.472618,56.152298 
	C56.794392,55.958874 57.116169,55.765450 57.604794,55.729164 
	C58.207108,55.913204 58.642574,55.940102 59.038315,55.973301 
	C58.998589,55.979603 58.990124,55.899605 58.918407,56.262741 
	C58.886116,56.869473 58.925545,57.113071 59.225563,57.484348 
	C60.313568,57.975788 61.140987,58.339546 61.717537,58.947899 
	C60.205185,60.709549 59.019085,62.297546 57.669479,63.731678 
	C50.969521,70.851257 50.809387,79.429466 52.101803,88.804512 
	C53.312901,90.193130 54.484837,91.900635 55.693493,91.927032 
	C65.655365,92.144608 75.625252,91.965302 85.589890,92.105972 
	C88.324608,92.144577 89.132423,91.016785 88.989006,88.315048 
	C89.249275,87.998940 89.434471,87.957436 89.989540,87.845947 
	C91.503120,87.947899 92.646835,88.119827 93.790543,88.291756 
	C93.374962,89.287140 93.219971,90.606033 92.481644,91.200737 
	C91.420822,92.055214 89.939758,92.848717 88.630043,92.861771 
	C76.321953,92.984398 64.011566,92.870682 51.703274,92.982849 
	C48.783699,93.009453 47.965561,91.805443 48.044659,89.112396 
	C48.181332,84.458778 48.217571,79.792404 48.007576,75.144409 
	C47.945011,73.759628 46.919201,72.418381 46.334736,71.057182 
	C46.334736,71.057182 46.226536,70.813652 46.541512,70.671959 
	C47.351772,69.312294 47.847057,68.094315 48.342339,66.876343 
z"/>
<path fill="#000205" opacity="1.000000" stroke="none" 
	d="
M46.169212,71.425545 
	C46.919201,72.418381 47.945011,73.759628 48.007576,75.144409 
	C48.217571,79.792404 48.181332,84.458778 48.044659,89.112396 
	C47.965561,91.805443 48.783699,93.009453 51.703274,92.982849 
	C64.011566,92.870682 76.321953,92.984398 88.630043,92.861771 
	C89.939758,92.848717 91.420822,92.055214 92.481644,91.200737 
	C93.219971,90.606033 93.374962,89.287140 93.790543,88.291756 
	C92.646835,88.119827 91.503120,87.947899 90.003113,87.386154 
	C89.618431,82.199547 89.590065,77.402748 89.700897,72.357666 
	C91.232712,71.406082 92.625336,70.702782 94.017960,69.999481 
	C94.135674,70.652367 94.253395,71.305260 94.214569,72.668327 
	C94.455544,74.260765 94.853073,75.143013 95.250603,76.025269 
	C95.384018,80.821358 95.617966,85.617554 95.612709,90.413498 
	C95.609612,93.239975 94.381317,94.977646 91.089584,94.954010 
	C77.481773,94.856300 63.872669,94.943268 50.264709,94.856743 
	C48.868729,94.847870 47.477238,94.133110 45.956551,92.911530 
	C45.787907,86.382790 45.746372,80.688423 45.704842,74.994049 
	C45.804459,73.927338 45.904076,72.860619 46.169212,71.425545 
z"/>
<path fill="#080F16" opacity="1.000000" stroke="none" 
	d="
M42.257938,44.090782 
	C40.739613,45.049419 39.221283,46.008057 37.070801,46.688309 
	C33.962612,46.586437 31.486578,46.762943 29.010542,46.939453 
	C28.158358,46.788261 27.306171,46.637070 26.212006,45.912201 
	C25.006954,44.880016 24.043884,44.421509 23.080814,43.963005 
	C16.603439,40.323826 15.355921,25.378199 22.834167,20.228649 
	C23.364889,21.207884 23.100933,22.075104 23.252344,22.862446 
	C23.404432,23.653315 23.970263,24.364618 24.305164,25.526623 
	C21.283739,32.733421 23.637930,39.239414 30.206837,42.389282 
	C33.930080,44.174622 39.263622,41.262112 42.810005,35.858864 
	C43.914433,37.537426 44.580009,39.103790 45.245583,40.670158 
	C45.280239,41.006969 45.129906,41.198238 44.262051,41.193233 
	C42.805771,41.941689 41.882023,42.740883 40.958275,43.540073 
	C41.391495,43.723640 41.824718,43.907211 42.257938,44.090782 
z"/>
<path fill="#121923" opacity="1.000000" stroke="none" 
	d="
M15.131140,70.812828 
	C13.954933,69.741982 12.927499,68.484726 11.858542,66.908890 
	C12.602364,64.790901 13.387707,62.991501 14.809040,61.058304 
	C15.985858,60.358284 16.526684,59.792061 17.067511,59.225834 
	C17.945171,58.654724 18.822834,58.083614 20.291344,57.256794 
	C21.487770,56.213730 22.093348,55.426376 22.698927,54.639023 
	C22.698929,54.639027 22.768793,54.747799 23.004093,54.711285 
	C23.495459,54.382145 23.751524,54.089520 24.007589,53.796898 
	C24.534870,53.637054 25.062155,53.477215 26.283180,53.548103 
	C28.318634,53.208412 29.660347,52.637997 31.002060,52.067581 
	C34.444927,51.914211 37.926136,51.406166 41.312859,51.772232 
	C42.783009,51.931145 44.058723,53.888912 45.422749,55.029633 
	C43.995037,56.108494 42.665825,57.909805 41.119766,58.120579 
	C37.552494,58.606918 33.875607,58.447289 30.251152,58.321014 
	C24.007412,58.103485 20.807255,62.441174 16.792076,66.866760 
	C15.859175,68.001076 15.565493,68.850800 15.271811,69.700531 
	C15.428365,70.007812 15.431066,70.316444 15.131140,70.812828 
z"/>
<path fill="#131A22" opacity="1.000000" stroke="none" 
	d="
M24.354776,25.110790 
	C23.970263,24.364618 23.404432,23.653315 23.252344,22.862446 
	C23.100933,22.075104 23.364889,21.207884 23.188936,20.168818 
	C25.962767,14.933549 30.831911,14.185306 35.869095,15.143607 
	C39.678593,15.868346 43.589500,17.317539 43.563656,22.717976 
	C42.577770,23.312328 42.210423,23.405993 41.506714,23.458675 
	C40.527092,23.310183 39.787086,23.372599 39.255043,23.069717 
	C31.012573,18.377489 30.811701,19.372658 24.354776,25.110790 
z"/>
<path fill="#24292F" opacity="1.000000" stroke="none" 
	d="
M94.081863,69.628716 
	C92.625336,70.702782 91.232712,71.406082 89.387329,72.190628 
	C85.596497,67.529564 82.258423,62.787247 79.152924,57.873917 
	C79.654655,57.433678 79.923820,57.164459 80.552460,56.908382 
	C81.646797,56.453857 82.381668,55.986191 83.116531,55.518520 
	C88.851158,58.446106 91.864075,63.558533 94.081863,69.628716 
z"/>
<path fill="#000106" opacity="1.000000" stroke="none" 
	d="
M80.192978,56.895237 
	C79.923820,57.164459 79.654655,57.433678 78.782196,57.967659 
	C72.775398,58.389378 67.371902,58.546341 61.968403,58.703300 
	C61.140987,58.339546 60.313568,57.975788 59.364044,57.227669 
	C59.157997,56.528740 59.074059,56.214172 58.990120,55.899605 
	C58.990124,55.899605 58.998589,55.979603 59.286140,55.790398 
	C59.505535,55.407436 59.437378,55.213680 59.369217,55.019924 
	C59.369217,55.019924 59.408848,54.841072 59.578754,54.626335 
	C60.205711,54.049671 60.662762,53.687744 61.119812,53.325821 
	C61.855316,53.312939 62.590824,53.300056 64.006569,53.552628 
	C68.778580,53.605385 72.870361,53.392693 76.962135,53.180000 
	C78.041267,53.415546 79.120399,53.651093 80.251480,54.525665 
	C80.266617,55.741539 80.229797,56.318390 80.192978,56.895237 
z"/>
<path fill="#16171A" opacity="1.000000" stroke="none" 
	d="
M41.843071,23.499655 
	C42.210423,23.405993 42.577770,23.312328 43.500839,23.098057 
	C48.515453,24.183395 48.384830,28.229248 48.389114,31.370060 
	C48.393143,34.321232 46.764168,37.274635 45.549644,40.448608 
	C44.580009,39.103790 43.914433,37.537426 42.843769,35.440201 
	C42.240143,31.106117 42.041607,27.302885 41.843071,23.499655 
M44.421223,25.484734 
	C44.421223,25.484734 44.522156,25.426571 44.421223,25.484734 
z"/>
<path fill="#F3F3F4" opacity="1.000000" stroke="none" 
	d="
M45.336025,75.121002 
	C45.746372,80.688423 45.787907,86.382790 45.767262,92.541840 
	C45.158459,92.462486 44.123283,91.902336 44.140625,91.376915 
	C44.318161,85.997368 44.666546,80.623451 45.336025,75.121002 
z"/>
<path fill="#3A444C" opacity="1.000000" stroke="none" 
	d="
M76.900421,52.893478 
	C72.870361,53.392693 68.778580,53.605385 64.378830,53.560722 
	C64.573486,52.805672 65.076118,52.307976 66.219803,51.694645 
	C69.529427,51.511082 72.197975,51.443150 74.866531,51.375217 
	C75.523918,51.785797 76.181313,52.196377 76.900421,52.893478 
z"/>
<path fill="#53595F" opacity="1.000000" stroke="none" 
	d="
M14.797945,87.634979 
	C14.213744,85.316948 13.251748,82.538544 13.139215,79.726151 
	C13.043581,77.336044 13.927576,74.906746 14.668204,72.241577 
	C14.901687,77.045532 14.845096,82.102699 14.797945,87.634979 
z"/>
<path fill="#F3F3F4" opacity="1.000000" stroke="none" 
	d="
M74.919991,51.015251 
	C72.197975,51.443150 69.529427,51.511082 66.419357,51.494099 
	C66.233818,50.335854 66.489777,49.262524 67.372818,47.979801 
	C69.993134,47.489834 71.986359,47.209259 73.979591,46.928684 
	C74.433022,46.961716 74.886444,46.994747 75.671722,47.116211 
	C75.660187,48.354862 75.316818,49.505074 74.919991,51.015251 
z"/>
<path fill="#F3F3F4" opacity="1.000000" stroke="none" 
	d="
M86.253242,34.929218 
	C84.972450,30.574951 84.080536,26.150900 83.171661,21.339451 
	C87.373360,23.650763 89.075203,30.437515 86.253242,34.929218 
z"/>
<path fill="#020911" opacity="1.000000" stroke="none" 
	d="
M55.926315,29.340181 
	C56.903175,28.418703 57.766266,27.849236 58.493660,27.369297 
	C58.493660,29.893782 58.493660,32.734337 58.064125,35.560036 
	C57.095940,35.364590 56.557293,35.184002 56.018642,35.003414 
	C55.949947,33.233006 55.881248,31.462599 55.926315,29.340181 
z"/>
<path fill="#F3F3F4" opacity="1.000000" stroke="none" 
	d="
M80.222626,45.281700 
	C81.739525,42.285454 83.456467,39.513393 85.423386,36.475632 
	C86.847458,40.960350 83.877609,43.370121 80.222626,45.281700 
z"/>
<path fill="#484D53" opacity="1.000000" stroke="none" 
	d="
M29.226919,47.201595 
	C31.486578,46.762943 33.962612,46.586437 36.712883,46.673882 
	C34.472507,47.113136 31.957903,47.288437 29.226919,47.201595 
z"/>
<path fill="#F3F3F4" opacity="1.000000" stroke="none" 
	d="
M56.092003,56.130405 
	C54.951233,57.886276 53.429852,59.620255 51.538467,61.308617 
	C52.682777,59.544842 54.197083,57.826679 56.092003,56.130405 
z"/>
<path fill="#2C2E30" opacity="1.000000" stroke="none" 
	d="
M73.723465,46.656982 
	C71.986359,47.209259 69.993134,47.489834 67.602890,47.842220 
	C67.189568,47.743511 67.173248,47.572994 67.093483,47.153488 
	C69.175812,46.731426 71.321579,46.558353 73.723465,46.656982 
z"/>
<path fill="#232A31" opacity="1.000000" stroke="none" 
	d="
M55.816254,35.181240 
	C56.557293,35.184002 57.095940,35.364590 57.791985,35.788231 
	C57.791691,36.586052 57.634007,37.140823 57.226425,37.851440 
	C56.522308,37.124550 56.068089,36.241810 55.816254,35.181240 
z"/>
<path fill="#1A2129" opacity="1.000000" stroke="none" 
	d="
M30.631977,51.959381 
	C29.660347,52.637997 28.318634,53.208412 26.553078,53.635571 
	C27.506786,52.945267 28.884340,52.398220 30.631977,51.959381 
z"/>
<path fill="#16171A" opacity="1.000000" stroke="none" 
	d="
M42.575230,44.007851 
	C41.824718,43.907211 41.391495,43.723640 40.958275,43.540073 
	C41.882023,42.740883 42.805771,41.941689 44.065075,41.152061 
	C43.897930,42.082729 43.395226,43.003822 42.575230,44.007851 
z"/>
<path fill="#F3F3F4" opacity="1.000000" stroke="none" 
	d="
M47.982681,67.035385 
	C47.847057,68.094315 47.351772,69.312294 46.513748,70.541641 
	C46.655014,69.433479 47.139019,68.313950 47.982681,67.035385 
z"/>
<path fill="#3A444C" opacity="1.000000" stroke="none" 
	d="
M80.552452,56.908382 
	C80.229797,56.318390 80.266617,55.741539 80.482452,54.767891 
	C81.371552,54.596508 82.081642,54.821930 82.954132,55.282936 
	C82.381668,55.986191 81.646797,56.453857 80.552452,56.908382 
z"/>
<path fill="#4D545A" opacity="1.000000" stroke="none" 
	d="
M95.495682,75.850006 
	C94.853073,75.143013 94.455544,74.260765 94.214294,73.001984 
	C94.827301,73.641884 95.284027,74.658318 95.495682,75.850006 
z"/>
<path fill="#F3F3F4" opacity="1.000000" stroke="none" 
	d="
M50.858810,61.154190 
	C50.784256,62.196705 50.325943,63.249935 49.486977,64.301003 
	C49.562569,63.254196 50.018814,62.209549 50.858810,61.154190 
z"/>
<path fill="#1A2129" opacity="1.000000" stroke="none" 
	d="
M22.353760,54.671562 
	C22.093348,55.426376 21.487770,56.213730 20.517212,57.004539 
	C20.771021,56.240032 21.389807,55.472069 22.353760,54.671562 
z"/>
<path fill="#484D53" opacity="1.000000" stroke="none" 
	d="
M23.142647,44.277859 
	C24.043884,44.421509 25.006954,44.880016 25.977058,45.682289 
	C25.057554,45.548275 24.131018,45.070496 23.142647,44.277859 
z"/>
<path fill="#1A2129" opacity="1.000000" stroke="none" 
	d="
M15.573114,69.546570 
	C15.565493,68.850800 15.859175,68.001076 16.516666,67.073074 
	C16.545124,67.794067 16.209770,68.593346 15.573114,69.546570 
z"/>
<path fill="#1A2129" opacity="1.000000" stroke="none" 
	d="
M16.799065,59.366730 
	C16.526684,59.792061 15.985858,60.358284 15.118118,60.921104 
	C15.371011,60.447678 15.950816,59.977650 16.799065,59.366730 
z"/>
<path fill="#F3F3F4" opacity="1.000000" stroke="none" 
	d="
M60.929665,53.044762 
	C60.662762,53.687744 60.205711,54.049671 59.503143,54.574646 
	C59.751587,54.079697 60.245552,53.421703 60.929665,53.044762 
z"/>
<path fill="#1A2129" opacity="1.000000" stroke="none" 
	d="
M23.684483,53.769104 
	C23.751524,54.089520 23.495459,54.382145 22.940104,54.702156 
	C22.881001,54.400131 23.121187,54.070721 23.684483,53.769104 
z"/>
<path fill="#232A31" opacity="1.000000" stroke="none" 
	d="
M57.674057,40.483261 
	C57.977165,40.397869 58.336880,40.632599 58.741310,41.199879 
	C58.434235,41.289417 58.082451,41.046402 57.674057,40.483261 
z"/>
<path fill="#F3F3F4" opacity="1.000000" stroke="none" 
	d="
M58.917473,55.037064 
	C59.437378,55.213680 59.505535,55.407436 59.325863,55.784096 
	C58.642574,55.940102 58.207108,55.913204 57.669098,55.517551 
	C57.866272,55.117264 58.166000,55.085732 58.917473,55.037064 
z"/>
<path fill="#ECEDED" opacity="1.000000" stroke="none" 
	d="
M60.816551,32.054554 
	C61.725620,27.461153 62.706081,22.918236 68.954254,21.554258 
	C70.484612,21.435223 71.282349,21.343994 72.080086,21.252766 
	C72.817886,21.431417 73.555679,21.610069 74.829132,22.062447 
	C75.908577,22.567186 76.452362,22.798199 76.996155,23.029213 
	C79.375961,27.150980 81.753822,31.713850 78.870522,36.064529 
	C76.967232,38.936447 73.352837,42.207489 70.309250,42.413437 
	C66.247459,42.688282 62.807629,39.287121 61.570442,34.137863 
	C61.281342,33.043129 61.048946,32.548840 60.816551,32.054554 
z"/>
<path fill="#232A31" opacity="1.000000" stroke="none" 
	d="
M72.049149,20.953571 
	C71.282349,21.343994 70.484612,21.435223 69.302307,21.388496 
	C69.426933,20.550005 69.936134,19.849468 70.445335,19.148933 
	C70.969627,19.650749 71.493919,20.152563 72.049149,20.953571 
z"/>
<path fill="#232A31" opacity="1.000000" stroke="none" 
	d="
M60.603313,32.170601 
	C61.048946,32.548840 61.281342,33.043129 61.376938,33.802521 
	C60.956783,33.473965 60.673428,32.880306 60.603313,32.170601 
z"/>
<path fill="#232A31" opacity="1.000000" stroke="none" 
	d="
M76.987320,22.740089 
	C76.452362,22.798199 75.908577,22.567186 75.212166,22.054214 
	C75.699188,21.998493 76.338837,22.224728 76.987320,22.740089 
z"/>
<path fill="#F3F3F4" opacity="1.000000" stroke="none" 
	d="
M61.717537,58.947899 
	C67.371902,58.546341 72.775398,58.389378 78.549622,58.138672 
	C82.258423,62.787247 85.596497,67.529564 89.248138,72.438919 
	C89.590065,77.402748 89.618431,82.199547 89.633240,87.456131 
	C89.434471,87.957436 89.249275,87.998940 88.528915,88.264359 
	C76.022385,88.440269 64.051025,88.392273 52.079662,88.344269 
	C50.809387,79.429466 50.969521,70.851257 57.669479,63.731678 
	C59.019085,62.297546 60.205185,60.709549 61.717537,58.947899 
z"/>
<path fill="#000008" opacity="1.000000" stroke="none" 
	d="
M52.101803,88.804512 
	C64.051025,88.392273 76.022385,88.440269 88.453842,88.538963 
	C89.132423,91.016785 88.324608,92.144577 85.589890,92.105972 
	C75.625252,91.965302 65.655365,92.144608 55.693493,91.927032 
	C54.484837,91.900635 53.312901,90.193130 52.101803,88.804512 
z"/>
<path fill="#F3F3F4" opacity="1.000000" stroke="none" 
	d="
M58.918404,56.262741 
	C59.074059,56.214172 59.157997,56.528740 59.103451,57.099983 
	C58.925545,57.113071 58.886116,56.869473 58.918404,56.262741 
z"/>
<path fill="#E6E6E7" opacity="1.000000" stroke="none" 
	d="
M41.506714,23.458675 
	C42.041607,27.302885 42.240143,31.106117 42.404915,35.328007 
	C39.263622,41.262112 33.930080,44.174622 30.206837,42.389282 
	C23.637930,39.239414 21.283739,32.733421 24.305164,25.526623 
	C30.811701,19.372658 31.012573,18.377489 39.255043,23.069717 
	C39.787086,23.372599 40.527092,23.310183 41.506714,23.458675 
z"/>
<path fill="#0E161E" opacity="1.000000" stroke="none" 
	d="
M44.471687,25.455652 
	C44.522156,25.426571 44.421223,25.484734 44.471687,25.455652 
z"/>
</svg>