<svg width="48" height="48" viewBox="0 0 48 48" fill="none" xmlns="http://www.w3.org/2000/svg">
<path d="M18.18 18C18.6502 16.6633 19.5783 15.5362 20.7999 14.8183C22.0215 14.1003 23.4578 13.8379 24.8544 14.0774C26.2509 14.317 27.5176 15.043 28.4302 16.1271C29.3427 17.2111 29.8421 18.583 29.84 20C29.84 24 23.84 26 23.84 26M24 34H24.02M44 24C44 35.0457 35.0457 44 24 44C12.9543 44 4 35.0457 4 24C4 12.9543 12.9543 4 24 4C35.0457 4 44 12.9543 44 24Z" stroke="black" stroke-width="4" stroke-linecap="round" stroke-linejoin="round"/>
</svg>
