<svg version="1.1" id="Layer_1" xmlns="http://www.w3.org/2000/svg" xmlns:xlink="http://www.w3.org/1999/xlink" x="0px" y="0px"
	 width="100%" viewBox="0 0 100 100" enable-background="new 0 0 100 100" xml:space="preserve">
<path fill="#FEFEFE" opacity="1.000000" stroke="none" 
	d="
M64.000000,101.000000 
	C42.666672,101.000000 21.833342,101.000000 1.000008,101.000000 
	C1.000006,67.666679 1.000006,34.333351 1.000003,1.000022 
	C34.333317,1.000015 67.666634,1.000015 100.999969,1.000007 
	C100.999977,34.333309 100.999977,67.666618 100.999985,100.999969 
	C88.833336,101.000000 76.666664,101.000000 64.000000,101.000000 
M91.863281,55.150070 
	C90.941002,52.595272 90.701653,49.386501 88.984291,47.593052 
	C78.744896,36.900051 68.217094,26.480213 57.672291,16.084122 
	C53.426655,11.898362 48.739075,11.951303 44.478912,16.061199 
	C42.825047,17.656727 41.550053,19.644987 40.021515,21.555531 
	C39.122940,20.447603 38.827442,20.243624 38.766411,19.984432 
	C37.423344,14.280703 35.833363,13.194732 30.188540,13.691229 
	C25.373827,14.114714 24.399818,17.378189 25.035591,21.112053 
	C26.835651,31.683712 23.181391,39.754066 14.602680,45.858475 
	C14.069057,46.238186 13.659770,46.794029 13.198003,47.273098 
	C9.896153,50.698692 9.219188,54.541977 11.828270,58.582653 
	C14.335092,62.464958 18.036695,63.269417 22.314077,61.912266 
	C23.175030,61.639099 24.024954,61.331165 25.195227,60.931625 
	C25.195227,66.161934 25.139910,70.980934 25.207516,75.798203 
	C25.324179,84.111053 29.920698,88.767342 38.227501,88.858780 
	C46.712631,88.952171 55.200012,88.932144 63.685638,88.864815 
	C72.348473,88.796074 76.878128,84.229347 76.949844,75.596703 
	C76.990227,70.736366 76.957130,65.875427 76.957130,60.766361 
	C85.006973,63.902485 88.607079,62.583439 91.863281,55.150070 
z"/>
<path fill="#0C0C0C" opacity="1.000000" stroke="none" 
	d="
M91.780975,55.529732 
	C88.607079,62.583439 85.006973,63.902485 76.957130,60.766361 
	C76.957130,65.875427 76.990227,70.736366 76.949844,75.596703 
	C76.878128,84.229347 72.348473,88.796074 63.685638,88.864815 
	C55.200012,88.932144 46.712631,88.952171 38.227501,88.858780 
	C29.920698,88.767342 25.324179,84.111053 25.207516,75.798203 
	C25.139910,70.980934 25.195227,66.161934 25.195227,60.931625 
	C24.024954,61.331165 23.175030,61.639099 22.314077,61.912266 
	C18.036695,63.269417 14.335092,62.464958 11.828270,58.582653 
	C9.219188,54.541977 9.896153,50.698692 13.198003,47.273098 
	C13.659770,46.794029 14.069057,46.238186 14.602680,45.858475 
	C23.181391,39.754066 26.835651,31.683712 25.035591,21.112053 
	C24.399818,17.378189 25.373827,14.114714 30.188540,13.691229 
	C35.833363,13.194732 37.423344,14.280703 38.766411,19.984432 
	C38.827442,20.243624 39.122940,20.447603 40.021515,21.555531 
	C41.550053,19.644987 42.825047,17.656727 44.478912,16.061199 
	C48.739075,11.951303 53.426655,11.898362 57.672291,16.084122 
	C68.217094,26.480213 78.744896,36.900051 88.984291,47.593052 
	C90.701653,49.386501 90.941002,52.595272 91.780975,55.529732 
M50.601273,83.899040 
	C55.263020,83.897957 59.927574,83.997612 64.585747,83.868034 
	C69.450104,83.732735 71.905937,81.253891 71.981636,76.407288 
	C72.080421,70.082153 72.094139,63.752171 71.937683,57.429390 
	C71.904709,56.096771 71.307625,54.475063 70.406853,53.515835 
	C64.276756,46.987946 57.995789,40.601727 51.197163,33.585258 
	C44.151772,40.791477 37.629501,47.398926 31.217920,54.112087 
	C30.522156,54.840580 30.176071,56.176029 30.160959,57.236961 
	C30.068491,63.728760 29.978428,70.226662 30.167330,76.714378 
	C30.305418,81.456947 32.785568,83.477722 38.246593,83.546997 
	C38.246593,79.576263 38.216721,75.605423 38.255352,71.635254 
	C38.290936,67.978455 38.046490,64.270302 38.574993,60.680401 
	C39.118778,56.986706 41.765564,54.479874 45.570904,54.994183 
	C51.676273,55.819351 59.355812,51.389591 63.334850,59.711918 
	C63.842251,60.773167 62.823471,62.564110 62.511726,64.017006 
	C61.324913,63.281002 59.835606,62.786373 59.015079,61.758091 
	C57.372913,59.700119 45.322571,58.766670 43.819721,60.846832 
	C43.456989,61.348911 43.252785,62.081299 43.249218,62.709328 
	C43.209827,69.647392 43.224445,76.585762 43.224445,83.899040 
	C45.707390,83.899040 47.670609,83.899040 50.601273,83.899040 
M46.001709,21.419104 
	C36.597054,30.830933 27.202562,40.252964 17.779522,49.646351 
	C15.794471,51.625156 13.730606,53.728893 16.356005,56.384289 
	C18.894014,58.951290 21.079762,57.249050 23.134184,55.183971 
	C31.107979,47.168816 39.278053,39.343895 47.092186,31.177488 
	C50.072144,28.063189 51.997952,27.863171 55.065601,31.070818 
	C62.881409,39.243301 71.039574,47.087910 79.036247,55.088200 
	C81.029037,57.081890 83.212608,59.053604 85.807014,56.471321 
	C88.405045,53.885426 86.457924,51.727520 84.439781,49.719280 
	C74.771835,40.098797 65.055359,30.523998 55.555058,20.739811 
	C52.199986,17.284479 49.461658,17.256056 46.001709,21.419104 
M29.917360,26.042862 
	C29.970104,27.221300 30.022850,28.399738 30.084381,29.774519 
	C35.049374,27.330116 33.808231,23.277445 33.599751,19.703621 
	C33.573872,19.260025 31.482033,18.936951 29.917351,18.414358 
	C29.917351,21.251684 29.917351,23.201624 29.917360,26.042862 
z"/>
<path fill="#FAFAFA" opacity="1.000000" stroke="none" 
	d="
M50.117550,83.899040 
	C47.670609,83.899040 45.707390,83.899040 43.224445,83.899040 
	C43.224445,76.585762 43.209827,69.647392 43.249218,62.709328 
	C43.252785,62.081299 43.456989,61.348911 43.819721,60.846832 
	C45.322571,58.766670 57.372913,59.700119 59.015079,61.758091 
	C59.835606,62.786373 61.324913,63.281002 62.511726,64.017006 
	C62.823471,62.564110 63.842251,60.773167 63.334850,59.711918 
	C59.355812,51.389591 51.676273,55.819351 45.570904,54.994183 
	C41.765564,54.479874 39.118778,56.986706 38.574993,60.680401 
	C38.046490,64.270302 38.290936,67.978455 38.255352,71.635254 
	C38.216721,75.605423 38.246593,79.576263 38.246593,83.546997 
	C32.785568,83.477722 30.305418,81.456947 30.167330,76.714378 
	C29.978428,70.226662 30.068491,63.728760 30.160959,57.236961 
	C30.176071,56.176029 30.522156,54.840580 31.217920,54.112087 
	C37.629501,47.398926 44.151772,40.791477 51.197163,33.585258 
	C57.995789,40.601727 64.276756,46.987946 70.406853,53.515835 
	C71.307625,54.475063 71.904709,56.096771 71.937683,57.429390 
	C72.094139,63.752171 72.080421,70.082153 71.981636,76.407288 
	C71.905937,81.253891 69.450104,83.732735 64.585747,83.868034 
	C59.927574,83.997612 55.263020,83.897957 50.117550,83.899040 
z"/>
<path fill="#F6F6F6" opacity="1.000000" stroke="none" 
	d="
M46.255802,21.161770 
	C49.461658,17.256056 52.199986,17.284479 55.555058,20.739811 
	C65.055359,30.523998 74.771835,40.098797 84.439781,49.719280 
	C86.457924,51.727520 88.405045,53.885426 85.807014,56.471321 
	C83.212608,59.053604 81.029037,57.081890 79.036247,55.088200 
	C71.039574,47.087910 62.881409,39.243301 55.065601,31.070818 
	C51.997952,27.863171 50.072144,28.063189 47.092186,31.177488 
	C39.278053,39.343895 31.107979,47.168816 23.134184,55.183971 
	C21.079762,57.249050 18.894014,58.951290 16.356005,56.384289 
	C13.730606,53.728893 15.794471,51.625156 17.779522,49.646351 
	C27.202562,40.252964 36.597054,30.830933 46.255802,21.161770 
z"/>
<path fill="#EEEEEE" opacity="1.000000" stroke="none" 
	d="
M29.917355,25.597212 
	C29.917351,23.201624 29.917351,21.251684 29.917351,18.414358 
	C31.482033,18.936951 33.573872,19.260025 33.599751,19.703621 
	C33.808231,23.277445 35.049374,27.330116 30.084381,29.774519 
	C30.022850,28.399738 29.970104,27.221300 29.917355,25.597212 
z"/>
</svg>