<svg version="1.1" id="Layer_1" xmlns="http://www.w3.org/2000/svg" xmlns:xlink="http://www.w3.org/1999/xlink" x="0px" y="0px"
	 width="100%" viewBox="0 0 100 100" enable-background="new 0 0 100 100" xml:space="preserve">
<path fill="#FCFCFC" opacity="1.000000" stroke="none" 
	d="
M68.000000,101.000000 
	C45.333332,101.000000 23.166666,101.000000 1.000000,101.000000 
	C1.000000,67.666664 1.000000,34.333332 1.000000,1.000000 
	C34.333332,1.000000 67.666664,1.000000 101.000000,1.000000 
	C101.000000,34.333332 101.000000,67.666664 101.000000,101.000000 
	C90.166664,101.000000 79.333336,101.000000 68.000000,101.000000 
M66.834328,86.003082 
	C66.835335,81.009521 66.962372,76.010429 66.743317,71.026543 
	C66.692444,69.869019 65.462311,68.763329 64.774788,67.633789 
	C64.116814,68.720566 62.940071,69.784393 62.890823,70.898079 
	C62.679790,75.670288 62.800858,80.457191 62.800858,85.352066 
	C50.619720,85.352066 38.945007,85.352066 27.356838,85.352066 
	C27.356838,62.537468 27.356838,40.126720 27.356838,17.504013 
	C39.174686,17.504013 50.731541,17.504013 62.799389,17.504013 
	C62.799389,21.694515 62.639610,25.654284 62.891045,29.587767 
	C62.972694,30.865152 64.130013,32.073776 64.795326,33.313850 
	C65.475754,32.013584 66.648811,30.747887 66.742950,29.406473 
	C67.010315,25.596754 66.767220,21.754459 66.857994,17.928143 
	C66.940567,14.447595 65.660896,12.774215 61.885105,12.824978 
	C50.568211,12.977126 39.247089,12.958899 27.929523,12.834099 
	C24.268610,12.793729 22.876757,14.281889 22.887409,17.871702 
	C22.954084,40.342926 22.942570,62.814491 22.898905,85.285828 
	C22.892527,88.568008 24.106569,90.181480 27.591881,90.154236 
	C39.243019,90.063164 50.897709,90.229965 62.544083,89.977409 
	C63.979927,89.946274 65.373787,87.979050 66.834328,86.003082 
M71.488708,53.818165 
	C76.150627,53.818165 80.812553,53.818165 85.474472,53.818165 
	C85.667168,54.311512 85.859856,54.804859 86.052544,55.298206 
	C83.096931,57.970814 80.012650,60.521320 77.277657,63.403309 
	C76.607796,64.109177 77.080559,65.899368 77.027992,67.191040 
	C78.168732,66.917702 79.655067,67.009262 80.392876,66.310486 
	C84.494537,62.425789 88.363533,58.296776 92.417084,54.359398 
	C94.614021,52.225437 94.311440,50.491451 92.240311,48.485073 
	C88.420418,44.784607 84.823532,40.849751 80.925835,37.236843 
	C79.986473,36.366119 78.234184,36.372395 76.855743,35.975361 
	C77.137589,37.391319 76.951958,39.241936 77.788750,40.141888 
	C80.318016,42.862057 83.244095,45.213264 86.015503,47.708282 
	C85.722061,48.141361 85.428612,48.574444 85.135170,49.007523 
	C84.546478,49.062637 83.957840,49.165257 83.369095,49.165836 
	C72.064072,49.177010 60.757828,49.097847 49.455463,49.272118 
	C47.959023,49.295189 46.482285,50.596130 44.996422,51.305248 
	C46.512573,52.143547 48.003765,53.647816 49.549160,53.705727 
	C56.521870,53.966999 63.509933,53.818665 71.488708,53.818165 
z"/>
<path fill="#040404" opacity="1.000000" stroke="none" 
	d="
M66.810715,86.456047 
	C65.373787,87.979050 63.979927,89.946274 62.544083,89.977409 
	C50.897709,90.229965 39.243019,90.063164 27.591881,90.154236 
	C24.106569,90.181480 22.892527,88.568008 22.898905,85.285828 
	C22.942570,62.814491 22.954084,40.342926 22.887409,17.871702 
	C22.876757,14.281889 24.268610,12.793729 27.929523,12.834099 
	C39.247089,12.958899 50.568211,12.977126 61.885105,12.824978 
	C65.660896,12.774215 66.940567,14.447595 66.857994,17.928143 
	C66.767220,21.754459 67.010315,25.596754 66.742950,29.406473 
	C66.648811,30.747887 65.475754,32.013584 64.795326,33.313850 
	C64.130013,32.073776 62.972694,30.865152 62.891045,29.587767 
	C62.639610,25.654284 62.799389,21.694515 62.799389,17.504013 
	C50.731541,17.504013 39.174686,17.504013 27.356838,17.504013 
	C27.356838,40.126720 27.356838,62.537468 27.356838,85.352066 
	C38.945007,85.352066 50.619720,85.352066 62.800858,85.352066 
	C62.800858,80.457191 62.679790,75.670288 62.890823,70.898079 
	C62.940071,69.784393 64.116814,68.720566 64.774788,67.633789 
	C65.462311,68.763329 66.692444,69.869019 66.743317,71.026543 
	C66.962372,76.010429 66.835335,81.009521 66.810715,86.456047 
z"/>
<path fill="#181818" opacity="1.000000" stroke="none" 
	d="
M70.990585,53.818047 
	C63.509933,53.818665 56.521870,53.966999 49.549160,53.705727 
	C48.003765,53.647816 46.512573,52.143547 44.996422,51.305252 
	C46.482285,50.596130 47.959023,49.295189 49.455463,49.272118 
	C60.757828,49.097847 72.064072,49.177010 83.369095,49.165836 
	C83.957840,49.165257 84.546478,49.062637 85.135170,49.007523 
	C85.428612,48.574444 85.722061,48.141361 86.015503,47.708282 
	C83.244095,45.213264 80.318016,42.862057 77.788750,40.141888 
	C76.951958,39.241936 77.137589,37.391319 76.855743,35.975365 
	C78.234184,36.372395 79.986473,36.366119 80.925835,37.236843 
	C84.823532,40.849751 88.420418,44.784607 92.240311,48.485073 
	C94.311440,50.491451 94.614021,52.225437 92.417084,54.359398 
	C88.363533,58.296776 84.494537,62.425789 80.392876,66.310486 
	C79.655067,67.009262 78.168732,66.917702 77.027985,67.191040 
	C77.080559,65.899368 76.607796,64.109177 77.277657,63.403309 
	C80.012650,60.521320 83.096931,57.970814 86.052544,55.298206 
	C85.859856,54.804859 85.667168,54.311512 85.474472,53.818165 
	C80.812553,53.818165 76.150627,53.818165 70.990585,53.818047 
z"/>
</svg>