<?xml version="1.0" encoding="UTF-8"?>
<svg version="1.1" xmlns="http://www.w3.org/2000/svg" width="300" height="256">
<path d="M0 0 C2.52096309 2.2275585 4.98034211 4.50638231 7.42578125 6.81640625 C8.17601562 7.5021875 8.92625 8.18796875 9.69921875 8.89453125 C25.98970564 24.32762409 36.54719771 45.38249626 42.42578125 66.81640625 C42.93431641 68.57791016 42.93431641 68.57791016 43.453125 70.375 C51.37949267 103.7241875 43.69917207 138.85763396 26.42578125 167.81640625 C21.49702501 175.46447627 15.66316104 182.21338695 9.42578125 188.81640625 C8.74 189.56664062 8.05421875 190.316875 7.34765625 191.08984375 C-8.08543659 207.38033064 -29.14030876 217.93782271 -50.57421875 223.81640625 C-51.74855469 224.15542969 -52.92289063 224.49445313 -54.1328125 224.84375 C-87.482 232.77011767 -122.61544646 225.08979707 -151.57421875 207.81640625 C-159.22228877 202.88765001 -165.97119945 197.05378604 -172.57421875 190.81640625 C-173.32445312 190.130625 -174.0746875 189.44484375 -174.84765625 188.73828125 C-191.13814314 173.30518841 -201.69563521 152.25031624 -207.57421875 130.81640625 C-207.91324219 129.64207031 -208.25226563 128.46773437 -208.6015625 127.2578125 C-216.52793017 93.908625 -208.84760957 58.77517854 -191.57421875 29.81640625 C-186.64546251 22.16833623 -180.81159854 15.41942555 -174.57421875 8.81640625 C-173.8884375 8.06617188 -173.20265625 7.3159375 -172.49609375 6.54296875 C-157.06300091 -9.74751814 -136.00812874 -20.30501021 -114.57421875 -26.18359375 C-113.39988281 -26.52261719 -112.22554688 -26.86164062 -111.015625 -27.2109375 C-72.53579317 -36.35674638 -29.92130312 -25.38089294 0 0 Z " fill="#263148" transform="translate(232.57421875,29.18359375)"/>
<path d="M0 0 C9.94812969 8.04747076 14.89682939 18.83757326 18 31 C18.1750708 31.60875977 18.3501416 32.21751953 18.53051758 32.84472656 C21.4268451 46.1410237 19.84825468 62.40091713 15 75 C14.649375 75.91523438 14.29875 76.83046875 13.9375 77.7734375 C8.9262034 89.08365552 -0.12202824 97.45161845 -11.26953125 102.47265625 C-24.67122673 107.59641416 -38.39878896 108.15474977 -51.81640625 102.6015625 C-62.13828462 97.40896111 -70.02000463 90.27382549 -75.08984375 79.734375 C-75.8811918 77.81599275 -75.8811918 77.81599275 -78 77 C-78.37125 78.08474609 -78.37125 78.08474609 -78.75 79.19140625 C-83.29269411 89.39827209 -93.03637617 95.3591681 -102.8125 99.8125 C-113.96560135 103.96757697 -126.89591217 102.81078593 -138 99 C-141.58261731 97.29900943 -144.78253793 95.31201699 -148 93 C-148.63550781 92.55914062 -149.27101563 92.11828125 -149.92578125 91.6640625 C-158.60892638 85.00249218 -164.54154851 73.60548193 -166.58203125 62.96484375 C-168.58591778 43.95601355 -167.95272891 28.06785561 -157 12 C-156.29875 10.96875 -155.5975 9.9375 -154.875 8.875 C-148.79199391 1.9874673 -139.87878362 -2.91931535 -131 -5 C-130.071875 -5.226875 -129.14375 -5.45375 -128.1875 -5.6875 C-113.88917447 -7.08929662 -101.19426801 -5.03535122 -89.62109375 3.8203125 C-84.75055004 7.91253209 -80.71619493 12.18543196 -78 18 C-78 18.66 -78 19.32 -78 20 C-77.34 20 -76.68 20 -76 20 C-75.7215625 18.7934375 -75.7215625 18.7934375 -75.4375 17.5625 C-71.02301939 6.62226544 -61.04157748 -2.21749845 -50.44921875 -7.03515625 C-33.80842579 -13.59062014 -14.27723092 -10.63088777 0 0 Z " fill="#689BD5" transform="translate(221,67)"/>
<path d="M0 0 C5.87388925 5.20640184 10.4393903 11.26651969 11.22241211 19.2746582 C11.76912391 31.40225445 11.96674892 42.81147496 4.3125 52.875 C-2.66796933 60.22564574 -11.85958482 63.04137337 -21.75 63.375 C-32.5989484 63.15664193 -39.99523935 60.04093869 -47.83203125 52.515625 C-55.87669704 43.18091371 -56.66203188 32.95126523 -56.17041016 21.15234375 C-55.47430902 12.36032716 -50.40375141 5.73504109 -44 0 C-30.76102035 -9.47291738 -13.08267904 -9.92676962 0 0 Z " fill="#263149" transform="translate(210,87)"/>
<path d="M0 0 C6.14516532 5.12304857 9.49415639 12.32236753 10.34765625 20.21484375 C10.6088447 29.9469526 8.88284913 37.55691002 2.73828125 45.2109375 C-3.29831236 51.42388104 -10.87009719 54.20419548 -19.42114258 54.43066406 C-27.75894708 54.45513817 -33.96602793 53.95837376 -41 49 C-42.3921875 48.13375 -42.3921875 48.13375 -43.8125 47.25 C-51.06947286 39.78568505 -52.35623999 31.57394324 -52.38061523 21.57055664 C-52.18937196 12.5436817 -49.22093097 6.84077629 -42.75 0.5625 C-30.57285519 -9.28666124 -12.58475325 -9.02340813 0 0 Z " fill="#263149" transform="translate(125,91)"/>
<path d="M0 0 C3 0.625 3 0.625 5.1875 3.0625 C8.92988751 6.47223084 11.75049383 6.30015218 16.671875 6.484375 C19 6.625 19 6.625 20 7.625 C20 12.575 20 17.525 20 22.625 C59.93 22.625 99.86 22.625 141 22.625 C141 17.675 141 12.725 141 7.625 C142.68207552 5.94292448 144.94685227 6.46121409 147.25 6.375 C152.62017388 5.96617386 154.38124719 4.65732456 158 0.625 C161 0 161 0 164 0.625 C167.36996335 3.11584248 168.81810427 4.51088865 169.5 8.6875 C168.92701746 12.05377241 168.6192182 13.41503464 166 15.625 C162.15584159 16.81660749 159.1447933 17.19739665 155.5 15.375 C154 13.625 154 13.625 154 10.625 C151.03 10.625 148.06 10.625 145 10.625 C145.01160156 11.69621094 145.02320313 12.76742187 145.03515625 13.87109375 C145.04453299 15.26822743 145.05363331 16.66536299 145.0625 18.0625 C145.07087891 18.76955078 145.07925781 19.47660156 145.08789062 20.20507812 C145.09653588 22.01193559 145.05220011 23.81887603 145 25.625 C143.33639374 27.28860626 141.35228517 26.75106068 139.06506348 26.75198364 C137.99653641 26.75480347 136.92800934 26.75762329 135.82710266 26.76052856 C134.64472519 26.75850433 133.46234772 26.7564801 132.24414062 26.75439453 C131.00689743 26.75614685 129.76965424 26.75789917 128.49491882 26.75970459 C125.09210559 26.76336286 121.6893528 26.76248962 118.28654289 26.7593255 C114.73289786 26.75680159 111.17925548 26.75913953 107.62561035 26.76071167 C101.65681492 26.76253327 95.68803184 26.7601273 89.71923828 26.75537109 C82.80905432 26.74992849 75.89889985 26.75169115 68.9887166 26.7571975 C63.06600965 26.76172889 57.14331159 26.76237905 51.22060347 26.75975883 C47.67874639 26.7581962 44.13690319 26.75800191 40.595047 26.76129532 C36.64863937 26.76470828 32.70226504 26.75998386 28.75585938 26.75439453 C26.98229317 26.75743088 26.98229317 26.75743088 25.17289734 26.76052856 C24.10437027 26.75770874 23.0358432 26.75488892 21.93493652 26.75198364 C21.00061546 26.75160662 20.0662944 26.75122959 19.10366058 26.75084114 C17 26.625 17 26.625 16 25.625 C15.92686433 23.09450598 15.90752473 20.59195163 15.9375 18.0625 C15.94201172 17.35158203 15.94652344 16.64066406 15.95117188 15.90820312 C15.96299136 14.14709987 15.98092737 12.38603964 16 10.625 C11.95283899 10.88157195 11.95283899 10.88157195 8 11.625 C7.505 12.285 7.01 12.945 6.5 13.625 C4.68724021 16.04201305 3.966504 16.08826815 1.0625 16.5625 C-1.58626306 16.74752389 -2.92097625 16.65539375 -5.4375 15.6875 C-7.81300083 12.5518389 -8.44080396 9.53143505 -8 5.625 C-5.60540961 2.14195943 -4.14822958 0.8642145 0 0 Z " fill="#D6D6D6" transform="translate(69,184.375)"/>
</svg>
