<svg version="1.1" id="Layer_1" xmlns="http://www.w3.org/2000/svg" xmlns:xlink="http://www.w3.org/1999/xlink" x="0px" y="0px"
	 width="100%" viewBox="0 0 100 100" enable-background="new 0 0 100 100" xml:space="preserve">
<path fill="#FCFCFC" opacity="1.000000" stroke="none" 
	d="
M60.000000,101.000000 
	C40.000004,101.000000 20.500008,101.000000 1.000008,101.000000 
	C1.000005,67.666679 1.000005,34.333351 1.000003,1.000021 
	C34.333317,1.000014 67.666634,1.000014 100.999969,1.000007 
	C100.999977,34.333313 100.999977,67.666626 100.999985,100.999969 
	C87.500000,101.000000 74.000000,101.000000 60.000000,101.000000 
M88.266579,58.494236 
	C88.265358,50.672943 88.376160,42.849560 88.230164,35.030968 
	C88.094711,27.776657 83.424644,22.910721 76.461472,22.874104 
	C58.156860,22.777842 39.851135,22.785669 21.546429,22.873322 
	C14.976518,22.904779 9.985612,27.465538 9.840733,34.026405 
	C9.576288,46.001747 9.576271,57.991272 9.840503,69.966621 
	C9.985419,76.534416 14.968595,81.096573 21.539349,81.128105 
	C39.844044,81.215965 58.149719,81.215126 76.454422,81.126900 
	C83.025620,81.095222 87.765587,76.530907 88.195312,69.971428 
	C88.423309,66.491203 88.255638,62.985058 88.266579,58.494236 
z"/>
<path fill="#090909" opacity="1.000000" stroke="none" 
	d="
M88.266571,58.992424 
	C88.255638,62.985058 88.423309,66.491203 88.195312,69.971428 
	C87.765587,76.530907 83.025620,81.095222 76.454422,81.126900 
	C58.149719,81.215126 39.844044,81.215965 21.539349,81.128105 
	C14.968595,81.096573 9.985419,76.534416 9.840503,69.966621 
	C9.576271,57.991272 9.576288,46.001747 9.840733,34.026405 
	C9.985612,27.465538 14.976518,22.904779 21.546429,22.873322 
	C39.851135,22.785669 58.156860,22.777842 76.461472,22.874104 
	C83.424644,22.910721 88.094711,27.776657 88.230164,35.030968 
	C88.376160,42.849560 88.265358,50.672943 88.266571,58.992424 
M44.663292,53.899910 
	C35.668934,48.196533 26.674578,42.493153 17.105240,36.425175 
	C17.105240,47.554226 17.160872,57.540722 17.076006,67.526024 
	C17.044998,71.174515 18.502388,73.331299 22.254105,73.340866 
	C40.065456,73.386276 57.877018,73.378159 75.688423,73.344841 
	C78.773666,73.339066 80.849792,71.915802 80.865822,68.584229 
	C80.915871,58.174110 80.884193,47.763596 80.884193,36.420147 
	C71.078316,42.634865 61.967861,48.305305 52.982063,54.166847 
	C50.283024,55.927460 47.897682,56.496723 44.663292,53.899910 
M32.579117,30.610878 
	C29.972179,30.610878 27.365242,30.610878 24.758305,30.610878 
	C32.122391,36.658077 39.479713,41.484173 47.030476,45.985806 
	C48.156113,46.656895 50.498684,46.317566 51.754463,45.568054 
	C58.604534,41.479576 65.300110,37.131157 72.015686,32.820503 
	C72.561005,32.470470 72.857384,31.732613 73.686226,30.610909 
	C59.814884,30.610909 46.684536,30.610909 32.579117,30.610878 
z"/>
<path fill="#FAFAFA" opacity="1.000000" stroke="none" 
	d="
M44.983459,54.085510 
	C47.897682,56.496723 50.283024,55.927460 52.982063,54.166847 
	C61.967861,48.305305 71.078316,42.634865 80.884193,36.420147 
	C80.884193,47.763596 80.915871,58.174110 80.865822,68.584229 
	C80.849792,71.915802 78.773666,73.339066 75.688423,73.344841 
	C57.877018,73.378159 40.065456,73.386276 22.254105,73.340866 
	C18.502388,73.331299 17.044998,71.174515 17.076006,67.526024 
	C17.160872,57.540722 17.105240,47.554226 17.105240,36.425175 
	C26.674578,42.493153 35.668934,48.196533 44.983459,54.085510 
z"/>
<path fill="#F5F5F5" opacity="1.000000" stroke="none" 
	d="
M33.066650,30.610893 
	C46.684536,30.610909 59.814884,30.610909 73.686226,30.610909 
	C72.857384,31.732613 72.561005,32.470470 72.015686,32.820503 
	C65.300110,37.131157 58.604534,41.479576 51.754463,45.568054 
	C50.498684,46.317566 48.156113,46.656895 47.030476,45.985806 
	C39.479713,41.484173 32.122391,36.658077 24.758305,30.610878 
	C27.365242,30.610878 29.972179,30.610878 33.066650,30.610893 
z"/>
</svg>