<svg version="1.1" id="Layer_1" xmlns="http://www.w3.org/2000/svg" xmlns:xlink="http://www.w3.org/1999/xlink" x="0px" y="0px"
	 width="100%" viewBox="0 0 100 100" enable-background="new 0 0 100 100" xml:space="preserve">
<path fill="#FCFCFC" opacity="1.000000" stroke="none" 
	d="
M61.000000,101.000000 
	C40.666672,101.000000 20.833340,101.000000 1.000008,101.000000 
	C1.000005,67.666679 1.000005,34.333351 1.000003,1.000021 
	C34.333317,1.000014 67.666634,1.000014 100.999969,1.000007 
	C100.999977,34.333313 100.999977,67.666626 100.999985,100.999969 
	C87.833336,101.000000 74.666664,101.000000 61.000000,101.000000 
M54.225014,87.180992 
	C56.948410,85.525566 61.501091,84.330696 62.055363,82.129143 
	C63.781620,75.272568 68.477623,76.217438 73.209785,76.272667 
	C75.872902,76.303749 78.538353,76.342140 81.199684,76.267555 
	C85.011810,76.160721 86.303802,73.954964 85.147972,70.596779 
	C84.414818,68.466637 83.408371,65.813141 81.688202,64.758957 
	C77.019585,61.897842 76.950493,57.817410 76.900436,53.154888 
	C76.834923,47.053123 77.178947,40.601082 75.352295,34.943707 
	C72.482269,26.054907 65.116928,21.557072 55.725426,20.591593 
	C55.608032,19.569746 55.692863,18.683754 55.386539,17.964310 
	C54.643005,16.218029 53.717548,14.549211 52.865391,12.849181 
	C51.861427,14.492388 50.965973,16.216587 49.819088,17.753117 
	C48.905373,18.977262 47.851517,20.637541 46.572662,20.957977 
	C39.809410,22.652609 34.719604,26.199368 31.220528,32.367500 
	C27.185452,39.480492 28.206593,47.140427 28.199947,54.686619 
	C28.196463,58.644699 28.160641,62.141644 24.054573,64.460213 
	C22.502918,65.336388 21.399937,67.459694 20.669962,69.249985 
	C18.801241,73.833130 20.502514,76.210724 25.435093,76.271637 
	C29.096769,76.316856 32.766609,76.417320 36.419418,76.230835 
	C39.190609,76.089363 40.854668,76.658813 41.928780,79.663345 
	C43.764847,84.799263 47.564888,87.705727 54.225014,87.180992 
z"/>
<path fill="#1B1B1B" opacity="1.000000" stroke="none" 
	d="
M53.794827,87.190735 
	C47.564888,87.705727 43.764847,84.799263 41.928780,79.663345 
	C40.854668,76.658813 39.190609,76.089363 36.419418,76.230835 
	C32.766609,76.417320 29.096769,76.316856 25.435093,76.271637 
	C20.502514,76.210724 18.801241,73.833130 20.669962,69.249985 
	C21.399937,67.459694 22.502918,65.336388 24.054573,64.460213 
	C28.160641,62.141644 28.196463,58.644699 28.199947,54.686619 
	C28.206593,47.140427 27.185452,39.480492 31.220528,32.367500 
	C34.719604,26.199368 39.809410,22.652609 46.572662,20.957977 
	C47.851517,20.637541 48.905373,18.977262 49.819088,17.753117 
	C50.965973,16.216587 51.861427,14.492388 52.865391,12.849182 
	C53.717548,14.549211 54.643005,16.218029 55.386539,17.964310 
	C55.692863,18.683754 55.608032,19.569746 55.725426,20.591593 
	C65.116928,21.557072 72.482269,26.054907 75.352295,34.943707 
	C77.178947,40.601082 76.834923,47.053123 76.900436,53.154888 
	C76.950493,57.817410 77.019585,61.897842 81.688202,64.758957 
	C83.408371,65.813141 84.414818,68.466637 85.147972,70.596779 
	C86.303802,73.954964 85.011810,76.160721 81.199684,76.267555 
	C78.538353,76.342140 75.872902,76.303749 73.209785,76.272667 
	C68.477623,76.217438 63.781620,75.272568 62.055363,82.129143 
	C61.501091,84.330696 56.948410,85.525566 53.794827,87.190735 
M40.124012,30.537363 
	C36.159466,34.048161 34.224323,38.306931 34.556534,43.738476 
	C34.851032,48.553436 35.153954,53.482906 34.428619,58.204437 
	C33.951942,61.307316 31.694506,64.151314 30.147573,67.065071 
	C29.746681,67.820183 29.018995,68.401779 27.945740,69.630592 
	C44.840855,69.630592 60.936035,69.630592 77.031212,69.630592 
	C77.475655,69.231522 77.920097,68.832443 78.364540,68.433372 
	C69.364700,65.469208 71.226570,58.609806 71.075462,52.441952 
	C70.961761,47.800972 71.589134,42.921066 70.374687,38.569473 
	C66.822273,25.840490 50.929104,22.402363 40.124012,30.537363 
M53.229679,81.874420 
	C54.992077,80.440491 56.754471,79.006561 58.516869,77.572632 
	C58.212177,77.211121 57.907482,76.849609 57.602791,76.488098 
	C54.410847,76.488098 51.218903,76.488098 47.949265,76.488098 
	C47.201107,80.532951 50.022968,81.052727 53.229679,81.874420 
z"/>
<path fill="#F8F8F8" opacity="1.000000" stroke="none" 
	d="
M40.394066,30.271475 
	C50.929104,22.402363 66.822273,25.840490 70.374687,38.569473 
	C71.589134,42.921066 70.961761,47.800972 71.075462,52.441952 
	C71.226570,58.609806 69.364700,65.469208 78.364540,68.433372 
	C77.920097,68.832443 77.475655,69.231522 77.031212,69.630592 
	C60.936035,69.630592 44.840855,69.630592 27.945740,69.630592 
	C29.018995,68.401779 29.746681,67.820183 30.147573,67.065071 
	C31.694506,64.151314 33.951942,61.307316 34.428619,58.204437 
	C35.153954,53.482906 34.851032,48.553436 34.556534,43.738476 
	C34.224323,38.306931 36.159466,34.048161 40.394066,30.271475 
z"/>
<path fill="#D0D0D0" opacity="1.000000" stroke="none" 
	d="
M52.839226,81.895462 
	C50.022968,81.052727 47.201107,80.532951 47.949265,76.488098 
	C51.218903,76.488098 54.410847,76.488098 57.602791,76.488098 
	C57.907482,76.849609 58.212177,77.211121 58.516869,77.572632 
	C56.754471,79.006561 54.992077,80.440491 52.839226,81.895462 
z"/>
</svg>