<?xml version="1.0" encoding="UTF-8"?>
<svg version="1.1" xmlns="http://www.w3.org/2000/svg" width="200" height="200">
<path d="M0 0 C66 0 132 0 200 0 C200 66 200 132 200 200 C134 200 68 200 0 200 C0 134 0 68 0 0 Z " fill="#FDFDFD" transform="translate(0,0)"/>
<path d="M0 0 C3.28686271 2.85048321 6.28331278 5.92960092 9.22265625 9.1328125 C10.063125 10.01839844 10.90359375 10.90398438 11.76953125 11.81640625 C25.52011671 27.34349353 30.41118231 47.76157371 29.22265625 68.1328125 C27.69011326 84.78869185 20.77378043 100.93482536 9.22265625 113.1328125 C8.59875 113.8340625 7.97484375 114.5353125 7.33203125 115.2578125 C-5.27744734 128.78993586 -24.85121295 137.45798799 -43.19921875 138.41015625 C-56.22887785 138.81376024 -67.86777632 136.51430959 -79.77734375 131.1328125 C-80.710625 130.74738281 -81.64390625 130.36195313 -82.60546875 129.96484375 C-91.57041497 125.96347377 -98.03708045 120.10685553 -104.77734375 113.1328125 C-105.53015625 112.36324219 -106.28296875 111.59367187 -107.05859375 110.80078125 C-120.11897653 96.0041968 -125.53172575 76.24043845 -125.0625 56.859375 C-123.22044905 32.78654482 -112.06686787 14.68008921 -94.15625 -0.90625 C-68.13220393 -22.35792673 -26.01521134 -20.87649048 0 0 Z " fill="#151515" transform="translate(147.77734375,38.8671875)"/>
<path d="M0 0 C2.19402124 1.27846959 2.19402124 1.27846959 4.609375 2.08984375 C19.93539037 8.72041028 31.44484052 23.47089948 38.21875 38.21875 C45.2084659 56.33809617 45.22106314 74.2765349 38.21875 92.21875 C37.84621094 93.21519531 37.47367188 94.21164063 37.08984375 95.23828125 C33.98469983 102.80098369 29.29760863 108.87847551 24.21875 115.21875 C21.21875 114.21875 21.21875 114.21875 19.9296875 111.8125 C19.48882812 110.7915625 19.04796875 109.770625 18.59375 108.71875 C13.9824788 99.08325794 6.53233732 91.7874472 -3.4296875 87.734375 C-4.65945312 87.31671875 -5.88921875 86.8990625 -7.15625 86.46875 C-8.40148437 86.04078125 -9.64671875 85.6128125 -10.9296875 85.171875 C-11.87070313 84.85734375 -12.81171875 84.5428125 -13.78125 84.21875 C-13.01941406 83.45949219 -12.25757812 82.70023437 -11.47265625 81.91796875 C-1.15534477 71.57070861 1.7933415 62.98042484 2.21875 48.21875 C1.55875 48.21875 0.89875 48.21875 0.21875 48.21875 C0.11820312 47.67347656 0.01765625 47.12820312 -0.0859375 46.56640625 C-1.98911454 38.94066263 -6.48130747 34.70015242 -12.78125 30.21875 C-15.47474564 28.85687018 -17.85793864 28.03078093 -20.78125 27.21875 C-20.78125 26.55875 -20.78125 25.89875 -20.78125 25.21875 C-32.1790991 25.24989166 -41.3238325 26.54404977 -50.23046875 34.37109375 C-54.34180716 38.68910626 -56.7780528 42.32496647 -57.78125 48.21875 C-58.44125 48.21875 -59.10125 48.21875 -59.78125 48.21875 C-59.39381049 61.66290085 -57.05614844 71.1899805 -47.78125 81.21875 C-46.79125 81.71375 -46.79125 81.71375 -45.78125 82.21875 C-45.78125 82.87875 -45.78125 83.53875 -45.78125 84.21875 C-46.92400391 84.63833984 -46.92400391 84.63833984 -48.08984375 85.06640625 C-61.16704444 90.14382125 -71.83886875 98.27811799 -77.78125 111.28125 C-78.46470139 112.92018441 -79.13779312 114.56370467 -79.78125 116.21875 C-92.99094356 103.80964393 -100.67752173 87.51296714 -101.27832031 69.29394531 C-101.2986617 53.58361368 -97.38407967 40.79961107 -89.78125 27.21875 C-89.245 26.24164063 -88.70875 25.26453125 -88.15625 24.2578125 C-87.7025 23.58492187 -87.24875 22.91203125 -86.78125 22.21875 C-86.12125 22.21875 -85.46125 22.21875 -84.78125 22.21875 C-84.554375 21.661875 -84.3275 21.105 -84.09375 20.53125 C-82.3867047 17.52359876 -80.31339914 15.58575898 -77.78125 13.21875 C-77.23726562 12.68121094 -76.69328125 12.14367187 -76.1328125 11.58984375 C-57.38012659 -6.09465119 -23.12432649 -12.98763543 0 0 Z " fill="#FAFAFA" transform="translate(128.78125,33.78125)"/>
<path d="M0 0 C1.44681152 0.01522705 1.44681152 0.01522705 2.92285156 0.03076172 C16.99091463 0.33658918 27.60910928 3.9215464 37.9375 13.6875 C43.74738353 19.80587292 47.58160786 25.86185642 48.125 34.375 C39.23538354 40.81486829 31.29877818 46.19362415 20.5078125 48.69921875 C17.89034385 49.3099809 17.89034385 49.3099809 15.125 51.375 C12.78759766 51.6496582 12.78759766 51.6496582 10.0390625 51.67578125 C9.03230469 51.68544922 8.02554688 51.69511719 6.98828125 51.70507812 C-13.31946221 51.59484309 -30.00551436 47.59957137 -45.875 34.375 C-45.4425036 24.42758282 -39.21655257 16.97528898 -32.2265625 10.34765625 C-22.87509715 2.50298847 -12.00555644 -0.18330702 0 0 Z " fill="#FAFAFA" transform="translate(98.875,120.625)"/>
<path d="M0 0 C2.41679038 2.12658523 4.23725493 4.31567943 6 7 C6.61875 7.86625 7.2375 8.7325 7.875 9.625 C10.17525619 16.52576856 10.12721985 24.18674913 7.3125 30.9375 C3.0186498 39.10628819 -2.311446 43.10381533 -11 46 C-20.10238609 46.70122085 -27.31811917 46.01988505 -34.6875 40.4375 C-40.82588503 34.67924431 -43.29172689 28.28734263 -43.625 19.9375 C-43.23927296 10.80862677 -40.09954831 5.73515204 -33.5625 -0.4375 C-22.88055585 -9.2601895 -11.0660868 -7.36121271 0 0 Z " fill="#FAFAFA" transform="translate(117,70)"/>
<path d="M0 0 C0 0.66 0 1.32 0 2 C1.2065625 2.0309375 1.2065625 2.0309375 2.4375 2.0625 C9.67493453 3.96708803 15.89574736 9.84362105 20 16 C20.8125 19.875 20.8125 19.875 21 23 C21.66 23 22.32 23 23 23 C23 27.62 23 32.24 23 37 C22.67 37 22.34 37 22 37 C22 33.37 22 29.74 22 26 C21.01 26.495 21.01 26.495 20 27 C19.59270772 29.32156597 19.25561323 31.6568787 19 34 C18.67 34 18.34 34 18 34 C17.98582031 33.38253906 17.97164062 32.76507813 17.95703125 32.12890625 C17.53159426 24.57452514 15.70796058 18.56026404 10.13671875 13.2109375 C3.51024645 7.98696128 -2.72805939 5.36911162 -11.2265625 5.66015625 C-18.902111 6.60068121 -23.81115271 10.01682193 -28.5625 16 C-32.78534607 21.87526409 -33.59439905 26.92296265 -34 34 C-34.33 34 -34.66 34 -35 34 C-35 31.36 -35 28.72 -35 26 C-35.66 26 -36.32 26 -37 26 C-37.33 29.63 -37.66 33.26 -38 37 C-38.33 37 -38.66 37 -39 37 C-39 32.38 -39 27.76 -39 23 C-38.34 23 -37.68 23 -37 23 C-37.020625 22.05125 -37.04125 21.1025 -37.0625 20.125 C-36.14373596 14.004045 -31.45661039 9.91641519 -27 6 C-18.21346671 -0.32981357 -10.43225291 -0.76959243 0 0 Z " fill="#232323" transform="translate(108,59)"/>
<path d="M0 0 C8.77102996 7.51802568 11.7156053 23.01258714 13 34 C13.06515057 36.64511313 13.08591426 39.29168825 13.0625 41.9375 C13.05798828 42.62134766 13.05347656 43.30519531 13.04882812 44.00976562 C13.0371956 45.67321604 13.01926694 47.3366205 13 49 C12.67 49 12.34 49 12 49 C12 44.38 12 39.76 12 35 C11.01 35.495 11.01 35.495 10 36 C9.53101037 38.8159849 9.53101037 38.8159849 9.375 42.0625 C9.30023438 43.16722656 9.22546875 44.27195313 9.1484375 45.41015625 C9.09945312 46.26480469 9.05046875 47.11945313 9 48 C8.67 48 8.34 48 8 48 C7.96036133 47.43192627 7.92072266 46.86385254 7.87988281 46.27856445 C6.74476909 30.76795668 4.6063906 17.80996326 -3 4 C-2.01 3.34 -1.02 2.68 0 2 C0 1.34 0 0.68 0 0 Z " fill="#1C1C1C" transform="translate(164,58)"/>
<path d="M0 0 C0 0.33 0 0.66 0 1 C-7.92 1.495 -7.92 1.495 -16 2 C-16.33 3.65 -16.66 5.3 -17 7 C-18.67513695 7.98537468 -20.3580061 8.96182857 -22.08984375 9.84375 C-27.20133154 12.93782032 -30.95025006 18.49803963 -33 24 C-33.51027255 27.3267769 -33.80747823 30.64082711 -34 34 C-34.33 34 -34.66 34 -35 34 C-35 31.36 -35 28.72 -35 26 C-35.66 26 -36.32 26 -37 26 C-37.33 29.63 -37.66 33.26 -38 37 C-38.33 37 -38.66 37 -39 37 C-39 32.38 -39 27.76 -39 23 C-38.34 23 -37.68 23 -37 23 C-37.020625 22.05125 -37.04125 21.1025 -37.0625 20.125 C-36.14373596 14.004045 -31.45661039 9.91641519 -27 6 C-18.21346671 -0.32981357 -10.43225291 -0.76959243 0 0 Z " fill="#1A1A1A" transform="translate(108,59)"/>
<path d="M0 0 C6.41916089 1.28383218 9.78141397 5.34066617 14 10 C14.804375 10.886875 15.60875 11.77375 16.4375 12.6875 C18.11790203 15.17449501 18.66146639 17.03783089 19 20 C17.68 20.33 16.36 20.66 15 21 C14.5875 20.443125 14.175 19.88625 13.75 19.3125 C10.00200193 14.35978827 6.11148194 9.99464304 1.50390625 5.82421875 C0 4 0 4 0 0 Z " fill="#151515" transform="translate(146,41)"/>
<path d="M0 0 C4.2945786 2.89417254 6.27006284 4.66154295 7.375 9.8125 C7.60664718 11.20465411 7.82307336 12.59983914 8 14 C8.66 14 9.32 14 10 14 C10 18.62 10 23.24 10 28 C9.67 28 9.34 28 9 28 C9 24.37 9 20.74 9 17 C8.34 17.33 7.68 17.66 7 18 C6.59270772 20.32156597 6.25561323 22.6568787 6 25 C5.67 25 5.34 25 5 25 C4.98582031 24.38253906 4.97164062 23.76507813 4.95703125 23.12890625 C4.47013246 14.4831629 1.18679065 8.76406033 -4 2 C-2.68 1.34 -1.36 0.68 0 0 Z " fill="#202020" transform="translate(121,68)"/>
<path d="M0 0 C0.99 0.33 1.98 0.66 3 1 C3.10957031 1.75023438 3.21914062 2.50046875 3.33203125 3.2734375 C4.28092367 9.39880811 5.50773633 15.16957845 7.51171875 21.0390625 C8 23 8 23 7 25 C4 24 4 24 1.8125 20.9375 C-1.29729562 14.49324671 -0.30426544 6.96429789 0 0 Z " fill="#050505" transform="translate(70,84)"/>
<path d="M0 0 C2.56864728 1.28432364 2.946539 2.36634751 4 5 C4 9 4 9 2.3203125 10.703125 C1.59585938 11.21359375 0.87140625 11.7240625 0.125 12.25 C-0.95394531 13.03117188 -0.95394531 13.03117188 -2.0546875 13.828125 C-4 15 -4 15 -6 15 C-6 14.34 -6 13.68 -6 13 C-6.886875 13.309375 -7.77375 13.61875 -8.6875 13.9375 C-11.46709155 14.8290671 -14.13136375 15.49377007 -17 16 C-13.51253602 13.02539837 -10.08393961 11.04196981 -6 9 C-4.32963607 7.67130142 -2.66215268 6.33895632 -1 5 C-0.34 5 0.32 5 1 5 C0.67 3.35 0.34 1.7 0 0 Z " fill="#242424" transform="translate(146,150)"/>
<path d="M0 0 C0.66 0.33 1.32 0.66 2 1 C1.49202991 5.3177458 0.80317221 9.03302114 -1 13 C-4.81684226 11.44499019 -7.19195732 8.96404505 -10 6 C-9.67 5.01 -9.34 4.02 -9 3 C-8.2575 3.2475 -7.515 3.495 -6.75 3.75 C-5.38875 3.87375 -5.38875 3.87375 -4 4 C-1.66545339 2.16641665 -1.66545339 2.16641665 0 0 Z " fill="#080808" transform="translate(52,145)"/>
<path d="M0 0 C-2.39018107 3.5852716 -3.99809377 4.0974124 -7.9375 5.6875 C-8.99839844 6.12449219 -10.05929688 6.56148437 -11.15234375 7.01171875 C-14 8 -14 8 -17 8 C-17 5.75 -17 5.75 -16 3 C-11.04562958 -0.44651855 -5.48075927 -3.32760384 0 0 Z " fill="#101010" transform="translate(82,28)"/>
<path d="M0 0 C0.66 0.33 1.32 0.66 2 1 C2.375 3.26171875 2.375 3.26171875 2 6 C-0.625 8.01953125 -0.625 8.01953125 -4 9.8125 C-5.11375 10.41707031 -6.2275 11.02164063 -7.375 11.64453125 C-8.24125 12.09183594 -9.1075 12.53914063 -10 13 C-10 12.34 -10 11.68 -10 11 C-11.32 10.67 -12.64 10.34 -14 10 C-12.22970554 8.70759488 -10.45874502 7.41610207 -8.6875 6.125 C-7.70136719 5.40570313 -6.71523438 4.68640625 -5.69921875 3.9453125 C-3.82476885 2.5944065 -1.92247007 1.28164671 0 0 Z " fill="#1D1D1D" transform="translate(64,31)"/>
<path d="M0 0 C0.70125 0.7425 1.4025 1.485 2.125 2.25 C4.97718006 4.97817223 7.6763063 6.91302954 11 9 C10.06677104 12.22388187 9.58700229 13.66015657 6.625 15.375 C3.91676239 16.01981848 2.57614778 15.95412881 0 15 C1.98 14.67 3.96 14.34 6 14 C6 13.34 6 12.68 6 12 C5.01 11.67 4.02 11.34 3 11 C-1.08733624 6.00436681 -1.08733624 6.00436681 -0.75 2.125 C-0.5025 1.42375 -0.255 0.7225 0 0 Z " fill="#151515" transform="translate(77,104)"/>
<path d="M0 0 C1.03930664 0.01353516 1.03930664 0.01353516 2.09960938 0.02734375 C3.79572395 0.05073843 5.49165871 0.08660359 7.1875 0.125 C7.1875 0.455 7.1875 0.785 7.1875 1.125 C-0.7325 1.62 -0.7325 1.62 -8.8125 2.125 C-9.1425 3.775 -9.4725 5.425 -9.8125 7.125 C-13.52912762 9.57459548 -16.37616125 10.51644165 -20.8125 10.125 C-14.9486812 2.3763823 -9.74237918 -0.24239412 0 0 Z " fill="#2C2C2C" transform="translate(100.8125,58.875)"/>
<path d="M0 0 C1.28132813 0.00902344 2.56265625 0.01804688 3.8828125 0.02734375 C4.87023437 0.03894531 5.85765625 0.05054688 6.875 0.0625 C6.545 1.3825 6.215 2.7025 5.875 4.0625 C0.925 4.3925 -4.025 4.7225 -9.125 5.0625 C-9.125 3.7425 -9.125 2.4225 -9.125 1.0625 C-6.12186252 -0.43906874 -3.33432478 -0.03031204 0 0 Z " fill="#070707" transform="translate(101.125,59.9375)"/>
<path d="M0 0 C0.70125 0.12375 1.4025 0.2475 2.125 0.375 C1.64936589 4.65570699 -0.67811533 6.6754085 -3.875 9.375 C-7.1875 10.6875 -7.1875 10.6875 -9.875 11.375 C-9.60666595 6.81332123 -7.70007209 4.55006808 -4.5078125 1.53515625 C-2.875 0.375 -2.875 0.375 0 0 Z " fill="#101010" transform="translate(51.875,41.625)"/>
<path d="M0 0 C0.66 0.33 1.32 0.66 2 1 C2.64165788 6.26159459 1.20577001 8.68592849 -1.90625 12.6796875 C-2.2671875 13.11539063 -2.628125 13.55109375 -3 14 C-3.33 12.68 -3.66 11.36 -4 10 C-4.66 10 -5.32 10 -6 10 C-6 10.66 -6 11.32 -6 12 C-6.66 11.67 -7.32 11.34 -8 11 C-5.36 7.37 -2.72 3.74 0 0 Z " fill="#1D1D1D" transform="translate(162,136)"/>
<path d="M0 0 C-0.47566406 0.82757813 -0.47566406 0.82757813 -0.9609375 1.671875 C-2.12709975 4.28477989 -2.40045711 6.40579002 -2.625 9.25 C-2.69976562 10.14203125 -2.77453125 11.0340625 -2.8515625 11.953125 C-2.90054688 12.62859375 -2.94953125 13.3040625 -3 14 C-3.33 14 -3.66 14 -4 14 C-4 11.36 -4 8.72 -4 6 C-4.66 6 -5.32 6 -6 6 C-6.33 9.63 -6.66 13.26 -7 17 C-7.33 17 -7.66 17 -8 17 C-8 12.38 -8 7.76 -8 3 C-7.34 3 -6.68 3 -6 3 C-6 2.01 -6 1.02 -6 0 C-3.50907189 -1.24546405 -2.58919267 -0.7767578 0 0 Z " fill="#262626" transform="translate(77,79)"/>
<path d="M0 0 C4.57478244 2.0214155 7.61831569 4.31993178 11 8 C10.01 8 9.02 8 8 8 C7.01 9.485 7.01 9.485 6 11 C1.77202073 8.00518135 1.77202073 8.00518135 0 6 C-0.375 2.6875 -0.375 2.6875 0 0 Z " fill="#1A1A1A" transform="translate(139,34)"/>
<path d="M0 0 C3.25511789 0.56122722 4.99840071 1.33120095 7 4 C7.6875 6.6875 7.6875 6.6875 8 9 C6.68 9.33 5.36 9.66 4 10 C3.13342884 8.90554162 2.28207276 7.79902219 1.4375 6.6875 C0.96183594 6.07261719 0.48617187 5.45773438 -0.00390625 4.82421875 C-0.33261719 4.22222656 -0.66132813 3.62023438 -1 3 C-0.67 2.01 -0.34 1.02 0 0 Z " fill="#0F0F0F" transform="translate(157,52)"/>
<path d="M0 0 C1.2065625 0.0309375 1.2065625 0.0309375 2.4375 0.0625 C2.4375 1.0525 2.4375 2.0425 2.4375 3.0625 C-4.55510015 7.10536808 -4.55510015 7.10536808 -8.5 6.9375 C-10.5625 6.0625 -10.5625 6.0625 -11.5625 4.0625 C-10.99660156 3.85753906 -10.43070312 3.65257812 -9.84765625 3.44140625 C-9.11417969 3.17199219 -8.38070312 2.90257812 -7.625 2.625 C-6.89410156 2.35816406 -6.16320312 2.09132812 -5.41015625 1.81640625 C-1.01948925 0.02486559 -1.01948925 0.02486559 0 0 Z " fill="#090909" transform="translate(137.5625,162.9375)"/>
<path d="M0 0 C0.66 0 1.32 0 2 0 C2 4.62 2 9.24 2 14 C1.01 14.33 0.02 14.66 -1 15 C-1.33 14.67 -1.66 14.34 -2 14 C-1.9358534 11.83067876 -1.79900318 9.66328277 -1.625 7.5 C-1.53476563 6.3140625 -1.44453125 5.128125 -1.3515625 3.90625 C-1 1 -1 1 0 0 Z " fill="#040404" transform="translate(128,85)"/>
<path d="M0 0 C1.6875 1.25 1.6875 1.25 3.6875 3.25 C-2.7125 6.32692308 -2.7125 6.32692308 -5.75 5.9375 C-6.265625 5.710625 -6.78125 5.48375 -7.3125 5.25 C-7.3125 4.59 -7.3125 3.93 -7.3125 3.25 C-7.9725 2.59 -8.6325 1.93 -9.3125 1.25 C-2.94350775 -0.95465116 -2.94350775 -0.95465116 0 0 Z " fill="#202020" transform="translate(126.3125,167.75)"/>
<path d="M0 0 C0.66 0 1.32 0 2 0 C2 4.62 2 9.24 2 14 C0.68 14.33 -0.64 14.66 -2 15 C-1.85973717 12.68715544 -1.71264442 10.37472409 -1.5625 8.0625 C-1.48128906 6.77472656 -1.40007812 5.48695312 -1.31640625 4.16015625 C-1 1 -1 1 0 0 Z " fill="#010101" transform="translate(174,93)"/>
<path d="M0 0 C2.20892172 3.31338258 3.08787021 6.14098934 4 10 C3.67 10.66 3.34 11.32 3 12 C0 11 0 11 -1.75 8.125 C-3 5 -3 5 -2 2 C-1.34 2 -0.68 2 0 2 C0 1.34 0 0.68 0 0 Z " fill="#0C0C0C" transform="translate(74,97)"/>
<path d="M0 0 C2.475 0.99 2.475 0.99 5 2 C3.625 4 3.625 4 2 6 C1.34 6 0.68 6 0 6 C-0.66 6.66 -1.32 7.32 -2 8 C-3.65261839 9.02304948 -5.31791365 10.02616054 -7 11 C-5.5140084 6.40693504 -3.14985318 3.56430755 0 0 Z " fill="#252525" transform="translate(41,50)"/>
<path d="M0 0 C0.66 0.33 1.32 0.66 2 1 C-1.2990034 4.3989732 -4.71936769 7.52978744 -8.3515625 10.5703125 C-9.9783852 11.98125352 -11.49610471 13.45964664 -13 15 C-13.66 14.67 -14.32 14.34 -15 14 C-10.75802296 8.34403061 -5.5954014 4.28075369 0 0 Z " fill="#CCCCCC" transform="translate(59,40)"/>
<path d="M0 0 C3.37462715 0.54723683 5.08235 1.0549 8 3 C7.67 3.99 7.34 4.98 7 6 C4.625 6.1875 4.625 6.1875 2 6 C0 3 0 3 0 0 Z " fill="#131313" transform="translate(113,64)"/>
<path d="M0 0 C4.875 4.625 4.875 4.625 6 8 C4.35 8.66 2.7 9.32 1 10 C-0.83691257 6.21812119 -1.15837626 4.05431692 0 0 Z " fill="#252525" transform="translate(40,140)"/>
<path d="M0 0 C-1.39332574 3.36720387 -2.9789286 4.9859524 -6 7 C-6.66 6.67 -7.32 6.34 -8 6 C-6.53781513 1.3697479 -6.53781513 1.3697479 -4 -0.375 C-2 -1 -2 -1 0 0 Z " fill="#080808" transform="translate(123,109)"/>
<path d="M0 0 C1.65 0 3.3 0 5 0 C5 0.99 5 1.98 5 3 C5.94978897 5.15028304 5.94978897 5.15028304 7 7 C4 7 4 7 1.8125 5.1875 C0 3 0 3 0 0 Z " fill="#131313" transform="translate(42,148)"/>
<path d="M0 0 C0.66 0.33 1.32 0.66 2 1 C0.35 3.64 -1.3 6.28 -3 9 C-3.99 7.68 -4.98 6.36 -6 5 C-4.02 3.35 -2.04 1.7 0 0 Z " fill="#0D0D0D" transform="translate(41,55)"/>
<path d="M0 0 C-0.99 0.33 -1.98 0.66 -3 1 C-3.99 2.485 -3.99 2.485 -5 4 C-6.65 2.35 -8.3 0.7 -10 -1 C-5.94568308 -2.15837626 -3.78187881 -1.83691257 0 0 Z " fill="#2D2D2D" transform="translate(150,41)"/>
<path d="M0 0 C1.98 0.99 1.98 0.99 4 2 C3.34 2.66 2.68 3.32 2 4 C1.34 2.68 0.68 1.36 0 0 Z M0 3 C0.66 3.99 1.32 4.98 2 6 C-2.43076923 8.09230769 -2.43076923 8.09230769 -5.3125 7.625 C-5.869375 7.41875 -6.42625 7.2125 -7 7 C-5.02 6.67 -3.04 6.34 -1 6 C-0.67 5.01 -0.34 4.02 0 3 Z " fill="#333333" transform="translate(84,112)"/>
<path d="M0 0 C1.32 0.99 2.64 1.98 4 3 C2.35 4.32 0.7 5.64 -1 7 C-1.66 6.67 -2.32 6.34 -3 6 C-2 4 -1 2 0 0 Z " fill="#E1E1E1" transform="translate(116,105)"/>
<path d="M0 0 C0.99 0.33 1.98 0.66 3 1 C2.1875 3.4375 2.1875 3.4375 1 6 C0.01 6.33 -0.98 6.66 -2 7 C-2 5 -2 3 -2 1 C-1.34 0.67 -0.68 0.34 0 0 Z " fill="#1B1B1B" transform="translate(75,120)"/>
<path d="M0 0 C0.33 1.65 0.66 3.3 1 5 C-0.9375 4.6875 -0.9375 4.6875 -3 4 C-3.33 3.01 -3.66 2.02 -4 1 C-2 0 -2 0 0 0 Z " fill="#0C0C0C" transform="translate(139,34)"/>
</svg>
